<?xml version="1.0" encoding="utf-8"?>
<!-- Generator: Adobe Illustrator 24.0.1, SVG Export Plug-In . SVG Version: 6.00 Build 0)  -->
<svg version="1.1" id="katman_1" xmlns="http://www.w3.org/2000/svg" xmlns:xlink="http://www.w3.org/1999/xlink" x="0px" y="0px"
	 viewBox="0 0 1000 667" style="enable-background:new 0 0 1000 667;" xml:space="preserve">
<style type="text/css">
	.st0{fill:none;}
	.st1{fill:none;stroke:#000000;stroke-miterlimit:12;}
	.st2{font-family:'ArialMT';}
	.st3{font-size:13px;}
	.st4{font-size:8px;}
	.st5{font-size:12px;}
	.st6{font-size:9px;}
	.st7{font-size:11px;}
	.st8{font-size:15px;}
	.st9{font-size:7px;}
	.st10{font-size:4px;}
	.st11{font-size:18px;}
	.st12{font-size:14px;}
	.st13{font-size:3px;}
	.st14{font-size:20px;}
	.st15{font-size:5.9994px;}
	.st16{font-size:6px;}
	.st17{font-size:8.0006px;}
	.st18{font-size:5px;}
	.st19{font-size:5.0006px;}
	.st20{font-size:4.0002px;}
	.st21{font-size:10px;}
	.st22{font-size:4.9996px;}
	.st23{fill:#79B5E9;}
</style>
<path class="st0" d="M0,0"/>
<path class="st1" d="M253.4,459.7l-3.2,0.9l0.2-0.6l4.4-2.2L253.4,459.7z M198.5,387.9l1.4-0.4l0.7,0.2l1.8-1.8l5.1-3.4l2.7,1.8
	l-0.1,2.1l-1.6,1.5l3.3,2.5l1.4-0.2l1.5,5l5.5,1.1l1.9,2.2l3.3,1.8l4.5,0.7l8.4-2.1l2.8,0.3l-0.6-3.2l4.6-1.3l0.4-1.5l2.9-2.1
	l4.7-0.2l0.7-1.1l4.2-0.2l0.8,1.8l7.8,1.5l3,1.1l0.1,1.1l3.5,1.7l1.8,2.3l4-0.2l1.2,6.3l-0.9,4.9l-1.9,1.9l1.1,1.2l-2.1,1.4l0.2,2.8
	l2,0.5l-1.6,2.4l1.6,5.3l0.2,4.5l4.5,0.6l0.8,3.2l-4.8,6l2.4,2.5l3.5,4.9l4.6,1.5l0.5,6l2.8,0.6l-0.8,2.8h-2.1l-4.8,2.5l-1.2,6
	l-0.9,0.8l-4.2-1l-0.5-1l-3.5,0.7l-5.9-1l-3.5,0.2l-4.5-1.2l-1.8-6.1l-1.3-1.7l-2.4-0.2l-3.5,1.2l-4.6,3.1l-2.7-1.1l-3.2,0.1
	l-1.7-1.6l-4.6-2.2l-0.8-1.4l-5.7-1.8l-1.9-4.3l-2.3-2.3v-1.8l-2.8-2.7l-0.5-1.5l-2.5,1l-3.6-2v1.9l-2.1,0.7l-2.9-2.9l-0.1-2.9
	l-1.9-0.1l0.7-4.6l-2.7-4.1l-1.2,0.1l-4.7-2.9l-2.2-3.9l-2.8-2l0.1-2.8l2.6-4l1.4-0.9l-1.2-1.7l1.7-2.1l-5-0.7l-0.8-2.5l-1.4-0.8
	l-1.3-3.7l-1.1-3.6l-2-1.5l0.1-5.5l-1.3-3.4l1.8-0.3l0.8-2.1l1.3,0.7l3.5,3.9L198.5,387.9z"/>
<path class="st1" d="M600.1,567.7l-0.1-0.3l2.1-1.3l-0.5,0.7L600.1,567.7z M607.6,563.5l-1.6-0.4l0.5-1.2l2,0.6L607.6,563.5z
	 M611.9,560l-1.4-0.9l1.4-0.8l1.4,0.7L611.9,560z M632.3,541.2l-0.2,0.1l0.8-1.8l0.5,1.4L632.3,541.2z M624.5,539.7l-1.2,2.6l-2.6-1
	l2-1.9L624.5,539.7z M630.6,537.8l0.2,2.8l-1.2-1.2l0.2-1.2L630.6,537.8z M614.7,537.2l-0.5,0.8l-0.8-0.3l1-1.5L614.7,537.2z
	 M617.6,534.9l1.7,0.8l-2,5.3l1,2.8l-1.5,1.7l-2.4-2.1l-1.1-2.1l2.5-1.6l-0.4-2.3l0.9-2L617.6,534.9z M621.4,534.2v4.1l-3.3,4.6
	l0.5-2.9L621.4,534.2z M612.2,530.9l4.8,1.4l-0.2,1.6l-2.9,2.7l-3.4,1.6l0.7-6.7L612.2,530.9z M600,530.4l-0.8-2.1l2.6,1.3l-0.4,1.4
	L600,530.4z M620,527.3l1.7,3.4l-3.5-2.4l-1.3,1.5l0.2-3.6L620,527.3z M611.3,526.2l-0.7,2.6l-0.5-0.8l0.5-1.7L611.3,526.2z
	 M605.6,528.5l-2-4.1l-2.2-2.7l4.5,0.2l2,1.8l0.1,2.5L605.6,528.5z M609.6,521.1l1.3,0.4l-0.6,1.5l-1-0.7L609.6,521.1z M622.2,517.8
	l1,1.1l-0.4,1.6l-1.7-0.4L622.2,517.8z M609.8,512.9l0.4,1.7l-0.5,0.5l-0.6-2.2H609.8z M627.9,536.6l0.8,3.6l-1.7-2.4l0.2,2
	l-1.4-0.6l-0.2-3.7l-2-0.5l0.3-3l2.8,0.4l-0.8-0.8l0.2-1.2l-2.8-2.4l-0.7-1.7l4.8-0.4l1.8,1.7l0.5,5.3l-1.7,1l-1.4-1.5l0.2,3.2
	L627.9,536.6z M622.6,559.5l-0.3-3.6l1.1-1.6l-2.9-2.1l-2.9,1.8l-0.3-1.3l-1.5,2.5l-0.1-2.4l-1.7,0.3l-2,4.4l-1-0.5l0.9-4.6l0.8-1
	l3.3-0.9l0.8-2l3.6-0.6l0.7,2.4l1.9-0.4l0.8-2.2l1.9,0.6l0.1-3.1l1.8,1.2l0.5-1.4l1.7,0.3l-0.8-3.5l2.9,0.9l3.1,6.7l-0.3,2.1l1.2,3
	l-1.8,2.8l-0.2,2.6l-0.8-2.9l-1.6-2.7l-0.1,2.5l-1.4-0.6l-0.5,2.3l1,0.3l0.6,3.1l-1.4,2l-1.8-1.4l-4.5-1.6L622.6,559.5z M592.3,545
	l-2.5,2.3l-4.2,3.1l2.2-3.9l1.8-1l4.2-5.4l2.3-1.7l-0.4-2.4l1.4-2.7l0.5,1.4l0.6,3.4l-2.4,2.7l-2.3,1L592.3,545z M611.5,519.1
	l1.2-2.4l2,0.3l1.3,1.6h3.4l1.4,1.1l-2.3,0.7l3,1.8l0.2,3.9l-4.3-2.3l-0.8-2.4l-3.5-2.7l0.5,4.3l-1.5-2.2l-3.2-1.9l-1.6,1.7
	l-2.1,0.2l-0.8-1.5l-1.4,0.6l-0.4-2l2.1-1.9l-2.3-1.7l0.3,1.8l-2.8-1.5l-1.9-6.1l1.1-1.8l1.7,1.1l-0.1-4.1l0.6-3.3l-0.6-1l1.3-5.5
	l2.6-0.7l4.7,1.8l1.3-1.3l-0.2,5l2.1,2.8l-1.4,4.4l-3.5,2.2l0.4,1.5l-1.3,2l2,3.2l0.2,2.8L611.5,519.1z"/>
<path class="st1" d="M180.9,518.6l-0.2,0.5l-1.2-1.2l0.9-0.4L180.9,518.6z M228.7,472.5l0.4,1.9l1.6,0.2l0.2,1l5.5,6.3l13.6,1.3
	l0.5-0.5l2.6,4l-3.2,11.3l-15.8,6.2l-15.2,2.6l-5.1,2.8l-2.9,3.9l-0.8,2.1l-2.4,0.8l-1.4-1.7h-6.9l-1.4-0.6l-7.6,0.8l-2-0.9
	l-1.1,1.1l0.3,3.1l-2.1,2.2l-0.4-1.6l-2.3-2.7l-0.2-1.5l-3.2-2.5l-2.9-4.2l-1.6-4.5l-2.3-2.5l-4.8-2.6l-3.2-4.6l-0.8-3.4l0.5-3.6
	l-3.6-6.9l-4.2-2.7l-0.8,0.2l-2.1-3.3l0.4-2l-3.2-3.7l-2.5-4.3l-3.8-4.7l-2-3.4l-3-0.1l1.4-7.4l5.7,0.7l2.4-1.9l1.4-2.2l3.8-0.9
	l2.6-3l-5.7-5.7l10.6-3.4l0.9-0.8l6.6,0.8l9.3,4.8l14.4,10.7l9.9,0.3l4.9,0.4l1.3,2.6l4.2-0.1l2.5,4l2,1.6l0.5,2l4.5,2.9l0.2,5.4
	l1.7,1.6l2,3.9l0.9,1L228.7,472.5z"/>
<path class="st1" d="M638.9,446l2.3,0.3l-2.1,1.3l0.5-0.7L638.9,446z M646.4,437l-0.7-0.4l2.9-1.5l-1.4,1.5L646.4,437z M652.5,423.4
	l1,0.5l-1.3,0.8l-0.3-0.8L652.5,423.4z M655.4,422.7l-0.4,1.1l-0.6-0.5l1.1-2.3L655.4,422.7z M650.6,411.6l-0.1,0.3l-1.1,1.3l0.1-2
	L650.6,411.6z M644.5,406.9v2.4l-1.1,1.2v-0.9L644.5,406.9z M675.4,399.2l-1,0.9l-0.4-0.5l1.7-2L675.4,399.2z M645.5,400.6l-0.8,1.1
	l0.7-3.3l0.8,0.3L645.5,400.6z M693.5,375.6l0.3,1l-1.2,0.6l0.2-2.2L693.5,375.6z M648.5,410.2l-1.9-4.6l1.6,0.6l3.5-3.1l2.8-0.8
	l0.3,1.9l3.6,0.3l-1.1,1.9h2.1l0.8,2l-1.8,2.4l-1.6,7l-3.5,2.3l-2.4-1.3l0.5-2.3l-0.8-2.7l2.3-3.5l-2.4-3.2L648.5,410.2z
	 M674.6,402.3l-2,1.3l-0.9,2.4l-1.5-1.5l-3.5,1l-1.6,3.3l-2,0.5L662,405l2.9-4.2l0.8,1.2l2.3-0.3l0.7-1.3l2.7-1.3L674.6,402.3z
	 M709,358.4l1.7,1.8l2,5.3l-1.1,3.3l-2,2.3l0.5,2.5l-2.3-0.6l-0.8,3.1l0.7,3.2l-2.3,6.8l1.8,3.3l-2.1,1.1l-0.4,2.3l-2.5,1.8
	l-0.8-2.4l-3.4,0.6l0.1,2.2l-1.6,1.7l-0.3-3.2l-1.4,0.2l-1.7,2.4l-7.3,0.1l-1.1-1.4l-0.5,2.2l2,2l-3.6,1.4l-1.3,3l-2.7,0.3l-2.1-1.9
	l-0.1-2.4l1.4-2.7l-3.2-0.3l-5.6,1.7l-3.8,2.2l-3.2-1l-1.1,3.3l-2.3-1.3l-2.5,0.9l-2.2-1.1l0.5-1.7l2.4-0.2l5.2-4.8l1.1-1.7l2.4-1.1
	l1.8,0.9l6-1.5l6.8,0.6l1.5-1.5l-0.8-1.3l4.1-5.6l-0.2-3l2.9-1.2l-2,2.5l0.5,1.6l6.7-2.2l3.1-4.1l3-2.2l3-8.6l-0.2-2l-1.4-0.2
	l1.3-3.2l-1-1.4l2.3-1.9l0.2-2.6l1.8,2.3l2.4,0.1l0.2-2.6l-1.8,1l0.5-2.7l2,1.2L709,358.4z M704.8,351l-2.6,2.9l-1.3-1l0.8-2.8
	l-2-1.6l0.5-2.7l3.4-2.4l-0.3-2.4l3.7,1.5l1.4-1.6l-0.7-2.2l1.6-1.6l0.7-4.4l-1.3-3.7l2-2.4l5.7,6l5.3,2.7l4.8,1.1l2.6-2.7l-1.3,4
	l1.6,2.9l1.4-0.1l-4.7,2.6l-2.9-0.2l-2.9,2.2l-2,4.8l-8.2-4.2l-3.9,2l-1.4-1.4l-2.3,2l2.3,0.8l2.6,2.1L704.8,351z"/>
<path class="st1" d="M484.2,554l0.8,0.6l0.1,1l-0.7,0.6L484.2,554z M507.3,532L507.3,532l1,2.1L507.3,532L507.3,532L507.3,532z
	 M504.8,563.7l-1.4,2.8l-1.4-0.8l-2.3,1.5l-0.2-3.3l-5.1-2.3l-0.2,1.4l-2.4-2.2l0.3-1.4l-2-1l-2.8-3.8l-2.7-0.4l-1.1-2.1l0.2-2.7
	l2.4-7.2v-1.8l2.3-2.4l2.1-4l-1.4-4.1l-1.7-3.2l0.2-2.9l-3.4-3.5l-2.2-4l2-1.3l0.6-5.1l-1.4-4.1l-4.2-4.4l0.4-0.7l-2.1-3.1l2-0.3
	l-0.5-1.9l1.7-5l2.8,0.6l2.5-1l4.9-3.5l0.8,0.7l2.5,0.7l-0.4,3.5l4.2-0.3l0.5,2.9l-1.4,3.5l0.8,2l-1.4,2.6l1.4,0.7l4.9-4.3l3.2,1.9
	l3.8-3.4l3.3,0.6l1.6,2.5l2.9,2.6l-0.2,4.6l1.6,2l2,0.7l1.4,2.1l-1,2.9l0.8,0.6l-0.8,3.1l-1.2,0.5l-2.3-0.4l-4.1,0.7l-1.8-0.5
	l-3.1,0.8l-2.9,4.1l-1,0.1l1,4.9l1.6,1.3l-0.3,1.5l0.2,0.5l0,0l0,0l-2.2-0.7l-2.8-2.5H497l0.5-4.2l-4.9,0.5l0.1,6.6l-0.8,1.3
	l-2.7,7.4l-0.7,2.7l0.7,4.8l3.2-0.5l0.7,3.6l1.7,1.7l-0.3,4.3l4.5,3.4h3L504.8,563.7z"/>
<path class="st1" d="M269.5,496.3l-0.2-0.9l1.3-1.9l0.4,0.9L269.5,496.3z M255.7,467.9l-0.2,0.3l-0.1-0.6h0.7L255.7,467.9z
	 M254.4,463.3l1.5-2l0.5,2.7l-0.8,1.7l-0.7-0.1L254.4,463.3z M250.4,482.7l-0.1-1.7l1.7-4.4l-0.5-1.1l2.9-0.8l-1.4-0.8l0.1-3.6
	l1.4,0.6l1.8-1.3l1.3,2.6l3,3.1l8.8,2.2l4.2,5.1l1.4,0.2v1.9l-2.3,4.3l-2.2,1.8l-2,4.1l-2.2-0.8l-2,4.6l0.9,4.2l-4.9,1.2l-1.4,1.3
	l-1.6,3.8l-4.8,0.6l-2.1,4.7l-5.4,0.4l-4.9,2l-2.1-3.6l-4.3-9.3l15.8-6.2l3.2-11.3L250.4,482.7z"/>
<path class="st1" d="M243.7,538.8l2.9-0.1l1.9,0.8l-1.7,1.1l-3,0.2l-1.4-0.9L243.7,538.8z M240.3,517.1l-4.2,2.2l-0.2,3.6l-4.5,2.3
	l-4.4,1.2l-2,1.1l-3.2,0.7l-2.6,1.4l-2,2.6h-3.5l-3.2,2.4l-3.7,1.4l-5.6,0.6l-4.1,3.5l-1.8-0.3l-3.2,1.2l-2.6-1.2l-1.3-2l0.1-2.8
	l-3.5-10.9l0.4-3.7l2.1-2.2l-0.3-3.1l1.1-1.1l2,0.9l7.6-0.8l1.4,0.6h6.9l1.4,1.7l2.4-0.8l0.8-2.1l2.9-3.9l5.1-2.8l15.2-2.6l4.3,9.3
	L240.3,517.1z"/>
<path class="st1" d="M459.5,559.9l1.2,0.2l-0.2,2.4l-1-1.3V559.9z M453.1,540.9v1.1l-1,0.2l-0.1-1.3H453.1z M454.9,525.1l0.1,6.2
	l-1.9,4.4l1.1-8.4L454.9,525.1z M425.9,445.7l2.6-1.4l1.4,1.4l0.3,3.1l-0.8,0.9l2,1.9l3.8,0.6l3-1.2l1.1,0.6l5-0.3l3-0.9l-0.7-3.1
	l-1.2,0.3l-0.7-1.9l1.8,0.1l3.5-1.2l0.1-1.1l4.2-3.5l4.8-2.2l1.4-1.8l3.5,1.4l2.4-1.7l2.2-0.2l4.6,5.9l2,0.5l0.1,1.9l-2.4,1.7
	l1.5,2.8l-2-1.1l-3.3,0.6l-5.7,4.7l0.7,2.4l-2.8,3.9l0.6,2l-3,6.9l-4.3-1l0.8,2.3l-0.2,2.9l-1.2,0.7l0.3,3.5l-1,2.3l-2.1,0.1
	l-1.4-7.3l-1.2-2.5l-2.9,4.6l-1.6-1.1l-1-2.6l1.1-2.8l3.9-1.9l0.7-2.9l-1.4-1.5l-8.8,0.4l-3.1-1.1l0.2-3.2l-1.6-0.2l-5.9-2.6l-2,3.2
	l4.7,4.1l-2.6,0.1l-2.1,3.1l4,2.2l-1,3.3l2.3,2.6l-0.5,1.3l1.4,4.6l0.2,2.6l-2.8,0.8l-2.8-0.4l0.5-2.9l-2.4,2.9l-2.6,0.7l-1.9,2.2
	l1,2.7l-3.1,4l-5.1,1.9l-2.9,2.6l-4.1,5.4l-2.5,1.4l-1.9,2.6l-5,3.2l0.2,2.5l-2.9,1.6h-2.7l-0.5,1.9l-1.8,1.6l-1.4-0.9l-1.5,1.2
	l-1,3.7l0.8,2.4l0.3,4.7l0.8,1.9l-0.8,4.8l-1.5,2.5l0.2,9.6l-2.4-0.1l-2.4,4.7l0.7,0.8l-4.2,2l-0.8,3.3l-2.9,1.6L370,557l-2.4-2.7
	l-1.9-5.9l-2.4-6l-1.7-3.1l-1.9-1.8l-2.2-4.4l-1.4-5.7l-1.9-4.3l-4.6-7.4l-1.1-5.5l-1.7-5.5l-2.1-9.8l1.1-3.8l-0.2-2.1l-1.4-3.3
	l1.7-1.2l-2.1-0.1l-0.1-2.5l-2.2,1l1,1.9l-0.9,2.6l-6,2.9l-2.3-0.4l-2.7-1.9l-6.2-6.2l3.6-0.4l2.9-1.3l1.1-2.2l-3.6,1.2l-2.6-0.4
	l-3.4-1.9l-2.5-3.6l2.9-0.8v-1.8l4.5-0.1l2.2,0.5l2.9-1.6l1.3,1.1l1.7-1.1l-0.2-1.6l-2.4-4.2l-0.2-1.5l-2,0.1l-1.1-1.6l0.4-3.2
	l-3.8-1.4l0.5-2.2l3.9-5l2.7,1.8l5.5-1.7l2.6-4.9l2.8-1.6l2.3-5.4l3.1-1.6l-0.6-0.9l2.5-3.4l1.7-1.1l-1.1-3.7l1.7-1.9l2.8-1.6
	l-3.4-1l-0.3-2.2l-2,0.2l-1.7-2.2l-0.2-2.8l1.5-1.9l-1.7-0.3l-1-2.2l2.6-2.5l8.1,1.4l4.1-1.5l2.6-2.4l4-2.6l2.7,5.1l3.5,1.6l-1,1.8
	l0.4,3.2l3.2,2.2l0.7,3.1l-3,1.8l-1.1-1.7l-1.8,0.8l2.1,3.3l0.1,3.7l1.7-0.6l2.9,2.8l3.5,1.1l-0.3,1l4.5,2l-2.6,2.4l-2.2,5.8l6,2.5
	l0.9,1.4l4.1,1.1l3.8,2.3l9.8,0.6l0.5,1.8l3.5,1.5l1.7-0.8l1.3,1.6l2.5-0.3l2.3,1.1l1.7-1l1.6,1.2l4-0.7l0.5-1.7l-1.1-2L425.9,445.7
	z"/>
<path class="st1" d="M632.1,404.5l0.2,1.5l-2.9,0.7l0.1-1.6L632.1,404.5z M630.4,378.2L630.4,378.2l2.6-3l4.8-0.2l1.7-2l1.5,2.9
	l3.9,5.2l0.9,3.2l-0.4,3.5l0.9,0.7l-0.4,3.5l-1.4,2.2l-3.8,0.5l-0.2,1.3l-2-0.8l-2.6,0.9l1.1,1.3l-6.4,2.9l-1.6-3l0.8-2.2l-0.1-3.3
	l1.8-1.4l-1.7-1.8l-0.9-3.9l0.8-1.6l2.1,0.7l-2-4.4L630.4,378.2z"/>
<path class="st1" d="M443.1,476.8l0.3,0.8l-0.6,0.8l-0.3-0.2L443.1,476.8z M450.9,478.7l0.5,3.8l-1.7-0.8l-0.2,2.2l0.2,1.7l-2.4-4
	l-0.2-3.5l-2.3-3.7l-2.6,1.3l-2.5-2.8l0.5,4.9l0.5-1.3l-0.2-1.9l1.1,3.3l-1.9,0.6l0.3-0.6l-1.9,2.3l-0.5-1.1l-4.5,2.2l-1-2.8
	l-1.4-4.6l0.5-1.3l-2.3-2.6l1-3.3l-4-2.2l2.1-3.1l2.6-0.1l-4.7-4.1l2-3.2l5.9,2.6l1.6,0.2l-0.2,3.2l3.1,1.1l8.8-0.4l1.4,1.5
	l-0.7,2.9l-3.9,1.9l-1.1,2.8l1,2.6l1.6,1.1l2.9-4.6l1.2,2.5L450.9,478.7z"/>
<path class="st1" d="M577.7,537.8L577.7,537.8L577.7,537.8L577.7,537.8L577.7,537.8z"/>
<path class="st1" d="M608.5,426.9l-1.7-0.2l-0.2-0.9l1.7,0.4L608.5,426.9z M606,417.9l-3.3-1.1l-0.3-1.1l3.9,1.6L606,417.9z
	 M430,448.7l-0.3-3.1l-1.4-1.4l-2.6,1.4l-5.2,0.5l-3.3-1.5l-2.9,1.3l-1.7-2.6l-3.2,0.3l0.4-1.6h-2.6l-2.4-1.7l-0.8-2l-3.1,0.5
	l-2-2.5l-1.7-0.2l-3.8-2.3l-0.3-1.5l-3.8-0.1l-1.5,2.2l-0.6-1.1l-4.5-2l0.3-1l-3.5-1.1l-2.9-2.8L375,427l-0.1-3.7l-2.1-3.3l1.8-0.8
	l1.1,1.7l3-1.8L378,416l-3.2-2.2l-0.4-3.2l1-1.8l-3.5-1.6l-2.7-5.1l-2.1,0.3l-3.4-0.9l-1.4-1.6l-2,0.6l-1.5-1.7l0.4-2.2l-3.5-2.7
	l-4.4-0.5l-0.9-0.7l2.7-0.7l1.4-1.1l-1.5-1.1l-0.8-5.7l-2.3-1l-2.9,0.6l-1.1-5.3l1.6-1l0.3-3l2-0.3l2.4-2.7l1.9,0.3l2.1-1.1l0.6,2.1
	l5-2.4l0.7-2.1l6.9-0.8l1.5-2.2l4.9-2.8l4.7-1.7l0.2-1.1l-0.5-2.8l3.4-3.4L381,347v-3.6l-2-0.8l0.4-1.6l8.9-2.4l1.1,1.2l3.4-0.3
	l0.2-1.7l-1.8-0.6l1.4-4.5l2.9-7l4.2,1.4l4-0.1l0.6,1l3.8-1.6l0.9-2.4l-1-3.6l1.3-3.4l4.2-1l1.6-4.1l2.3,0.1l1.1-0.3l1.5-0.4l0.8,4
	l3.4,1.6l2.6,2.3l2.7-0.4l4.4,2.5l0.8,2.3l3.2,5l-0.1,3.7l-1.8,3.6l1.3,2l4.2,0.7l10,0.4l2.3,1.7l6,2.6l1.8-0.3l3.1,7l2.4,3l4.5-0.5
	l12.3,1l2.9-0.8l8.8,0.7l2.2,2.2l5.6,0.9l3.5,1.5l4.2-0.9v1.3l2.8,0.3l1-0.9l8.3-3.8l7.5-1.4l7-0.2l4.9-2.2l2.7-3.5l5.3-2.9
	l-3.1-4.2l1.7-4.2l1.4-0.8l8.8,2l2.2-1.4l2.5-3.1l5.9-0.6l2.8-1.9l2.2-4.1l3.8-0.4l4.9-2.7l3.1-0.4l4.7,1l1.1-0.8l-1.1-3l-6.4-5.4
	l-4.3,0.1l-0.3,0.2l-0.9,1.3l-1,0.9l-2.6-1.5l-3.2,0.2l-2,1.2l-2-2.8l5.9-12.2l5.8,2l4.7-3.3l3.5-1.1l-1-1.9l1.8-2.7l3-6.8l3.5-3.3
	l-0.4-3l-3.6-0.4l-0.2-1.2l4.4-3.9l7.8-1.8l6.9-0.8l4.3,2.3l3.8,0.1l3.3,1.5l4.5,5.8l-0.5,1.3l2.6,4.1l0.2,2.4l2,2.2l0.4,2.9
	l1.3,0.7l-0.2,2.8l3.2,1.9l3.8-0.3l1.6,1.5l2.3-0.6l4.2,3.8l2.3-0.2l-0.8,1.7l1.7,2l-0.7,2l1.9,2.5l8.1-0.5l2.9-2.9l6.9-2.1l2.3,4.5
	l-3.2,3.2l-1.1,6.9l-1.1,0.8l-2.8,6.9l-1.5,0.6l-0.6-1.3l-3.9,0.3l-1-0.7l-2,2.6l-2.6,0.8l2,5.2l0.2,4.5l-0.8,3l-3.7,1.3l0.7,1.3
	l-2.3-2.8l-1.4,0.1l-0.7,3.4l-2,0.1l-2.3,2.8l-4.7,0.3l1.6,2.6l-0.8,1.4l-4.8-0.6l-1.9-1.9l-1.6,1l-3.1,4.9l-5.9,3l-2.7,2.5
	l-1.3,1.7l-3.9,0.4l-5.3,2.6l-2.7,3l-3.8,1.5l-0.2-1.3l2.9-1l0.5-1.8h-2.6l1.2-3.1l1.8-0.9l2.2-3.3l-2.5-2l-3.7-0.5l-3.8,4.8
	l-4.8,2.2l-2.6,4.4l-4.2,1l-2.6-0.2l-1.1,3.1l3,2.9l4-0.2l1.2,2.6l-0.3,2.8l2.6,0.9l6.8-4.7l4.7,2.4l2.8-1l3.1,0.9l-1.9,3.7
	l-1.5-0.9l-6.8,3.5l-0.2,1.9l-5.5,3.6l-2.3,3.4l2.5,2.9l3.3,1.4l1.4,3.9l2.3,3.8l-0.1,2l2.9,1.6l2.4,2.5v1.6l-2.9-1.1l-2.9,0.7
	l5.4,2.8l1.4,2.2l-5.3,2.3l-1.3,1.9l3.4-0.7l1.7,1.9l2.3,0.5l-0.9,1.6l0.2,3.3l-2-1.2l0.6,5.6l-2.6,1.8v-2l-3,4.8l-0.3,2.1l-4.3,3.1
	l1.1,2.2l-2,5.5l-0.8-1l-1.9,1.6l0.2,1.9l-5,3.3l-2.3,3.9l-3.6,0.6l-2.1,4.1l-3.5,1.2l-5.6-0.1l-1.4,2l-3.3,0.4l-0.9-2l-0.9,3.4
	l-5.1,2.5l-3-0.1l-2,1.6l-4.9,1.1l-0.9,2.3l-1.8,0.2l0.8,3.8l-2.6,0.4l-1.5-3.8l0.3-3l-3.2,0.4l-0.1-1l-3.8-1.4l-2.3,2.2l-3.5-0.5
	l-3.8-2.1l-0.7-2.4l1.1-1.8l-1.4-1l-3.4,0.2l-2.9-2.5l-2.3,1.2l-0.2,1.4l-4.4,2.4L510,472l-1.8,0.1l-1.7,2.1l-2.9-1.8l-1.7,2.2
	l-2.5-0.2l-0.7,1.2l1.4,2.3l-0.1,3.9l-2.3-0.2l-0.8-2.1l-0.2-1.1l-4.9,2l-1.4-3.4l-4.3-0.5l1.7-5.1l-3.4-0.6l-0.1-2.5l-1.6-2.5
	l-2.2-0.2l-2.9,1.5l-0.7-5l1.4-3l4.5-3.7l-0.8-1.3l1-3l-0.5-5.5l-2.1,0.3l-1.1-3.5l-3.2-2.2l-1.1,1.9l-2-0.5l-4.6-5.9l-2.2,0.2
	l-2.4,1.7l-3.5-1.4l-1.4,1.8l-4.8,2.2l-4.2,3.5l-0.1,1.1l-3.5,1.2l-1.8-0.1l-2-1.9l-1,0.8l-3.4-0.6l-1.4-1.6l-3.5,1.5L430,448.7z
	 M543,486.6l6.6-0.2l0.4,1.7l-1.7,1.7l-1.4,4l-3.3,1.7l-1,1.3l-4.7-1.7l-0.5-4.3L543,486.6z"/>
<path class="st1" d="M224.4,463.3l0.8,0.3l-0.2,2.3l-0.6-1.1V463.3z"/>
<path class="st1" d="M483.3,530.3l0.2-0.9l1,0.9l-0.8,1L483.3,530.3z M449.4,483.9l0.2-2.2l1.7,0.8l-0.5-3.8l2.1-0.1l1-2.3l-0.3-3.5
	l1.2-0.7l0.2-2.9l-0.8-2.3l4.3,1l3-6.9l-0.6-2l2.8-3.9l-0.7-2.4l5.7-4.7l3.3-0.6l2,1.1l-1.5-2.8l2.4-1.7l-0.1-1.9l1.1-1.9l3.2,2.2
	l1.1,3.5l2.1-0.3l0.5,5.5l-1,3l0.8,1.3l-4.5,3.7l-1.4,3l0.7,5l2.9-1.5l2.2,0.2l1.6,2.5l0.1,2.5l3.4,0.6l-1.7,5.1l4.3,0.5l1.4,3.4
	l4.9-2l0.2,1.1l-2.3,1.5l-0.9,2.8l-1.7,0.7l-0.5,2.2l-0.8-0.7l-4.9,3.5l-2.5,1l-2.8-0.6l-1.7,5l0.5,1.9l-2,0.3l2.1,3.1l-0.4,0.7
	l4.2,4.4l1.4,4.1l-0.6,5.1l-2,1.3l2.2,4l3.4,3.5l-0.2,2.9l1.7,3.2l1.4,4.1l-2.1,4l-2.3,2.4v1.8l-1.1,2l-0.6-3.9l1.4-1.2l0.1-4.6
	l-2,0.2l1.4-5.4l-0.7-2.6l-2.3-2.6l-2.1-6.5l-1.1-7.6h-1.1l-2.3-5.2l-0.9-0.7l-0.5,3.6l-0.9,1.2l-3.8,1.7l-2.3,2.8H465l-4.2-1.3
	l0.2-2.9l1.7-5.6l-1.2-4.2l-1.5-2.8l-2.6-1l-1.1-1.6l1.4-0.2l-0.6-0.9h0.8l0.8,0.4l-3.2-3.6l-1.7,0.5l-3.7-3.7L449.4,483.9z
	 M458.6,493.1h0.4l-0.2-0.1L458.6,493.1z"/>
<path class="st1" d="M622.1,650.7l-0.8,1.3l-1.9,0.6l2.8-2.7L622.1,650.7z M603.9,644.7l2.6,1.4l1.9,2.4l-2,1.3l-2.6-1.6l-5.7-2.2
	l1.2-1L603.9,644.7z M620.5,639l-1.4,1l0.8-1.4l1.6-0.5L620.5,639z M586.2,640.1l-0.8,2.7l-3,0.2v-2.5l1.9-1.4L586.2,640.1z
	 M624.7,637.9l-2,1.9l-1.7-0.2l0.8-1.2L624.7,637.9z M626.3,638.6l-0.3,0.8l-0.8-0.5l1.2-1.4L626.3,638.6z M628.1,637.2l2.9,0.1
	l0.2,1l-3.7,0.7L628.1,637.2z M645.3,636.9l0.3-0.5l1.6,0.2l0.5,0.8L645.3,636.9z M579.5,639.1l1.2,1.1l-2.5,2.5l-4.3-3.8
	L579.5,639.1z M655.9,634.4l0.5,0.7l-0.5,0.7l-1-0.7L655.9,634.4z M639.5,634.2l-1.3,1.6l-2.1-0.3l-0.8-1.1L639.5,634.2z
	 M666.3,630.4l-0.4,2.5l-1.7,2.3l-1.1-2.1L666.3,630.4z M571.2,632.3l0.8,0.6l-3.1,1.4l-4.4-0.2l0.5-1.4L571.2,632.3z M605.9,628.9
	l-0.4-3.3l0.2-0.5l0.4,1.2L605.9,628.9z M671.4,622.4l0.4,0.6l-0.3,0.8l-0.5-0.2L671.4,622.4z M679.4,622.6l1.8-2l1,1.3l-0.2,3.5
	l-2,0.2l-1.2-1.6L679.4,622.6z M673,622.1h-0.2l0.5-1.8h0.4L673,622.1z M613.3,621.2l0.8,0.6l-0.5,1.4l-0.9-1.1L613.3,621.2z
	 M617.9,620.3l-1.1,2.6l-1.4-0.2l0.5-3.4l1.8-0.6L617.9,620.3z M620.1,618.7l-1.3,2.8l1.4,0.6l-3.4,1.3l0.8-1.5l0.8-4.2L620.1,618.7
	z M619.4,615.1l0.9,0.4l-0.9,0.8l-0.8-0.9L619.4,615.1z M647.8,611.9l-2.2,1l0.2-1l1.4-0.5L647.8,611.9z M583.1,613.7l-1.2,3
	l-0.5-2.2l1.3-2.3L583.1,613.7z M639.5,609.6l2.1,1.4l-0.1,1.2l-2.6,1.4l-3.1-1.3l-1.1-1.8l2.3-1.1L639.5,609.6z M498.2,614.6
	l-0.7,0.2l-1.1-1l0.2-1L498.2,614.6z M535.6,611.9l0.8-1.6l3.2,0.9l-0.2,2l-1.8-0.3l-1.3,1L535.6,611.9z M496.5,612.7l-1,0.5
	l-0.2-1.9l1.2,0.9V612.7z M493.7,609.4l0.8,1.2l-1.4-0.4l-0.2-1.4L493.7,609.4z M635.1,606.2l-0.6-0.3l-0.6-1.6l0.7-0.6L635.1,606.2
	z M631.5,602.7l3.1-0.1l1.5,0.4l-4.5,0.6L631.5,602.7z M657.9,601.2l0.5,0.8l-1,1.1l-2.9-0.8L657.9,601.2z M625.9,604v-1.7l1.4-0.2
	l3.7,1.1L625.9,604z M685.3,599.7l6.6,0.5l0.9,0.5l-3.2,0.6L685.3,599.7z M531.5,612.5l-4-0.6l-1.1-3.4l-2.6-0.1l-0.8-1l2.3-2.3
	l2.4,0.2l1.9,4.7l2.6,0.4L531.5,612.5z M643.3,599.5l2.6,1.5l-0.4,0.7l-3.6-0.3L643.3,599.5z M621.3,601.4l-3.5,0.6l0.1-2.1l2.7,0.1
	L621.3,601.4z M489.3,603.2l2,4.4l-2-0.4l-1.7-2.6L489.3,603.2z M660.2,596.7l1.4,0.5l-0.5,2l-1.8-1.8L660.2,596.7z M684.9,594.7
	l2.3,0.1l2,1.9l-1.5,0.8l-1-2L684.9,594.7z M518.8,598.7l0.8,0.7l-1.2,1.2l-0.5-1L518.8,598.7z M641.1,595.2l1.3-0.9l0.6,1.7
	l0.8,1.3L641.1,595.2z M613.6,594.9v0.7l-2.2,0.7l1-1L613.6,594.9z M658.9,594.4l-1.7-1.7l2.9-0.6l2.6,0.7l-0.3,1.3L658.9,594.4z
	 M486.9,600.1l-0.5,1.2L486,601l0.7-1.5L486.9,600.1z M519.5,596.5l0.9,1.4l-0.2,0.2l-1.5,0.1L519.5,596.5z M513.3,592.2l0.2,1.6
	l-0.8-0.7L513.3,592.2L513.3,592.2z M510.9,591.7l0.3,1.1l-1.6-1v-0.7L510.9,591.7z M515.8,591.8l0.8-0.2l1,0.9l-0.1,0.8
	L515.8,591.8z M519.5,592.6l-1-1.3l-1.2-0.1l1.9-0.8L519.5,592.6z M480.5,590.2l3.1,2.7l-1.1,2.3l-3.6-4.4L480.5,590.2z M506.6,589
	l1.4,0.3l0.2,1.2l-2-0.9L506.6,589z M503.7,586.5l0.1,1.5l-0.8,0.4l-0.8-1.9H503.7z M645.3,580.2l2.2-2l0.7,0.8l-1,2.3L645.3,580.2z
	 M472.5,582.9l3.1,2.8l-4.2-2.1l0.5-0.8L472.5,582.9z M538.6,574.3l0.2,2.1l-1.9-1.7l1.3-1.3L538.6,574.3z M637,571.4l0.8-1.4
	l-0.5-1.7l1.1,1.4L637,571.4z M680.3,625.9l0.4,0.3l-1.3,2.6l-0.7-0.8l0.3-3.2l1.3,1l1.4,0.5l0.9-0.2l-0.6,0.6L680.3,625.9z
	 M594.6,639.7l3.8-0.9l0.2,2.1l-3,1.4l-7.8,1.6l-1.4-0.4l0.3-2.8l3.2-0.3l0.3-1.6l3.3-0.4L594.6,639.7z M625.4,643.8l1.3,0.9l1-1.8
	l0.6-0.1l1.8-1.2l1.3,1.2l-0.4,1.6l-3.3,3.8l-5.1,1.3l1.1-4.1L625.4,643.8z M590.1,572.1l-1.3,1l0.2-1h0.2H590.1z M515.6,602.7h2.9
	l1,4.3l2,2.3l3.9,0.4l2.6,4.6l-1.3,2.3l0.7,0.8l-0.5,10.8l-2.6-1.8l-1,1.8l-2.7-1.6l0.6,2.3l-2.3-1.4l-3.3-3.6l-4.2-2.3L508,619
	l-0.5-1.9l-3.2-1.9l-2.9-3.5l-1.3-2.9l-2.7-4.1l-0.6-2.3l-2.7-2.7l-1.2-2.1l-2.6-0.8l-0.3-1.9l-3.2-7l-4.8-2.4l-0.4-2.4l-4.7-4.6
	l-1.8-0.3l-5.6-5.2l-1.6-4.1l3.9,0.4l1.4,1.1l7.3-0.1l2.3,1.9l0.5,1.8l1.5,0.6l0.2,1.9l7.9,4.5l4.5,5.4l1.6,0.8l1-1.7l1.9,2.8l4,1.9
	l0.6,1l-0.1-1.1l1.4,0.8v0.9l0.1-0.3l3.2,1.8h-2.8l-0.8-0.4l0.3,0.5l2.3,0.2l1.2,1.3l1.7-0.3l2,2.8l-2,1.2l1.9,0.6l-2.2,2
	L515.6,602.7z M507,591.7l0.6,1l0.2-0.5L507,591.7z M702.2,625.2l-2.3-5.3l-4.7-2l-2.1-0.4l-4.7-2l-4-0.2l-4.9-3v0.8l-4-2.3
	l-1.7,2.8l-1.5,0.3l-1.4-2.2l1.1-0.8l-3.3-3.1l-1.9-0.2l1.1-1.3l2.9,0.6l1.6-1.8l4.2,0.8l0.8-1.4l-3.7-0.9l-3.2,0.6l-3.3-0.9
	l-1.6-3.1l-4.5-0.2l1.4-3.5l3.5-0.8l1.1-1.2l3.2-0.7l3.8,1.8l3.1-0.1l1.8,3.3l-0.5,3.2v2l1.7,2.9l0.6-2.3l0.7,2.8l1.6,1.9l2.6,0.1
	l4.2-4.4l0.6-1.9l4.5-0.9l-0.5-1.6l3.4-1.7l11.3,4.3l1.6-0.3l4.4,1.4l1.2,35.1l-5.7-5.1l-5.9,0.4l0.2-0.5l-0.8,0.7h0.7l0.4,0.9
	l-1.8,0.2l0.5-1l-1.1,1l-4.4,0.4l2-4.5l4.2-1.3l1.4,0.9l-0.4,1.3l0.5-1.3l-2.3-1.9v-3.1L702.2,625.2z M588.3,572.1l1.1,2.8l-3.5,0.1
	l3.2,1.1l-1.8,1.1l1.5,0.6l2.7,4.4l-1.2,2l6.3,4.8l-1.1,0.9l-3.9-0.6l-1.4,0.7l-1.7,3.9l-0.1,3.4l1,1.4l-1.7,0.1l-1.4,2.1l-2.5,1.6
	l-0.8,1.6l1.3,2.5l-3.2,7.5l-7.1,3.3l-0.8-3.7l-2.4-0.6l-2.2,0.6l-3.3-2.7v1.3l-2.1,1.4l-1.7-0.5l-2.5,1.4l-0.6-4l-5.7,1.7l-2.1-0.4
	l-2.2-10.2l-1.7-0.5l0.9,0.6l-1.6,1l-0.2-1.6l0.8-0.1l-1.7-0.6l0.3-1.5l-1.7-1.7l1.4-1.5l-2.1-1.6l-0.5-2.7l1.1-4l2.9-2.8l-0.6,1
	l1.8,2.5l3.9,2.9l3.4-1.3l3.3,0.2l1.9-2.5l4.5-0.6l3.5,1.6l1.4-1.3h3.2l1.7-2.5l-0.4-1.9l2.3-1.5l-0.8-1.7l2.1-1.1l0.7-2.3l-0.5-2.4
	l1.6-2.7l2.9,0.4l4.4-0.4L588.3,572.1z M616,640.3l3.5-2.4l-0.8,2.2l-5.4,1.7l-2.1-0.4l-2.6,0.8l-1.7-0.6l-3.6,0.5l-1.9-1.5l3.3-1.7
	l4.2,0.1l2.9,1.3l2.6-1L616,640.3z M567.6,637.4l3.8-0.9l2.4,1l-0.5,3.1l1.4,1.9l-3.4-0.6l-4.2-1.8l-2.8,1.1l-4.8-0.9l-0.6,0.6
	l-6.5-1.2l-2.4-1.1l-6.3-1.2l-2.9,1.2l-5-1.6l-4.8-0.3v-2.3l-3.2-0.8l-3.8,0.3l-0.4-0.9l1.4,0.6l2-2l1.1-3l5.1,0.9l0.2-0.9l5.7,2
	l1.4-0.5l1.4,2.7l10,0.7l1-2.4l1.4-0.6l1.3,1.5l1.8-0.5l3.1,1.4l2.9-0.1l1,3.4L567.6,637.4z M659.4,608.9l1.7,2.4l-0.2,1.6l-7-2.9
	l-0.3,1l-3.3-1.3l-2,1.5l-2-2.1l-1,2.6v-2.8l1.2-0.9l5.1,0.3l1.7-1L659.4,608.9z M620.7,597.5l-0.7,1.6l-2.7-0.6l-2.3,3.2l-3,1.2
	l-0.5,1.1l-2.1-0.6l5.6,5.9l-0.2,4l3.6,2.7l-0.3,1.3l-3.9,0.6l-0.6,1.8l-2.7-0.9l0.6-3.1l-4-2.8l0.8-4.3l-1.7-0.6l-2.9,1.9l1,1.3
	v3.9l0.6,3.7l-0.9,2.8l0.4,2l-4,0.9l-1.2-1.6l1.3-5.6l-2-4.7l-2,0.8l-0.9-3.8l1.9-2.2l0.9-2.6l-0.2-4.1l2-3.1l0.2-4.8l1.4-2.7
	l2.7-0.3l1.7-3.2l3.1,1.1l12.7,1.2l4-2.1l-0.2-0.9l3.1-2.1l-1.2,4.1l-2.9,3.2l-5.8,0.6l-0.9-1l-6.8,0.8l-0.6-0.6l-4.3,0.7l-2.8-0.1
	l-1.9,3.7l0.6,2.4l1.7,1.2l1.5,2.6l2.2,0.1l2.1-3.1l3.3,0.2l0.5-0.8l4.1-0.4l1.4-0.9L620.7,597.5z M646.8,597.6l-3.6-3.8l-0.5-5.6
	l-1.2-2.1l0.8-2.8l1.7-2.4l0.8,3.4l-2,3l0.9,1l3.4-4.1l1.4-0.2v2.7l-2,1l0.1,1.2l2,0.6l1.1,1.6l-4.9-1.1l-0.3,2.7L646.8,597.6z"/>
<path class="st1" d="M515.3,590.4l0.8,0.2l-0.8,0.7l-1.1-0.2L515.3,590.4z"/>
<path class="st1" d="M734.4,332.9l-2.8,3.2l-0.4-0.6l2-3.1L734.4,332.9z M747.4,326.4l-5.9,2.3l-3.8,4.1l-0.5-0.4l5.3-5.1l3.8-2
	L747.4,326.4z M756.6,319.9l-1.9,2.1l-4,2.5l4-4.1L756.6,319.9z M765.2,313.4h0.5l-2.6,2.7l0.2-0.7L765.2,313.4z M778.9,295.6
	l-0.2,2l-0.6,0.6l-0.6-0.7L778.9,295.6z M785.4,289.2l-1.2,1.8l-3.5,1.5l-0.2-1.7l2.8-1l1.8-2.6L785.4,289.2z M786.9,288l-1.2-0.1
	l1.1-1.4l0.7,0.8L786.9,288z M682.7,259.1l-0.8,1.3l-1.8,0.1l2-1.5L682.7,259.1z M685.9,258.6l1.8,0.9l-2.1,3l-1.2-1.9L685.9,258.6z
	 M836.9,251.6l1.7,1.6l2.2,2.2h-1.5L836.9,251.6z M828.5,222l0.4,2.6l-5.5,2.6l1.9-3.8L828.5,222z M137.7,196.4l-0.2,0.9l-1.2,0.6
	l-1.4-1.1L137.7,196.4z M315.4,175.1l4.3,0.8l-0.2,1.7l-2.7-0.7L315.4,175.1z M212,158.5l-8.1,2.5l-2-1.7l0.3-3.5l5.1-2.3l4.8,2.2
	L212,158.5z M808.2,131.8l0.9,5.4l-2-0.9l-0.5-3.5L808.2,131.8z M303.9,150.7l-1,0.8l-0.8-0.5l1.9-1.6L303.9,150.7z M808.4,133.1
	l-0.2-1.7l1.3,0.1l-0.1,1.2L808.4,133.1z M851.2,128.1l-2.9,2.1l-6-2.4l2.6-2l6.3,1.3L851.2,128.1L851.2,128.1z M298.9,137.5l1,3.3
	l-0.9-1l-0.4-1.3L298.9,137.5z M225.2,134.1l2.6,2.5l-1,1.9l-4.2-2.9L225.2,134.1z M907.5,114.2l-6.2,2l-1.2-2.2l1.4-2.1l5.7-3.1
	L907.5,114.2z M681.5,116.2l-0.5,1.6l-4-0.9l1.1-0.5L681.5,116.2z M359.1,120.3l-4.6,0.3l3.6-3.7l4.2,1.3L359.1,120.3z M635.3,105.7
	l-5.4-0.3l3.5-1.3l2.2,0.6L635.3,105.7z M368.3,113.6l0.2,1.9l-5.3-1.1l2.9-2.5L368.3,113.6z M343.1,112.6l-2,2.1l-2-1.3l0.6-0.9
	L343.1,112.6z M584.1,104.7l-0.8-0.7l2-0.7l1.1,1.3L584.1,104.7z M323.6,111.4l0.9,1l-8,1.8l0.4-3.8l5.2-1.5L323.6,111.4z
	 M350,107.5l-1.9,1.2l-1.6,0.1l0.6-1.1L350,107.5z M384.9,100.7l2.5-0.7l2.1,0.3l-0.9,0.9L384.9,100.7z M669.2,89.7l2.8,1.9
	l-0.6,1.2l-3.8-2.9L669.2,89.7z M695,91.6l-1.8-3.2l3.5-0.8l0.9,2.9L695,91.6z M549.1,92l-3,2.9l-7.2-2.4l2.9-2.2l7,0.4L549.1,92z
	 M399.7,95.7l-1,0.4l-0.9-0.7l2-0.5L399.7,95.7z M402.3,94.8l1.2,0.4l-2.1,1.1l-0.8-0.3L402.3,94.8z M408.2,90.5l-0.9,1.3l-3.5-0.1
	l1.1-1.4L408.2,90.5z M381,89.4l-1.1-1.9l-1.9-0.6l3.5-1.6L381,89.4z M669.3,76.6l-2.1,0.1l1.1-5.4l2.6,2.5L669.3,76.6z M459.3,74.1
	l-1.8,1.3l-5.9-0.3l2.7-1.2L459.3,74.1z M543.8,67.2l0.6,1.8l-0.8,0.1l-2.8-1.9H543.8z M454.6,70l1.8-0.7l1.3-0.1l-1.1,1.1L454.6,70
	z M740.6,60.1l-4.3,0.2l2.2-1.3l2.9-0.5L740.6,60.1z M417.4,67.5h-0.9l-0.8-1l2.5-0.6L417.4,67.5z M457.6,65l-3,0.7l-3.5,0.5
	l6.7-2.6L457.6,65z M421.4,65.3l-2.3,0.3l-1-0.8l2.5-1.1L421.4,65.3z M517,50.3l-1,1.3l-5.7-0.7l2.6-0.6H517z M512.1,48.8l-2.9,1.4
	l-1.1-0.2l2.6-1.6L512.1,48.8z M348.2,38.3l7.1,1.1l-4.8,0.9l-2.9-1L348.2,38.3z M213.8,38.8l1.1,0.9l-4.7-0.8l2.3-1.4L213.8,38.8z
	 M254.4,38.3l-2.9-0.2l6.8-2.5l2.2,1.5L254.4,38.3z M207.4,38.1l-2.8-1.1l2-1h1.7L207.4,38.1z M245.2,33.3l-0.7,3.5l-6.6-0.2l1.4-3
	L245.2,33.3z M224.9,33.3l2.9,1.4l-2,1.4l-7-1.1L224.9,33.3z M235.5,33.7l1.1,0.7l-2.2,0.8l-0.6-2.4L235.5,33.7z M232.9,32.5
	l-2.3,0.8l1.2-1.6h2.3L232.9,32.5z M229.8,30.7l-0.1,2.1l-2.4-0.6l0.5-1.8L229.8,30.7z M255.1,27l-3,0.9L249,27l4.8-1.2L255.1,27z
	 M235.7,27l3.3,0.6l-5.9,1.3l-4.8-1.3L235.7,27z M368.3,21.1l1.1,1.2l-6.4,0.9l0.5-1.9L368.3,21.1z M252.7,25.2l-3.7-0.8l1-1.1
	l3.2,0.8L252.7,25.2z M267.4,24.4l-6.6-0.2l2.9-1.1l5.7-0.5L267.4,24.4z M239.8,23.5h2.9l8.5,2.1l-5.8,0.5L239.8,23.5z M211,25.4
	l-2.2,0.5l0.8-1.9l2.4,0.7L211,25.4z M428.3,17.5l-7.2-0.1l0.4-1.5h7.4L428.3,17.5z M248,23.1l-3.8-0.3l4.8-1.2l1.1,0.4L248,23.1z
	 M243,20l5.6,1.3L238,22.8l-2-1.8l5.8,0.8L243,20z M257.2,21.9l-5.1-1.4l2.9-1.1l1.5,0.4L257.2,21.9z M248.3,17.9l4.2,1.5l-4.2,0.5
	l-5.6-0.7L248.3,17.9z M254.7,14.9l-5.4,0.9l-0.2-1.7l6.6-0.8L254.7,14.9z M382.9,80.4l0.5-0.5l3.7,0.3L382.9,80.4L382.9,80.4z
	 M272.8,15.5l1.5-0.9l5.5,0.1l-1.1,1.5L272.8,15.5L272.8,15.5z M252.3,31.5l4.4,1.4l-6.3,1.2l1.8,1.2l-5.3,0.6l-2.7-4.3L252.3,31.5z
	 M427.5,33l0.8-1.2l2.9-1.6l10.5,1.3l-5.8,3.4l-2.9-1.6L427.5,33z M382.9,80.4l-1.1,0.9l0.1-0.8L382.9,80.4L382.9,80.4z M272.8,15.5
	l-1.5,0.9l0.2-1.1L272.8,15.5L272.8,15.5z M203.4,310.2l-3.3,4.5l-0.5,3.5l1.4,0.9l-2.8,5.6l3.2,0.8l0.4,3.1l5,0.2l2.6,2.4l2.7,4.2
	l-2.9,0.8l4.2,2.2l-5.4,4.2l-3,0.3l-2.1,5l-2.5,3.5l2.9,1.5l2,2.9l-0.6,4.8l6.3,7.5l-3.7,4.2l-3.2-0.5l-2.9-3.4l-1.7-0.2l-4.4-2
	l0.3-1.8l-4.5-1.6l-4.9,1.6l-0.8-1.2l-7.5-2.9l-4.7,0.1l-4.8-1.8l-3.5,1.1l0,0l-5.6-4.8l-4.4-1.6l-1.7-1.8l-7-3.2l1.3-1.6l1.5,1.3
	l3.3-0.6l-0.8-2.3l1.9-2.6l3.1-0.7l-3.2-1.5l-1.4-2.1l8.1-2.6V334l-5.6,1.2l0.6-3.4l2.5-1.8l5-0.1l1.1-3.1l-1.8-5.1l2.4-1.6
	l-5.3-4.1l-5.5-1.3l-0.9,1.2l-3.1-3.6l-4.5,1.7l-2.7-1.5l-2.2,0.7l-3.4-5.8l-4.9-0.3l-0.7-5.1l-1.7-2.8l-4.7,0.9l-3.1-0.4l-2.3,2.1
	l-1.8-1.9l-1.1-6.4l3.6,0.7l3.3-2.7l-1.5-2l-3.8-0.4l0.3-2l-2.6-1.2l-1-2.9l-2.1-1.2l1.1-1.8l-0.8-4.3l-5.5-1.5l-2.2,1.1l-0.5-2
	l-5.9-0.5l-1-3.7l-2.8-2.3l1.1-3.5l-2.7-1.8l0.9-2.2l3.3-1.6l-3.5-1.7l1.4-1.9l-0.5-4.3l1.7-6.3l4.8-0.4l1-1.5l5.5,0.8l-1.9-2.2
	l-6.7-1.2l0.3-3.3l-4.7,1.7l7.3-6l7.4-8l3.2-2.7l1.7-3.5l-2-2.4l-6.8-4.5l2.9-4.2l-2.9-1.4v-3.4l-2.6-1.8l1.2-1.9l-0.8-3.7l2.1-0.3
	l-1.2-4l-4.5-6.4v-1.5l4.6-6.5l-3.9-3.5l-3.4-1.1l-1.2-3.1l1.7-2.8l-1.9-0.5l7.6-4.7l2-2.5l3,0.7l-0.2-2.6l5.3,0.9l1.2-2.7l5.8,2.8
	l-5.1,0.2l2,1.3l18.5,2.5l9.4,4.1l4.2,3.2l8.5,2.9l5.5,2.7l2.1,6.2l-4.8,5.7l-5.8,2.7l-7.5,0.7l-5.7-1.6l-8.1-0.9l-3.1-1.7l-7.2-0.8
	l-6.6-3.4l3.8,5.3l8.5,3.5l2.3,3.5l-2.3,3.1l2.9,4.5l-0.8,2.6l3.5,2.2l2.1-0.5l2.7,2.7l5.4,1.5l3.7-1.3l-0.1-3.1l-4.8-0.6l-3.8-4.4
	l2.9-2.3l5.7,2.5l8.2,2.5l1.5-1.2l0.8,0.2l-0.8-0.4l2.1-0.1l1.2,1.1H161l0.9,0.2l-0.9-3.2l-3.7-4.1l0.5-1.9l5.1-3.6l2.9-0.8l4.5-4.3
	l2,1.2l3.7-0.6l5.1,4.8l-0.4-3.8l1.8-3.4l-1.2-3.7l-2.6-0.7l2-10.2l-5.1-3.2l10.6,0.3l3.5,0.9l4.4,5.4l-7.3,1.3l-2,3.8l3.5,1.4
	l1.4,2.4l3.9,0.6l6.1-1.9l0.3-5.2l5.1-1.7l12.6-7.6l5.6-1l-0.4,1.9l3.2-1l-2.4-1.2l6-3.2l3.2,0.7l-1.5,1.8l1.5,2.9l4.8,1.3l0.3-2
	l5.4-2.6l7.4,0.6l3.4-2.9l4.8-1.6l2.9,2.1l-1.6,3.5l3.1,0.6l0.5-3.1l3.7-0.7l2.3-2l-4.4-6.1l1.8-1.4l-4.9,0.2l-0.8-1.7l-4.7-1.6
	l-0.4-2.5l2.6-1.5l1.8,1.1l6.2,4.1l0.1,1.9l1.5-1.3l10,0.7l8.1,1.6l8.7,4.1l7.7,2.6l6.2,4l3.5-3l0.8-2.9l-3.3-0.1l-2.6-4.9l-5.1-1.8
	l-1.7,0.9l0.3-3.8l2.2-7.1l-3.5-0.4l1.1-5.3l5.4-2.5l2.8-3.2l2.4-9l3.2-1.9l10.6-0.7l6.9,1.9l0.3,4.5l-3.2,6.7l-2,0.9l4.6,4.1
	l0.8,6.7l-1.7,1.6l1.5,4.1l-1,1.9l0.7,6.6l5.9,4l-2.9,2.8l0.5,4.5l-2.9,1.1l-1.9,4.2l-3.8,2.8l0.4,2L323,178l-4.7-2.5l-4.7,0.2
	l0.9,1.7l6.8,2.3l4.2-0.4l4.6,1l2.6-3.5l5.3-2.1l2-4.4l4.3-3.7L344,162l-2-1.8l0.5-3l3.9-1.8l6.3-1.4l5.2,4.2l-0.8,7.2l5,1.9l5-0.8
	l-8-1.1l0.2-3.5l3.3-1.4l-2.8-5.7l-5.1-2.1l-6.7-1l-2.1,1.5l-7.3-0.5l0.8-2.2l-2.2-3.1l1.1-4.2l2.9-3.5l-4.3-7.1l-2.9-1.8l2.5-3.8
	l7.5-3.1l0.3-5.7l1.5-1.7l2.3,5.7l-2.2,3l1.4,4.2l-1.6,1.4l4.3,1.6l9.5,0.6l3.7,2.3l-1.1-3.6l-3.3-0.2l-7.3-2.5l-1.9-3.4l5.1-1.5
	l3.5,2l2.8-0.6l-1.1-2.4l-2.5,0.6l3.4-3.3l6.8-0.3l12.8,6.6l6-1.2l2.5,1l-1.4,2.8l-4,1.3l0.8,5l3.8-1.1l-0.5,4.5l1-0.2l-0.3-2
	l0.5-1.5l0.3,1.5l-0.4,2l2.9-0.4l-3.6-7.5l2.5-3.7l-1.5-2.3l-6.4-2.3l-0.1-2l-5.2-0.5l-2.8-1.9l0.6-3.8l-3.2-3.9l2.9-2.9l6-1.1
	l8.2-0.3l17.6-3.2l2.2,3l0.3-2.7l-5.5-5.7l1.2-1.6l-4.1-0.6l2.6-1.9l4,1.9l0.7-2.7l10.6-6.8l4.4-1.5l19.2-3.7l-2.9-2.4l8.4-0.2
	l-0.6-1.9l7.5,0.8l3.2,2.9l7.3-1.6l4.6-2.6l5.7,1.6l-4.9-5.1l3.4,0.5l7.2-1.1l2-2.6l-1.7-2.3l6.5-5.2l5.7-3.2l8-0.7l6.1,1.4l0.2,5.3
	l7.3,0.8l1.2,1.1l-5.3,4.8l7.5-0.6l0.5-2.3l12.9-0.7l6.5,0.6l6.1,3.3l1.1,2.5l3.2-0.2l2.4,3.2l-1,2.9l-6.2-2.6l1.4,2.8l4.6,0.6
	l-0.1,2.6l-3.8,3.4l-3.9,1.3l-11.5,6.3l-0.3,1.4l-4.8,2.1l-4.8,4.2l-4.9,0.4l-2.6,3.3l-2.2-0.1l-3.8,5.9l3.9-2.3l0.6-2.2h7.3l16.8-6
	l-7.3-0.7l2.5-2.6l12.8,2.8l3.8-2.1l2.2,3.9l10.3-2.5l16.3,0.8l0.2,3.9l7.2,1.7l17,0.8l3.1-3.5l-1.7-1.8l1.7-3.5l4-1l11.1,3.7
	l3.5-1.5l5.4,0.3l-0.5,1.6l8.1,3l-6.2,1.4L628,107l1.7,0.5l-0.7-0.3l2.7-0.4l1.4,0.3l-1.1,1l2.3,0.6l2.3,2.3l-3.1,1.9l-5.9-3.4
	l10.6,12.6l6.1,3.5l3.5-1.3l5-10.2l6.1,4.2l4.5,0.5l7.9-2.8l11.3,3.6l-0.3-3.3l3.8-0.9l2.4,2.2l4.5-0.8l-2.6-4.5l1.6-2.5l-3.7,0.3
	l1.7-3.5l8.5-1.2l-2.9-3.1l5.2,1.1l20.8,1.4l7.5,2.1l-7.6,0.1l-2.3-0.9l-2.7,2.8l3.5-1l10-0.9l-5,4.8l-4,0.3l0.8,1.8l4.3-1.7
	l5.4-5.4h6.5l6.5,1.4l2.6,2.2l-3.8,0.3l-1.9,2.1l5.1,0.2l-0.4,2.1l4.1-0.7l5.4,2l3.3,4l7.8-0.1l12.1-2.8l8.8-0.1l5.1,0.9l6.3,2.8
	l2.4,3.9l-2.1,3.7l3.4,2.1h3.2l0.4,5.1l3.4,1.5l-0.9-4.2l4.6-2.8l9.1-1.4l4.4,1.8l4.5-0.4l6.8,0.6l4.5-2.8l2.4,2l0.4,3l5.5,1.3
	l1.8,2.9l6.7-2.3l-1.8-5.7l-0.1-5L876,126h8.1l15.3,3l8.9,4.5l1.2,36l-2.6,2.2l-6.7,1.6l-5-1.3l-6.8-0.6l3.8,2.9l4.1-1.8l-0.2,3
	l3,1.8l1.5-1.3l2.1,3.4l-0.2,4.7l3.8,1.5l1.8,4.2l-3.5,3l-8.8-1.4l-10.6,4.2l-4.2,2.7h-2.6l-10.5,8.4l-6.3,3.1l-2,4.5l-2.4-0.7
	l-1.4-2.7l-2.6-1.3l-6.1,0.2l-5.6,2.2l-4.9,4.2l1.4-5.3l-6.6,3.4l-1.7,2.5l-1.8-2.5l-4.6,0.6l-2.3,4.4l0.6,3.4l-4.5,3.6l-2,4.5
	l2.9,2.5l1-1.6l3.3,1.9l-2.6,2.5l-0.1,4.8l2.4,0.1l0.9,4.3l-1.7,1.4l-2.6-1.9l-2.3,1.1l-1.8,4.1l0.6,3.9l1.6,1.7l-2.2,2.6h-5.3
	l-3.6,2.8l-1.1,4.8l1.4,3.2l-2.3-1.2l-5.1,2.8l-1.7,6.9l-8.1,8l-1.1-2.8l-0.8-6.7l-2-5.1l-3.5-17.5l0.4-4.7l1.9-6.6l3.2-2.3l1.7-3
	l-1.1-2.7l3.5-0.3l8.1-5.1l3.6-3.8l0.7-2.1l10.6-9l0.2-1.8l5-2.9l4.7-1.5l-1.5-0.6l2.8-3l0.2-7.6l2.2-1.6l3.7,0.3l-3.5-2.2l-7.1,1.5
	l0.6,1.6l-1.9,4.6l0.4,2.2l-3.4-1.2l-2.2,2.6l-9.7,6.9l1.4-3.8l-3.2,0.9l-0.4-2.5l2.6-2.7l0.2-3.2l-4.4,2.4l-0.9-1.8l-10.1,1.3
	l-4.2,2.2v2.6l-4.3,4.1l-4.6,3.2l-3.8,4.1l-0.7,2.9l4.8-0.1l1.3,2.6l-3.7-0.2l-2.4,1.4l-3.7-1.4l-2.3,2.7l-3.1-1l-5.2,1.8l-1.5-2
	l6.5-1.2l-2.9-0.5l-1.9-2.3l-4.8,1.1l-5.1-2l-4.2,2l0.7,2.3l-5.5-1.1l-1.9,1.3l-6.6-1l-13,0.3l-8.7,2.6l-3.5,4.2l-3.6,2l-2,4.3
	l-9.6,7l-3.8,5l-6,5.4l-8.1,6.1l2.9,2.4l6.1-0.4l-0.9,5.8h2.3l-0.3-2.5l4.5-2.6l-3.1,3.2l2.4,0.7l-2.2,3.1l3.1-0.5l3.4-3.1l-1.7,3.3
	h1.4l1.1-5.7l3.4,0.8l2.3-0.8l2.6,2.8l6.5,5.3l-1.6,1.2l1.9,7.5l-2.7,2.5l-2.3,7.7l1.3,3.4l-2.3,11.5l-4,3.8l-4.4,6.5l-2.1,5.2
	l-6.6,7.1l-3.6,5l-1.2,0.6l-3.8,6l-6.4,4.3l-4.1,1.4l-4.7-1.1v-2.9l-3.1,1.1l-5.3,5.9l-0.3-0.5l-0.7-1l-0.7-1.3l3.7-1.3l0.8-3
	l-0.2-4.5l-2-5.2l2.6-0.8l2-2.6l1,0.7l0.3,2.7l1.8,1.8l2.4-3.5l1.5-0.6l2.8-6.9l1.1-0.8l1.1-6.9l3.2-3.2l-2.3-4.5l-6.9,2.1l-2.9,2.9
	l-8.1,0.5l-1.9-2.5l0.7-2l-1.7-2l0.8-1.7l-2.3,0.2l-4.2-3.8l-2.3,0.6l-1.6-1.5l-3.8,0.3l-3.2-1.9l0.2-2.8l-1.3-0.7l-0.4-2.9l-2-2.2
	l-0.2-2.4l-2.6-4.1l0.5-1.3l-4.5-5.8l-3.3-1.5l-3.8-0.1l-4.3-2.3l-6.9,0.8l-7.8,1.8l-4.4,3.9l0.2,1.2l3.6,0.4l0.4,3l-3.5,3.3l-3,6.8
	l-1.8,2.7l1,1.9l-3.5,1.1l-4.7,3.3l-5.8-2l-2.6-1.2l-4.5,1l-3.4-2.3l-2.5-0.2l-5.7,3.4l-0.8,1.6l-9.1,1.9l-3.2,1.7l-8.5-1.1
	l-3.3,0.2l-3.3-2.2v-1.9L523,301l-3.1-2.2l-2.2,0.4l-5-1.1l-8.8,2.7l-7.2-2.7l-1-5.5l-4.3-0.8l-4.8-1.8l-2.7,0.1l-6.1-2.7l-0.8,2.1
	l-3.5,2.9l-1.2,3.3l2.7,3.3l-0.9,3.3l-4.2,2.5l-1.8-1l-5.9-0.7l-1.9,0.9l-4.8-0.7l-2.2-3.8l-8.5-0.5l-1.9-1.1l-4.7,2.9l-2.2,0.3
	l-7.3,4l0.4,1.3l-4.3,2.1h-3.7l-1.9,2L418,312l-1.1,0.3l-4.1-3.3l-2.2,0.9l-4.9-0.7l-1.7-3.4l-3.9-1.2l-2.5-4.2l-2.1-0.8l-5.1,2.1
	l-5.4,0.1l-0.4-1.6l-3.9-2.3l-3.6,3.8l-2.9-4.9l-9.1-12.7l-7.3-4.9l1.6-3.7l-7.4,3.6l-5.3,2.6l-2,0.7l-3.5,1.3l-1.1-1.6l1.5-2.3
	l-4.8-1.1l-0.8,1.7l-2.1-1.7l-4.8,0.5l-0.2-4.6l-2-4.2l-3.3,1.3l-6.8-2.1l-3.6,2l-0.5,1.8l-11.6,3h-2.8l-1.2,2.1l-6.6,0.6l-4.8,1.8
	l-7.9,1.2l-2.2-0.4l-0.9,2.8l1.1,2.7l4.9,1.9l-5.6,0.7l-2,2l2,2.2l-4.8,3.5l3.5,1.7l4.9,2.5l-1.4,3.4l-3.5,1.1l-3.8-1.3l-1.3,2.3
	l-4.6-0.8l-3.4-3.3l-2.9,0.3l-0.4,1.7l-2.9-1.4l-3.5,0.4l-4.4,3.9l-5.6-3.3l-0.8,1.3l-6.3-4.5l-4.5,0.4l-1-2.1l-2.9,2.1l-6.5-0.8
	l-1.1,2.3l-4.9,1.7v1.9l-3.9,2l1.3,3.9l-2.4,1.5L203.4,310.2z M231.7,23.8l4.8,1.3l2.6-0.6l9,2.6l-3.2,1.8l-2-0.8l1.4,1.1l-5.9,0.6
	l-2.2-0.9l6.6-0.8l-7.4-2.5l-4.8-0.3L231.7,23.8z M238.3,102.1l4.7-0.5l-4-1.8l4.6-0.9l-2.7-1.2l4.2-1.2l-1.3-1.3l3.1-3.8l3.8,0.7
	l-1-2.1l3.2-0.8l4-3.8l11.4-2.3l-0.2-2.1l7.1,0.6L284,80l8.4-3.3l7-4.4l8.1-0.5l2.6,1.9l0.1,2.5l-3.1,2.6l-6.3,2.9l-30.6,9.8
	l-6.2,5.4l-1.7,2.5l-3.1-0.1l-0.8,2.2l-5.1-1.3l3,3.6l-2.6,0.5l-2.5,5l-5.1,5.2l-5-0.4l3.2,0.7l-1.4,4.6l-2.2,0.1l-1.7,5l0.8,4.1
	l3.5,6.3l7.5,6.1l-7.6,0.6L240,140l-1.4,2l-3.7-2.1l-6.4-0.6l1-2.1l3.9-0.6l-4.5-1.4l-0.8-1.8l-7.5,0.3l-2.6-4.1l2.4-2.9l2.9,0.6
	l1.8-5.8l-1-2.2l3.7-0.3l-0.9-2.8l9.4-3.1l1.6,0.3l-1.1-0.6l-5.3,0.9l2.6-2.5l-4.9-1.4l6.2-2.6L238.3,102.1z M274.1,25.9l3.2-1.8
	l4.8-0.3l3.5-2.9l2.9,0.7l1.2,2.8l-5.4,2.4l-6.9,1L274.1,25.9z M716,314.4l2.2,4.8l-5.1-0.4l-1.8,4.9l-1.6-4.6l1.1-3.1l-0.6-3.8
	l1.1-2.5l-2-5.5l1.4-6.4l-0.8-5.9l1.1-4l-1.1-2.8l-2.1-1.9l-0.3-4.6l1.3-4.7l-1-2.5l2.9-0.1l2.6-2.5l-2.6-4.1l1.1-0.3l2.5,1.1
	l-0.5,2.4l2.3,4.8l0.4,3.3l-0.8,6l2.2,4.5l1.6,6.6l2.9,7.3l-5.5-0.8l-3.5,9.8v1.7L716,314.4z M703.1,91.3l7.4,3.6l1,3.2l-2.1,0.7
	l-12.8-2l-4.4,1l-0.4-1.4l4.2-1.6l2.3-3L703.1,91.3z M728,74.7l8.6-0.9l1.2,2.2l2.7-0.7l9.4,1.2l-1.3,2.6l-7.5,1.7l-5.6-0.3
	l-11.4-4.3l1.6-3.9L728,74.7z M717.8,75.8l-2.9,2.8l-7.7-0.7l-2.3-2.5l2.6-3.8h-3.6l-1.3,2.2l3.1,4.6l5.9,1.4l-7.2,1.6l-2.8-1.8
	l-9.4,2.2l-3.2-1.2l-2.4,3.2l-6.1-1.8l-5.7-5.4l2.8,0.1l-1.4-3.3l2.9-1.6l-1.5-1.8l7.7-3.2l5,3.4l6.5,2.8l0.1-4.8l1.7-1.5L705,70
	h7.5l7.8,3.4l-3.5,1L717.8,75.8z M482.5,51.1l-6.2,3l-4.2-0.8l8.3-11.5l4.8-4.9l2.6-0.9l3.4,1.8l-2.7,5.4l2.6-2.6l4.9-1.5l3.8,3.4
	l3.6,0.5l1.1,3.6l-3,2l-5.7,1.3L482.5,51.1z M439.4,36.2l7.5-3.4l-2-1.9l3.5-1.7l13.9-1.5l4.3,3.6l0.9-2.3l6.8,1.7l1.2,2.4l-2.2,5.4
	h-2.8l4.9,3.5l-2.9,1.9l-8.8,0.5l-5.3-2l-9.5-0.2l-3.6-2.3l-0.4-3L439.4,36.2z M190.4,30l1.1-1.2l6.1-0.1l2.5,2.7l-5.1-1.8l-6.8,4.1
	l-5.2-0.5l-2.3-1.6L190.4,30z M266.3,31.8l-9.7-1.3l1.3-3.4l8.3-0.9l5.4-0.6l0.2,3.4L266.3,31.8z M196,36.2l-4.4,1.1l-2.5-1.7
	l7.3-0.2l-0.6-1.2l2.6-2.1l3.9,0.5l2.6-1.6l-3.4-1.6l6.6-2.3l7.9,3l-3.9,1.9l-11.2,2.3l1.5,2.4l-7.7,1.8L196,36.2z M458.6,18.6
	l5.3,2.4l-4,0.9l0.2,5.1l-14.2,1.8l-2.1,1.4l-0.7,0.7l-13.4-3.6l2-2.2l4.4-0.7l2.7-3.8l-4.1,0.5l2.9-2.9l9.7-2.3l4.8-2L458.6,18.6z"
	/>
<path class="st1" d="M587.2,513.1L587.2,513.1L587.2,513.1L587.2,513.1L587.2,513.1z"/>
<path class="st1" d="M584.7,555.3l1.3-0.4v0.9l-0.9,0.4L584.7,555.3z M590.1,572.1h-0.9H589v-0.2l-0.7,0.2l-2-0.9l-4.4,0.4l-2.9-0.4
	l-1.6,2.7l0.5,2.4l-0.7,2.3l-2.1,1.1l0.8,1.7l-2.3,1.5l0.4,1.9l-1.7,2.5h-3.2l-1.4,1.3l-3.5-1.6l-4.5,0.6l-1.9,2.5l-3.3-0.2
	l-3.4,1.3l-3.9-2.9l-1.8-2.5l0.6-1l1.6,2l5.8,0.5l1.4-4.8l1.9-2.2l7.1-2l4.8-6.2l0.2-1.7l3.2,3l1.4-2.2l-0.6-1.6l1.2-1l0.2-0.1
	l0.1,0.5l0.5,2.4l1.4,0.2l-1.3-3l2.4-1.8l-1.4-0.5l1.1-1.7l1.4,0.3l1.3-3.1l2-2l1.4-2.9l0.3,2.3l1.7-2.3l0.8,1.9l2.5,1.3l0.2,2.5
	l1.3-0.8l0.7,2l1.5-0.6l4.7,3l-3.1,1.5l-2.9,0.4l3.4,2.2l-5.1,1.5L590.1,572.1z M494.3,563l0.2-1.4l5.1,2.3l0.2,3.3l2.3-1.5l1.4,0.8
	l1.4-2.8l5.7,4.5l1.9,3.1l0.4,2.4l-0.8,3.1l0.8,1.3l-0.2,3l1.8,1.7l3.1,6.3l-5.1-0.3l-11.4-6.7l0.4-1.2l-1.8-2.9l-1.7-1.2l-0.9-2.5
	l-0.1-2.8l-1.2-1.2l-0.2-5L494.3,563z"/>
<path class="st1" d="M192.1,374.2l-0.1,0.1l-0.3-0.2l0.3-0.1L192.1,374.2z M193.2,374.7H193v-0.1h0.1L193.2,374.7z M191.1,382.9
	l5.4,0.8l2,4.2l-3.8-0.7l-3.5-3.9l-0.1-0.1L191.1,382.9z M211.9,390.4l-3.3-2.5l1.6-1.5l0.1-2.1l-2.7-1.8l-5.1,3.4l-1.8,1.8l-0.9-3
	l-4.1-4l1.8-1.3l-3.3-2.8l1.1-1.2l-3.3-2.7l2.5-0.9l5.6,2.2l1.1-1.5l-2.9-2.3l1.3-1.6l1.7,0.2l2.9,3.4l3.2,0.5l3.7-4.2l2.6,2.7
	l3.1,5l2.5,0.1l1.7,1.3l-2.6,0.1l-2.3,2l-1.1,6.7l-1.3-1l-0.3,4.8L211.9,390.4z M194.6,377l0.2,0.1l0.2-0.3h-0.5v0.2L194.6,377
	L194.6,377z"/>
<path class="st1" d="M194.6,377v-0.2h0.5l-0.2,0.3L194.6,377z M200.6,387.7l-0.7-0.2l-1.4,0.4l-2-4.2l-5.4-0.8l-1.7-1.6l-4.3-0.8
	l0.2-3.6l-1.7-2.7l4-0.9l4.3-0.6l3.3,2.7l-1.1,1.2l3.3,2.8l-1.8,1.3l4.1,4L200.6,387.7z M192.1,374.2L192,374l-0.3,0.1l0.3,0.2
	L192.1,374.2z M193.2,374.7l-0.2-0.1h-0.1v0.1H193.2z"/>
<path class="st1" d="M514.4,540.6l0.5,1l-0.4,1.2l-0.9-1.8L514.4,540.6z M533.7,478.6l-4.4,3.3l-0.5,1.3l-2.8,0.9l0.3,1.8l-2.9,1.4
	l-2,5.7l2.7,3.8l1.8,0.9l1.2,3.5l7,6.4l1.7,0.3l3.2,4.4l1.8,3.5l1.4,4.7l-0.3,2.6l1.4,4l-1.4,0.1l0.4,5l-1.1,2.1l-4.8,2.5l-4.4,3.1
	l-2.1-0.7l-2,5.4l-5,2.4l-2.3,2.7l-1.8-0.9l0.5-5.6l1.1-0.8l-2.6-0.8l-0.8-1.4l2.1-0.7l0.8-2.1l3.8-0.7l2.3,1.3l-1.9-2.8l0.8-2.6
	l2.3,0.4l-0.2-1.6l1.6-0.1l4.3-2.1l-0.4-3.7l0.6-2.8l-1.6-3.1l1-3.3l0.6-3.2l-2.7-2.5l0.7-1.8l-4.2-3.2l-0.1-1.6l-4.4-3.7l-1.7-2.9
	l-2-1.3l0.2-1.4l-2.1-0.4l-4.8-2.7l2-2.4l1.5,0.6l2.3-2.8l-3.2-1.9l1.2-1.3l-2.9-1.5l-2,1.8l-3-1.1l-1.4-2.4l0.5-1.5l-4.8-4.5
	l1.7-2.2l2.9,1.8l1.7-2.1l1.8-0.1l1.9,1.5l4.4-2.4l0.2-1.4l2.3-1.2l2.9,2.5l3.4-0.2l1.4,1l-1.1,1.8l0.7,2.4l3.8,2.1L533.7,478.6z"/>
<path class="st1" d="M329.5,370l-0.2,0.1l-0.3-0.4h0.3L329.5,370z M329.5,377.1l0.5,0.1l-0.6,0.4l-0.6-0.6L329.5,377.1z
	 M345.8,379.1l1.1,5.3l2.9-0.6l2.3,1l0.8,5.7l1.5,1.1l-1.4,1.1l-1.3-1l-5.5,1.3l0.7-1.3l-2.6-0.1l-3.2,2.8l-5.5,2.2l-1.1-2.2
	l0.7-5.2l-1.8-0.1l0.4-2.2l-3.2-0.9l-3,3.2v2.5l-3.4-0.2l-1.4,3.1l-1.6-1.4l-5.1,2.7l-1.3-1.6l0.2-2.1l2.7-4.1l-1.7-2.2l0.1-2.9
	l-2.1,0.1l-1.9-1.4l2.1-2.6l4.1,0.3l2.5-4.4l1.4,0.2l-0.5-2.2l1.2-1.8l1.3,1.1l4.1-2.7l1.7,2.1l-2,1.6l1.2,1.4l2-0.1l-2.3,1.3
	l-3-0.9l-3.5,1.5l0.1,2.9l4.8-0.2l2.6,0.6l4.1-1.4l1.5,2.1l1.7-0.6l5.8-0.2L345.8,379.1z"/>
<path class="st1" d="M335.6,376.5l-0.5-0.2l0.5-0.3l0.2,0.1L335.6,376.5z M332.5,375.8l0.2,1l-0.8-0.5l-0.5-1.1L332.5,375.8z
	 M268.5,344.7l-1.3,2.6l4,3.3l0.6-4.1l5.4,2.9l0.8,1.3l4.8,4.4l6.3-1.2l6.5,0.3l2.9-1l3.1,2.5l1.6,2.6l1.6-0.7l-0.2,6.4h2.6l1.1,5.1
	l6.7-0.3l0.4,2.5l3.2,1.2l-0.2-2l2.3-3l4.7-2.4l2.8-2.5l2.6-1.1l1.6,0.3l-5.7,4.1l5.5,2.8l3-2.2l2.3,2.8l5.1,1.2l-2.8,1.8l-1.3-0.5
	l-3.5,3l-2.3-1l-1.5,0.6l-2,0.1l-1.2-1.4l2-1.6l-1.7-2.1l-4.1,2.7l-1.3-1.1l-1.2,1.8l0.5,2.2l-1.4-0.2l-2.5,4.4l-4.1-0.3l-2.1,2.6
	l1.9,1.4l2.1-0.1l-0.1,2.9l1.7,2.2L315,392l-0.2,2.1l-2.9,0.1l-1.3-1.1l-2.6,0.2l0.1-4.2l-3.7-1.4L303,388l-6.9-4.4l-1.2,0.1
	l-9.1-6.3l-3.3-7l-2.3-1l-1,0.9l-4.7-0.3l-1.7-0.9l-1-3.6l0.5-1.7l-2.9-0.4l-4.8-3.1l-2.6,1.1l2,2l-2.7-1.1l-1.8,2.3l-2.3-0.8
	l-0.8,2.4l-0.2,4.3l-5.5-0.2l-0.8-24.1l13.9-4.2l-1.7,4.2l0.5,3.3l2.2-2.1l-0.1-5l2,1.2L268.5,344.7z M329.5,370l-0.2-0.3H329
	l0.3,0.4L329.5,370z"/>
<path class="st1" d="M630.1,642.6l1.2-1.8l9.7-2l1.9,0.4l-4.6,3.1l-4.4,1.4l-2.9,1.7l0.4-1.6L630.1,642.6z M625.4,644.8l0.8-0.4
	l1.4-0.5l-1,1.8L625.4,644.8z"/>
<path class="st1" d="M507.3,532.2L507.3,532.2L507.3,532.2l-0.2-0.5l0.3-1.5l-1.6-1.3l-1-4.9l1-0.1l2.9-4.1l3.1-0.8l1.8,0.5l4.1-0.7
	l2.3,0.4l4,2.2l1.2-0.9l-1-1.6l2.8-1.3l2.4,1.4l3-2.2l-1,3.3l1.6,3.1l-0.6,2.8l0.4,3.7l-4.3,2.1l-1.6,0.1l0.2,1.6l-2.3-0.4l-0.8,2.6
	l1.9,2.8l-2.3-1.3l-3.8,0.7L519,540l-2.1,0.7l-1.1-0.7l-3.3,0.4l0.2-3l-3.1,0.8l0.2-2.1l-1.3-1.8L507.3,532.2L507.3,532.2
	L507.3,532.2z"/>
<path class="st1" d="M430.1,448.8l3.4-4.9l3.5-1.5l1.4,1.6l3.4,0.6l1-0.8l2,1.9l0.7,1.9l1.2-0.3l0.7,3.1l-3,0.9l-5,0.3l-1.1-0.6
	l-3,1.2l-3.8-0.6l-2-1.9L430.1,448.8z"/>
<path class="st1" d="M185.2,363.5l0.8,1.2l4.9-1.6l4.5,1.6l-0.3,1.8l4.4,2l-1.3,1.6l2.9,2.3l-1.1,1.5l-5.6-2.2l-2.5,0.9l-4.3,0.6
	l-4,0.9l-3.5-2.9l-2,1l-5-0.3l1.3-2.1l-1.6-5.2l-3.5-2.7l-2.9-0.3l-1.9-1.6l0,0l0,0l1.3-1.3l2.3,0.2l4.8,1.8l4.7-0.1l3.2,0.7
	L185.2,363.5z"/>
<path class="st1" d="M395.6,299.5l2.1,0.8l2.5,4.2l3.9,1.2l1.7,3.4l4.9,0.7l2.2-0.9l4.1,3.3l-2.3-0.1l-1.6,4.1l-4.2,1l-1.3,3.4
	l1,3.6l-0.9,2.4l-3.8,1.6l-0.6-1l-4,0.1l-4.2-1.4l-2.9,7l-1.4,4.5l1.8,0.6l-0.2,1.7L389,340l-1.1-1.2l-8.9,2.4l-0.4,1.6l2,0.8v3.6
	l2.6,6.4l-3.4,3.4l0.5,2.8l-1.7-1.5l-2.6-0.2l-1.6-2l-3.5-0.4l-14.6,0.1l-3.2,0.6l-5.4-2.5l-2.9,1.5l-1.1,3.1l0.6,1.1l-9-2.4
	l-2.4,0.3l-2,1.6l-0.2,2.1l-2.6,1.1l-2.8,2.5l-4.7,2.4l-2.3,3l0.2,2l-3.2-1.2l-0.4-2.5l-6.7,0.3l-1.1-5.1h-2.6l0.2-6.4l-1.6,0.7
	l-1.6-2.6l-3.1-2.5l-2.9,1l-6.5-0.3l-6.3,1.2l-4.8-4.4l-0.8-1.3l-5.4-2.9l-0.4-4.9l-1.3,0.1l1.6-3l2.1,0.6l3.8-2.3l0.4-1.5l-2.8-1.4
	l-4.1,0.9l4.5,1.9l-1,1.3l-6-1.5l1.2,1.6l-1.5,2.6l-0.8-2.1l-2.9,1l-0.8,2.3l-13.9,4.2l0.8,24.1l-2.9,0.3l-2.9-4.1l-3.9-2.3
	l-6.5,1.4l-2.8,2.6l-0.2-2.2l1.5-4.2l-4.2-0.6l-1.6-2.3l-2,0.3l0.2-1.8l-2.7-4.8l-3.4-1.3l0.4-1.7l5.4,0.1l-1.9-1.5l2.1-3.3l6-0.8
	l4,0.3l-2.9-1.1l1.7-3.4l0.4-4.7l-1.4-1.6l-2.6-0.2l-1.1,1.4l-5.6-2l-4.2,1.8l-3.2,2.5l-2.6-0.1l-0.5,1.6l0,0l-4.2-2.2l2.9-0.8
	l-2.7-4.2l-2.6-2.4l-5-0.2l-0.4-3.1l-3.2-0.8l2.8-5.6l-1.4-0.9l0.5-3.5l2.1-1.6l1.2-2.9l4.8,4.3l2.4-1.5l-1.3-3.9l3.9-2v-1.9
	l4.9-1.7l1.1-2.3l4.3-0.1l2.2,0.9l2.9-2.1l1,2.1l4.5-0.4l6.3,4.5l0.8-1.3l5.6,3.3l4.4-3.9l3.5-0.4l2.9,1.4l0.4-1.7l2.9-0.3l3.4,3.3
	l4.6,0.8l1.3-2.3l3.8,1.3l3.5-1.1l1.4-3.4l-4-2.4l-0.9-0.1l-2.2-0.2l-1.3-1.5l4.8-3.5l-2-2.2l2-2l5.6-0.7l-0.3-1l-4.6-0.9l0.6-2
	l-1.7-0.7l0.9-2.8l2.2,0.4l7.9-1.2l4.8-1.8l6.6-0.6l1.2-2.1h2.8l11.6-3l0.5-1.8l3.6-2l3.9,0.7l2.9,1.4l3.3-1.3l2,4.2l0.2,4.6
	l4.8-0.5l0.8-1.4l1.4,3.1l0.8-1.7l4.8,1.1l-1.5,2.3l1.1,1.6l2.7-1.6l0.8,0.3l1.8,0.8l0.2-1.5l3.1-1l2.2-1.6l1-0.7l6.4-2.9l-1.6,3.7
	l7.3,4.9l9.1,12.7l2.9,4.9l2.4-1.3l1.2-2.5l3.9,2.3l0.4,1.6l5.4-0.1l1.5-1.4L395.6,299.5z M264.6,342.5l1.8-2.3l1.7,1.7l0.3,2.8
	l-1.8-1L264.6,342.5z"/>
<path class="st1" d="M140.6,446.9l-0.8-1.1l-3.7-9.2l2.6-4l1.9-6.8l2-0.1l1.8-2l0.5,2.8l-0.7,1.2l0,0l-1.1,0.7l0.2,5.2l-0.9,1.5
	l0.2,1.2l-0.2,0.4l0.1,0.1l-0.2,0.3l0.4,0.5l-1.4,4L140.6,446.9z"/>
<path class="st1" d="M144.9,426.5l-0.5-2.8l0.5-1.4l3.5-3.5l-1.2-2.5l-2.3-0.1l-0.5-4.7l-1-0.8l0.8-2.2l1.2,0.5l1.2-2.5l1.6-0.1
	l-0.2-3.7l4.2,1.1l3.9-1.9l2.6,1.1l5.9-0.3l5.1-2.4h4.1l3.9-1.7l0.8,1.3l-2.7,3.2l-2.3,0.6l-0.8,3l0.8,2.4l-0.7,5.4l-2.6,2.7
	l-10,6.2l-10.3,6.7l-2.4-0.4l-3.4-2l0,0L144.9,426.5z"/>
<path class="st1" d="M142.8,437.6l0.5-0.6l-0.7-0.2l-0.1-0.1l0.2-0.4l0.7-0.1v-2.6l-0.2-5.2l1.1-0.7l0,0l3.4,2l2.4,0.4l10.3-6.7
	l1.7,5.2l0.5,2.2l-0.9,0.8l-10.6,3.4l5.7,5.7l-2.6,3l-3.8,0.9l-1.4,2.2l-2.4,1.9l-5.7-0.7l0.2-1.1l-0.2-0.1l0.8-5.2L142.8,437.6z"/>
<path class="st1" d="M256.5,366.3l1.5,2.4l2.7-1l-1.2-3l1.8-2.3l2.7,1.1l-2-2l2.6-1.1l4.8,3.1l2.9,0.4l-0.5,1.7l1,3.6l1.7,0.9
	l4.7,0.3l1-0.9l2.3,1l3.3,7l9.1,6.3l1.2-0.1l6.9,4.4l1.4-0.3l3.7,1.4l-0.1,4.2l-4.1-1.2l-1.4,2.1l-2.3,0.2l-1.4,1.9l-1.7,4.2
	l-5.8,2.7l-1.4,2.6l-4.1,1.9l-1.5-1.6l-4.2-1.1l-1.2-6.3l-4,0.2l-1.8-2.3l-3.5-1.7l-0.1-1.1l-3-1.1l-7.8-1.5l-0.8-1.8l-4.2,0.2
	l-0.7,1.1l-4.7,0.2l-2.9,2.1l-0.4,1.5l-4.6,1.3l-0.8-7.4l0.8-2.4l-2.3-2.6l-2.6-0.4l3.2-1l-1.7-1.4l0.8-1.1l-4.5-0.5l-0.2-2.7l1-3.2
	l1,1.2l3.3,0.8l3.2-0.7l2-2.5l-3.5-2.2l-1.1-3.9h-3.9l-1.8,2.2l0.1,2.4l-2.1-2.2l2.8-2.6l6.5-1.4l3.9,2.3l2.9,4.1l2.9-0.3l5.5,0.2
	L256.5,366.3z"/>
<path class="st1" d="M134.4,413.9v0.1l-0.5,0.1l-0.2-0.1l0.1-0.1h0.3H134.4z M126.7,413.5L126.7,413.5l0.2,0.1l0.2-0.1l0,0h0.1
	l-0.2,0.2L126.7,413.5z M127.2,413.5L127.2,413.5h0.2l3.7-0.3l1.5,1h0.2v0.2l-1.6-0.9l-3.2,0.6L127.2,413.5z"/>
<path class="st1" d="M579.1,314.7l2-0.5l-0.8-1l4.3-0.1l6.4,5.4l1.1,3l-1.1,0.8l-4.7-1l-3.1,0.4l-4.9,2.7l-3.8,0.4l-2.2,4.1
	l-2.8,1.9l-5.9,0.6l-2.5,3.1L559,336l-8.8-2l-1.4,0.8l-1.7,4.2l3.1,4.2l-5.3,2.9l-2.7,3.5l-4.9,2.2l-7,0.2l-7.5,1.4l-8.3,3.8l-1,0.9
	l-2.8-0.3v-1.3l-4.2,0.9L503,356l-5.6-0.9l-2.2-2.2l-8.8-0.7l-2.9,0.8l-12.3-1l-4.5,0.5l-2.4-3l-3.1-7l-1.8,0.3l-6-2.6l-2.3-1.7
	l-10-0.4l-4.2-0.7l-1.3-2l1.8-3.6l0.1-3.7l-3.2-5l-0.8-2.3l-4.4-2.5l-2.7,0.4l-2.6-2.3l-3.4-1.6l-0.8-4l1.9-2h3.7l4.3-2.1l-0.4-1.3
	l7.3-4l2.2-0.3l4.7-2.9l1.9,1.1l8.5,0.5l2.2,3.8l4.8,0.7l1.9-0.9l5.9,0.7l1.8,1l4.2-2.5l0.9-3.3l-2.7-3.3l1.2-3.3l3.5-2.9l0.8-2.1
	l6.1,2.7l2.7-0.1l4.8,1.8l4.3,0.8l1,5.5l7.2,2.7l8.8-2.7l5,1.1l2.2-0.4l3.1,2.2l3.9,0.4v1.9l3.3,2.2l3.3-0.2l8.5,1.1l3.2-1.7
	l9.1-1.9l0.8-1.6l5.7-3.4l2.5,0.2l3.4,2.3l4.5-1l2.6,1.2l-5.9,12.2l2,2.8l2-1.2l3.2-0.2l2.6,1.5L579.1,314.7z"/>
<path class="st1" d="M208.9,450.4l-1.3-2.6l-4.9-0.4l2.9-5.2l1.3-0.8l3.2,0.5l0.6,1l0.2-1.2h0.1l0,0l1.3,1.3l-0.6,1.1l-0.9-1
	l0.7,1.3l-2.5,1.2h2.1l2,4.7L208.9,450.4z"/>
<path class="st1" d="M210.9,441.7l-0.8,0.2l-3.2-0.5l-1.3,0.8l-2.9,5.2l-9.9-0.3l-14.4-10.7l-9.3-4.8l-6.6-0.8l-0.5-2.2l-1.7-5.2
	l10-6.2l2.6-2.7l0.7-5.4l-0.8-2.4l0.8-3l2.3-0.6l2.7-3.2l1.9-1.6l4.1,0.6l4-0.2l0.5,1.6l2.5-1l1.3,3.7l1.4,0.8l0.8,2.5l5,0.7
	l-1.7,2.1l1.2,1.7l-1.4,0.9l-2.6,4l-0.1,2.8l2.8,2l2.2,3.9l4.7,2.9l1.2-0.1l2.7,4.1l-0.7,4.6l1.9,0.1l0.1,2.9l2.9,2.9l-1.7-0.3
	L210.9,441.7L210.9,441.7z"/>
<path class="st1" d="M254.4,463.3l0.5,2.3l0.7,0.1l0.5,0.6l0.2,3.2l-1.8,1.3l-1.4-0.6l-0.1,3.6l1.4,0.8l-2.9,0.8l0.5,1.1l-1.7,4.4
	l0.1,1.7l-0.5,0.5l-13.6-1.3l-5.5-6.3l-0.2-1l1.4,1.3l4.1-0.9l5.4,0.3l2.9-0.6l1.9-1.4l1.1-2.4l2-1.3L254.4,463.3z M255.7,467.9
	l0.4-0.3h-0.7l0.1,0.6L255.7,467.9z"/>
<path class="st1" d="M491.5,486.7l0.5-2.2l1.7-0.7l0.9-2.8l2.3-1.5l0.8,2.1l2.3,0.2l0.1-3.9l-1.4-2.3l0.7-1.2l2.5,0.2l4.8,4.5
	l-0.5,1.5l1.4,2.4l3,1.1l2-1.8l2.9,1.5l-1.2,1.3l3.2,1.9l-2.3,2.8l-1.5-0.6l-2,2.4l4.8,2.7l2.1,0.4l-0.2,1.4l2,1.3l1.7,2.9l4.4,3.7
	l0.1,1.6l4.2,3.2l-0.7,1.8l2.7,2.5l-0.6,3.2l-3,2.2l-2.4-1.4l-2.8,1.3l1,1.6l-1.2,0.9l-4-2.2l1.2-0.5l0.8-3.1l-0.8-0.6l1-2.9
	l-1.4-2.1l-2-0.7l-1.6-2l0.2-4.6l-2.9-2.6l-1.6-2.5l-3.3-0.6l-3.8,3.4l-3.2-1.9l-4.9,4.3l-1.4-0.7l1.4-2.6l-0.8-2l1.4-3.5l-0.5-2.9
	l-4.2,0.3l0.4-3.5L491.5,486.7z"/>
<path class="st1" d="M363.5,402.3l1.5,3.2l-2.6,2.4l-4.1,1.5l-8.1-1.4l-2.6,2.5l1,2.2l1.7,0.3l-1.5,1.9l0.2,2.8l1.7,2.2l2-0.2
	l0.3,2.2l3.4,1l-2.8,1.6l-1.7,1.9l1.1,3.7l-1.7,1.1l-2.5,3.4l0.6,0.9l-3.1,1.6l-2.3,5.4l-2.8,1.6l-2.6,4.9l-5.5,1.7l-2.7-1.8l-3.9,5
	l-0.5,2.2l3.8,1.4l-0.4,3.2l1.1,1.6l2-0.1l0.2,1.5l2.4,4.2l0.2,1.6l-1.7,1.1l-1.3-1.1l-2.9,1.6l-2.2-0.5l-4.5,0.1v1.8l-2.9,0.8
	l-2.9,0.3l-1.5-1.4l-1.2-3.4l-2.6-0.9l0.1-2.3l-1.6-2l-4,1.6l-6.2,0.6l-5.1-0.3l-0.4,1l-5.5-0.2l-4,1.4l-0.8-0.9l1.2-6l4.8-2.5h2.1
	l0.8-2.8l-2.8-0.6l-0.5-6l-4.6-1.5l-3.5-4.9l-2.4-2.5l8.8,2.2l5.8-0.6l2.8,0.5l2.1-1.2l2.9,0.1l6.2-2l0.7-6.4l3-2.4l2.2,0.6l2.1-0.9
	l-1-1.1l3.1-1.9l3.4,1.1l2.7-2l-0.5-2.8l1.6-4l4-1.7l-1.7-4.2l2.8,0.5l2.9-0.8v-3.7l2.9-3.4l-0.3-2.1l-2.4-3l2.4-2.6l4.9-2.4
	l5.7-0.7l2.5,0.3l2.3-1.2l4.4,0.5l3.5,2.7l-0.4,2.2l1.5,1.7l2-0.6L363.5,402.3z"/>
<path class="st1" d="M365,405.5l-1.5-3.2l3.4,0.9l2.1-0.3L365,405.5z"/>
<path class="st1" d="M226.5,471.8l-0.5-4.2l1.4-3.3l1.1-0.7l1.8,1.6l-0.5,2.1l0.7,3.2l-1.9,1.9l-1.3,0.4L226.5,471.8z"/>
<path class="st1" d="M191.1,382.9l0.1,0.3l0.1,0.1l-1.3-0.7l-0.8,2.1l-1.8,0.3l1.3,3.4l-0.1,5.5l2,1.5l1.1,3.6l-2.5,1l-0.5-1.6
	l-4,0.2l-4.1-0.6l-1.9,1.6l-0.8-1.3L174,400h-4.1l-5.1,2.4l-5.9,0.3l-2.6-1.1l-3.9,1.9l-4.2-1.1l0.2,3.7l-1.6,0.1l-1.2,2.5l-1.2-0.5
	l-0.8-2.5l2.1-1.8l-1-2l-3.5,2.5l-3.1-1.6l-1.2,0.3l-4.5,4.1l-4.7,0.9l-2.4-0.8l-1.9-2.3l-3.7-1.5l-3.5-0.4l-1.4,4.1l-3.9,0.9
	l-2.9-1.3l-1.2-2.4l-3.5-0.6l0.2-1.2l-5.6,0.8l1.8-2.1l-2.2-0.4V397l-5.4-1.6l3.7-1.1l-1.2-1.8l1.7-1.4L94,389l1.4-2l-4.4,0.9
	l0.5-3.4l2.8-2.6l13-0.7l-0.9-1.3l2-0.8l-1.8-1.3l1-1.8h5.6l5.2,0.6l0.8-1.5l4.5-2.7l5.7-2.2l7.3,0.3l1.4-1.1l3.2,2.9l2.3-0.7l2.8,3
	l0.9-0.8l5.2,2l4.1,0.6l5.8-1.4l3.8,1l6.7-3.2l0.6-0.8l5,0.3l2-1l3.5,2.9l1.7,2.7l-0.2,3.6l4.3,0.8L191.1,382.9z M92.9,372l3.8-1.2
	l1.5,1.2l2.5-0.6l0.4,2.2l5.7,2.4l-0.7,1.5l-4-0.4l-3.8,0.8l-1.8,2.3l-2.6,1.3l-2.8,2.5l0.2-1.6l3.2-1.9l-4,0.1l1.4-2.3l-0.2-1.9
	l1.6-0.9l-1.7-2.1L92.9,372z"/>
<path class="st1" d="M569,571.4l2.9-0.6l2.3-1.2l-1.2,1l0.6,1.6l-1.4,2.2L569,571.4z M575.2,569.5l1.3,3l-1.4-0.2l-0.5-2.4l0.5-0.1
	L575.2,569.5z"/>
<path class="st1" d="M353,392.8l-2.7,0.7l0.9,0.7l-2.3,1.2l-2.5-0.3l-5.7,0.7l-4.9,2.4l-2.4,2.6l2.4,3l0.3,2.1l-2.9,3.4v3.7
	l-2.9,0.8l-2.8-0.5l1.7,4.2l-4,1.7l-1.6,4l0.5,2.8l-2.7,2l-3.4-1.1l-3,2.1l1,1.1l-2.1,0.9l-2.2-0.6l-3,2.4l-0.7,6.4l-6.2,2l-2.9-0.1
	l-2.1,1.2l-2.8-0.5l-5.8,0.6l-8.8-2.2l4.8-6l-0.8-3.2l-4.5-0.6l-0.2-4.5l-1.6-5.3l1.6-2.4l-2-0.5l-0.2-2.8l2.1-1.4l-1.1-1.2l1.9-1.9
	l0.9-4.9l4.2,1.1l1.5,1.6l4.1-1.9l1.4-2.6l5.8-2.7l1.7-4.2l1.4-1.9l2.3-0.2l1.4-2.1l4.1,1.2l2.6-0.2l1.3,1.1l2.9-0.1l1.3,1.6
	l5.1-2.7l1.6,1.4l1.4-3.1l3.4,0.2v-2.5l3-3.2l3.2,0.9l-0.4,2.2l1.8,0.1l-0.7,5.2l1.1,2.2l5.5-2.2l3.2-2.8l2.6,0.1l-0.7,1.3l5.5-1.3
	L353,392.8z"/>
<path class="st1" d="M637.7,375l-4.8,0.2l-2.6,3l-2.7,0.2l-3-1.3l0.2,1.7l-5.1-2l3.8-7.6l-0.9-1.3l-5.2-2.3l0.2-1.2l2.7-2.5l5.9-3
	l3.1-4.9l1.6-1l1.9,1.9l4.8,0.6l0.8-1.4l-1.6-2.6l4.7-0.3l2.3-2.8l2-0.1l0.7-3.4l1.4-0.1l2.3,2.8l0.7,1l0.3,0.5l-1.6-0.2l-3.9,5.2
	l0.9,1.1l-0.4,3.5l-2.6,1l-2.9,3.2l-6,3.1l-0.2,3.7l1.7,0.3l3.3,3L637.7,375z"/>
<path class="st1" d="M140.7,425.8l2.3-5.1l2-4.5l2.3,0.1l1.2,2.5l-3.5,3.5l-0.5,1.4l-1.8,2L140.7,425.8z"/>
<path class="st1" d="M126.8,413.5L126.8,413.5h0.2l-0.2,0.1V413.5z M133.8,413.9l-0.8,0.3h-0.5l-1.5-1l-3.7,0.3l1.1-1.4l2.7,0.4
	l6.1-2.2l-3.4,2.3l0.5,1.3H134L133.8,413.9L133.8,413.9z"/>
<path class="st1" d="M134.4,414l-0.7,0.6V414l0.2,0.1L134.4,414z M126.7,413.5l0.2,0.2l0.2-0.2h0.2l0.8,0.6l3.2-0.6l1.6,0.9
	l-2.4,1.9l-4.5-0.2l-0.8-2L126.7,413.5z"/>
<path class="st1" d="M605.9,455.4l2.2,1.4l-1,1.2l-1.9,9.6l-2.3,3.6l-0.5,3.5l-2.9-3.3l-1.6-3.5l0.1-2.1l3.1-6.4l1.8-2.6
	L605.9,455.4z"/>
<path class="st1" d="M425.9,445.7l-0.7,4.5l1.1,2l-0.5,1.7l-4,0.7l-1.6-1.2l-1.7,1l-2.3-1.1l-2.5,0.3l-1.3-1.6l-1.7,0.8l-3.5-1.5
	l-0.5-1.8l-9.8-0.6l-3.8-2.3l-4.1-1.1l-0.9-1.4l-6-2.5l2.2-5.8l2.6-2.4l0.6,1.1l1.5-2.2l3.8,0.1l0.3,1.5l3.8,2.3l1.7,0.2l2,2.5
	l3.1-0.5l0.8,2l2.4,1.7h2.6l-0.4,1.6l3.2-0.3l1.7,2.6l2.9-1.3l3.3,1.5L425.9,445.7z"/>
<path class="st1" d="M386.5,549.5l3.4,2.3l3.5,4.7l0.5,1.9l2,2.8l0.5,3.1l-1,3l-1.7,1.3l-4.1,1.8l-2.2-0.6l-1.9-4l-0.9-6.5l2.1-8.6
	l-1.6-0.9L386.5,549.5z"/>
<path class="st1" d="M330.8,361.6l0.2-2.1l2-1.6l2.4-0.3l9,2.4l-0.6-1.1l1.1-3.1l2.9-1.5l5.4,2.5l3.2-0.6l14.6-0.1l3.5,0.4l1.6,2
	l2.6,0.2l1.7,1.5l-0.2,1.1l-4.7,1.7l-4.9,2.8l-1.5,2.2l-6.9,0.8l-0.7,2.1l-5,2.4l-0.6-2.1l-2.1,1.1L352,372l-2.4,2.7l-2,0.3l-0.3,3
	l-1.6,1l-2.6,0.6l-5.8,0.2l-1.7,0.6l-1.5-2.1l-4.1,1.4l-2.6-0.6l-4.8,0.2l-0.1-2.9l3.5-1.5l3,0.9l2.3-1.3l1.5-0.6l2.3,1l3.5-3
	l1.3,0.5l2.8-1.8l-5.1-1.2l-2.3-2.8l-3,2.2l-5.5-2.8l5.7-4.1L330.8,361.6z M329.5,377.1l-0.8-0.1l0.6,0.6l0.6-0.4L329.5,377.1z
	 M335.6,376.5l0.2-0.4l-0.2-0.1l-0.5,0.3L335.6,376.5z M332.5,375.8l-1.1-0.6l0.5,1.1l0.8,0.5L332.5,375.8z"/>
<text transform="matrix(1 0 0 1 228.984 425.2618)" class="st2 st3">Iran</text>
<text transform="matrix(0.4631 0.8863 -0.8863 0.4631 623.1538 507.3778)" class="st2 st4">Philippines</text>
<text transform="matrix(1 0 0 1 167.8741 493.0271)" class="st2 st5">Saudi Arabia</text>
<text transform="matrix(0.6826 -0.7308 0.7308 0.6826 689.7776 394.4728)" class="st2 st6">Japan</text>
<text transform="matrix(1 0 0 1 486.4546 515.1118)" class="st2 st4">Thailand</text>
<text transform="matrix(0.5632 -0.8263 0.8263 0.5632 254.4475 504.2452)" class="st2 st6">Oman</text>
<text transform="matrix(1 0 0 1 192.1151 527.488)" class="st2 st7">Yemen</text>
<text transform="matrix(1 0 0 1 359.3107 496.2961)" class="st2 st8">India</text>
<text transform="matrix(1 0 0 1 634.2466 387.6813)" class="st2 st9">S.Korea</text>
<text transform="matrix(1 0 0 1 427.8161 468.2253)" class="st2 st10">Bangladesh</text>
<text transform="matrix(1 0 0 1 475.5504 414.3949)" class="st2 st11">China</text>
<text transform="matrix(1 0 0 1 220.8664 461.2828)" class="st2 st10">Bahrain</text>
<text transform="matrix(1 0 0 1 456.9196 486.235)" class="st2 st4">Myanmar</text>
<text transform="matrix(1 0 0 1 531.9956 627.8021)" class="st2 st12">Indonesia</text>
<text transform="matrix(0.9006 0.4347 -0.4347 0.9006 501.9619 586.751)" class="st2 st13">Singapore</text>
<text transform="matrix(1 0 0 1 458.6466 207.4542)" class="st2 st14">Russia</text>
<text transform="matrix(1 0 0 1 515.1306 580.7639)" class="st2 st7">Malaysia</text>
<text transform="matrix(1 0 0 1 198.1523 379.4311)" class="st2 st10">Azerbaijan</text>
<text transform="matrix(0.7305 0.6829 -0.6829 0.7305 186.7582 375.9602)" class="st2 st13">Armenia</text>
<text transform="matrix(0.6094 0.7928 -0.7928 0.6094 523.9202 494.0841)" class="st2 st15">Vietnam</text>
<text transform="matrix(1 0 0 1 317.1783 385.4181)" class="st2 st16">Tajikistan</text>
<text transform="matrix(0.8252 0.5649 -0.5649 0.8252 269.9161 357.8401)" class="st2 st17">Uzbekistan</text>
<text transform="matrix(1 0 0 1 636.0581 646.6666)" class="st2 st10">East Timor</text>
<text transform="matrix(1 0 0 1 507.3951 528.796)" class="st2 st18">Cambodia</text>
<text transform="matrix(1 0 0 1 431.4228 450.4457)" class="st2 st10">Bhutan</text>
<text transform="matrix(0.9549 0.2971 -0.2971 0.9549 175.2499 366.401)" class="st2 st19">Georgia</text>
<text transform="matrix(1 0 0 1 288.3914 323.7908)" class="st2 st3">Kazakhstan</text>
<text transform="matrix(0.2297 -0.9733 0.9733 0.2297 140.4999 440.497)" class="st2 st20">Israel</text>
<text transform="matrix(1 0 0 1 148.4229 414.5967)" class="st2 st21">Syria</text>
<text transform="matrix(0.1358 -0.9907 0.9907 0.1358 146.7873 445.8883)" class="st2 st22">Jordan</text>
<text transform="matrix(1 0 0 1 241.926 386.8826)" class="st2 st4">Turkmenistan</text>
<text transform="matrix(1 0 0 1 479.4706 323.7906)" class="st2 st3">Mongolia</text>
<text transform="matrix(1 0 0 1 191.587 444.4295)" class="st2 st16">Kuwait</text>
<text transform="matrix(1 0 0 1 175.2494 427.4607)" class="st2 st7">Iraq</text>
<text transform="matrix(1 0 0 1 235.1009 479.3936)" class="st2 st18">U.A.E.</text>
<text transform="matrix(1 0 0 1 497.3214 490.4046)" class="st2 st9">Laos</text>
<text transform="matrix(0.7686 -0.6397 0.6397 0.7686 312.175 455.6482)" class="st2 st7">Pakistan</text>
<text transform="matrix(1 0 0 1 362.1971 396.6865)" class="st2 st10">Siachen</text>
<text transform="matrix(1 0 0 1 362.1971 401.4865)" class="st2 st10">Glacier</text>
<text transform="matrix(1 0 0 1 230.6007 468.2249)" class="st2 st18">Qatar</text>
<text transform="matrix(1 0 0 1 119.2315 394.4729)" class="st2 st3">Turkey</text>
<text transform="matrix(1 0 0 1 562.4335 569.2435)" class="st2 st10">Brunei</text>
<text transform="matrix(0.7519 -0.6593 0.6593 0.7519 288.3909 434.1161)" class="st2 st21">Afghanistan</text>
<text transform="matrix(1 0 0 1 628.964 366.4012)" class="st2 st9">N.Korea</text>
<text transform="matrix(0.361 -0.9326 0.9326 0.361 138.0526 427.4618)" class="st2 st20">Lebanon</text>
<text transform="matrix(1 0 0 1 114.47 411.3835)" class="st2 st10">N. Cyprus</text>
<text transform="matrix(1 0 0 1 118.1602 419.6496)" class="st2 st10">Cyprus</text>
<text transform="matrix(1 0 0 1 608.0613 470.7404)" class="st2 st16">Taiwan</text>
<text transform="matrix(0.919 0.3942 -0.3942 0.919 391.8741 442.9208)" class="st2 st9">Nepal</text>
<text transform="matrix(1 0 0 1 378.0614 577.2611)" class="st2 st9">Sri Lanka</text>
<text transform="matrix(1 0 0 1 335.1158 366.4013)" class="st2 st9">Kyrgyzstan</text>
<path class="st0" d="M990,328.5h10v10h-10V328.5z"/>
<path class="st0" d="M5,5"/>
<text transform="matrix(1 0 0 1 880 646.6667)" class="st2 st12">paintmaps.com</text>
<path class="st23" d="M0,0"/>
</svg>
