<?xml version="1.0" encoding="UTF-8"?>
<svg width="295px" height="160px" viewBox="0 0 295 160" version="1.1" xmlns="http://www.w3.org/2000/svg" xmlns:xlink="http://www.w3.org/1999/xlink">
    <title>world-7</title>
    <g id="Page-1" stroke="none" stroke-width="1" fill="none" fill-rule="evenodd" stroke-linejoin="round">
        <g id="world7Final" transform="translate(1, -70.208)" fill-rule="nonzero" stroke="#FFFFFF" stroke-width="0.43815825">
            <g id="world-7" transform="translate(0, 71.208)">
                <polygon id="Path" fill="#DACDEB" points="115.96212 115.8579 115.44102 116.0316 114.8157 115.57998 114.53778 113.9472 114.91992 112.80078 115.44102 112.5576 116.06634 113.2524 116.24004 114.53778"></polygon>
                <polygon id="Path" fill="#DACDEB" points="76.74066 57.11256 77.53968 58.05054 77.57442 58.46742 79.902 59.2317 81.15264 58.8843 82.40328 59.89176 83.41074 59.85702 86.08572 60.55182 86.22468 61.21188 85.77306 62.32356 86.39838 63.53946 86.29416 64.269 84.62664 64.40796 83.86236 65.03328 84.00132 65.97126 82.64646 66.14496 81.60426 66.8745 80.00622 66.97872 78.61662 67.81248 78.96402 69.16734 79.93674 69.68844 81.70848 69.54948 81.50004 70.3485 79.62408 70.73064 77.43546 71.98128 76.35852 71.52966 76.6017 70.5222 74.55204 69.86214 74.79522 69.44526 76.39326 68.71572 75.80268 68.22936 72.98874 67.67352 72.71082 66.83976 71.14752 67.11768 70.6959 68.33358 69.54948 69.93162 68.71572 69.54948 67.9167 69.93162 67.08294 69.51474 67.49982 69.27156 67.70826 68.54202 68.0904 67.81248 67.88196 67.43034 68.22936 67.25664 68.4378 67.5693 69.48 67.63878 69.93162 67.46508 69.58422 67.25664 69.6537 66.90924 68.9589 66.3534 68.57676 65.45016 67.88196 65.10276 67.9167 64.37322 67.01346 63.78264 66.31866 63.67842 64.92906 63.01836 63.81738 63.2268 63.43524 63.53946 62.7057 63.53946 62.3583 64.06056 61.10766 64.269 60.55182 64.6164 59.68332 64.06056 58.57164 64.06056 57.45996 63.81738 56.76516 64.30374 56.59146 63.71316 55.54926 63.12258 55.79244 62.25408 56.20932 61.6635 56.59146 61.80246 56.03562 60.82974 57.35574 59.02326 58.15476 58.78008 58.25898 58.1895 57.1473 56.31354 57.94632 56.20932 58.78008 55.65348 60.1002 55.584 61.80246 55.7577 63.78264 56.2788 65.1375 56.31354 65.79756 56.6262 66.38814 56.24406 66.90924 56.76516 68.40306 56.66094 69.1326 56.86938 69.02838 55.79244 69.48 55.30608 70.90434 55.20186 71.52966 55.27134 71.87706 54.78498 72.39816 54.8892 74.10042 54.68076 75.42054 55.89666 75.10788 56.34828 75.3858 57.00834"></polygon>
                <polygon id="Path" fill="#DACDEB" points="7.08696 51.4152 7.33014 52.94376 5.97528 54.85446 2.91816 56.1051 0.55584 55.79244 2.04966 53.56908 1.32012 51.4152 3.6477 49.74768 4.93308 48.77496 5.24574 49.88664 4.82886 51.03306 5.87106 50.99832"></polygon>
                <path d="M101.68398,84.4182 L100.36386,84.10554 L99.25218,83.09808 L98.8353,82.22958 L99.1827,82.19484 L99.84276,82.78542 L100.64178,82.78542 L100.71126,83.13282 L101.68398,84.4182 L101.68398,84.4182 Z M103.8726,78.5124 L104.7411,77.60916 L105.957,78.75558 L107.20764,80.35362 L108.07614,80.45784 L108.7362,81.04842 L107.27712,81.22212 L107.31186,82.95912 L107.1729,83.7234 L106.58232,84.2445 L106.86024,85.32144 L106.40862,85.4604 L105.05376,84.27924 L105.47064,83.2023 L104.81058,82.54224 L104.15052,82.71594 L102.3093,84.34872 L101.99664,82.78542 L101.12814,82.43802 L100.2249,81.84744 L100.60704,81.1179 L99.49536,80.35362 L99.73854,79.79778 L98.97426,79.41564 L98.4879,78.8598 L98.87004,78.47766 L100.32912,79.13772 L101.33658,79.24194 L101.54502,78.99876 L100.3986,77.78286 L100.81548,77.50494 L101.33658,77.57442 L102.8304,78.89454 L103.66416,79.06824 L103.8726,78.5124 L103.8726,78.5124 Z" id="Shape" fill="#DACDEB"></path>
                <polygon id="Path" fill="#C59EF8" points="169.7049 104.49792 169.39224 106.58232 171.40716 107.41608 173.42208 108.49302 176.1318 109.74366 178.80678 110.05632 180.1269 111.168 181.62072 111.37644 184.01778 111.89754 185.61582 111.8628 185.65056 110.9943 185.12946 109.56996 185.05998 108.63198 186.13692 108.14562 186.65802 109.91736 186.79698 110.33424 188.70768 111.20274 189.81936 110.85534 191.45214 110.9943 193.01544 110.92482 192.84174 109.56996 191.9385 108.84042 193.39758 108.5625 194.75244 106.89498 196.6284 105.50538 198.33066 106.02648 199.44234 105.0885 200.69298 106.4781 200.2761 107.41608 202.39524 107.76348 202.74264 108.59724 202.15206 109.01412 202.63842 110.36898 201.17934 109.98684 199.02546 111.5154 199.33812 112.80078 198.64332 114.67674 198.74754 115.75368 198.1917 117.5949 196.59366 117.0738 196.90632 119.40138 196.55892 120.16566 196.90632 121.10364 196.03782 121.62474 194.50926 118.08126 193.98816 118.08126 193.88394 119.54034 192.6333 118.35918 193.05018 117.10854 193.88394 116.96958 194.43978 115.09362 193.25862 114.71148 191.48688 114.74622 189.61092 114.43356 189.19404 112.87026 188.25606 112.76604 186.5538 111.79332 186.13692 113.32188 187.73496 114.50304 186.69276 115.3368 186.3801 116.13582 187.66548 116.7264 187.56126 118.08126 188.4645 119.74878 189.02034 121.59 188.84664 122.42376 187.52652 122.38902 185.23368 122.84064 185.54634 124.50816 184.71258 125.82828 182.10708 127.35684 180.26586 129.96234 178.94574 131.38668 177.20874 132.84576 177.31296 133.85322 176.40972 134.40906 174.7422 135.20808 173.83896 135.3123 173.42208 137.01456 174.08214 139.93272 174.32532 141.77394 173.66526 143.89308 173.90844 147.67974 172.90098 147.78396 172.10196 149.48622 172.76202 150.2505 170.99028 150.87582 170.3997 152.36964 169.63542 153.0297 167.68998 150.9453 166.61304 147.8187 165.74454 145.5606 164.98026 144.5184 163.7991 142.36452 163.1043 139.58532 162.61794 138.19572 160.56828 135.1386 159.35238 130.7961 158.44914 127.94742 158.17122 125.2377 157.58064 123.1533 154.90566 124.50816 153.51606 124.23024 150.70212 121.52052 151.53588 120.7215 150.87582 119.853 148.40928 117.9423 149.52096 116.44848 153.7245 116.44848 153.09918 114.53778 151.88328 113.4261 151.39692 111.6891 150.00732 110.71638 151.70958 108.35406 153.96768 108.52776 155.53098 106.20018 156.29526 103.94208 157.65012 101.68398 157.30272 100.08594 158.62284 98.80056 156.8511 97.72362 155.84364 96.19506 154.69722 94.24962 155.39202 93.2769 158.34492 93.83274 160.3251 93.48534 161.64522 91.60938 164.3202 94.24962 164.59812 96.0561 165.64032 97.20252 165.84876 98.34894 164.42442 98.03628 165.5361 100.50282 167.68998 101.89242 170.67762 103.45572"></polygon>
                <polygon id="Path" fill="#DACDEB" points="46.65582 62.74044 46.5516 63.01836 46.79478 63.7479 46.7253 64.65114 45.75258 64.65114 46.13472 65.1375 45.6831 66.5271 45.37044 66.90924 43.84188 66.94398 43.00812 67.46508 41.54904 67.29138 39.01302 66.7008 38.5614 65.97126 36.85914 66.3534 36.68544 66.77028 35.6085 66.45762 34.70526 66.38814 33.90624 65.97126 34.14942 65.45016 34.07994 65.06802 34.5663 64.9638 35.50428 65.55438 35.71272 64.9638 37.24128 65.06802 38.45718 64.68588 39.29094 64.75536 39.88152 65.20698 40.02048 64.82484 39.67308 63.4005 40.26366 63.12258 40.8195 62.11512 42.13962 62.84466 43.04286 61.94142 43.63344 61.76772 45.02304 62.42778 45.82206 62.32356"></polygon>
                <polygon id="Path" fill="#DACDEB" points="52.70058 75.66372 52.83954 76.0806 53.3259 75.87216 53.74278 76.46274 54.1944 76.70592 54.40284 77.50494 54.22914 78.26922 54.57654 79.2072 55.37556 79.7283 55.4103 80.31888 54.81972 80.63154 54.78498 81.36108 54.0207 82.43802 53.70804 82.29906 53.63856 81.8127 52.56162 81.04842 52.31844 80.00622 52.35318 78.47766 52.52688 77.8176 52.21422 77.4702 52.04052 76.74066"></polygon>
                <polygon id="Path" fill="#DACDEB" points="102.3093 84.34872 101.68398 84.4182 100.71126 83.13282 100.64178 82.78542 99.84276 82.78542 99.1827 82.19484 98.8353 82.22958 98.00154 81.60426 96.54246 81.04842 96.50772 79.97148 96.0561 79.2072 98.4879 78.8598 98.97426 79.41564 99.73854 79.79778 99.49536 80.35362 100.60704 81.1179 100.2249 81.84744 101.12814 82.43802 101.99664 82.78542"></polygon>
                <polygon id="Path" fill="#DACDEB" points="101.68398 84.4182 102.3093 84.34872 104.15052 82.71594 104.81058 82.54224 105.47064 83.2023 105.05376 84.27924 106.40862 85.4604 106.86024 85.32144 107.72874 86.98896 109.56996 87.44058 111.06378 88.55226 113.73876 88.9344 116.51796 88.34382 116.58744 87.82272 118.116 87.40584 119.1582 86.12046 120.40884 86.18994 121.10364 85.77306 122.4585 85.9815 124.75134 87.12792 126.24516 87.3711 128.78118 89.31654 130.17078 89.42076 130.76136 91.26198 130.55292 94.04118 130.37922 95.67396 131.24772 96.02136 130.69188 97.23726 131.62986 99.009 132.04674 100.43334 133.54056 100.81548 133.9227 102.23982 132.56784 104.25474 133.67952 105.4359 134.65224 106.79076 136.63242 107.76348 136.97982 109.70892 137.9178 110.09106 138.23046 111.09852 135.62496 112.27968 135.24282 114.85044 131.56038 114.19038 129.4065 113.66928 127.21788 113.39136 126.07146 110.6469 125.09874 110.26476 123.6744 110.6469 121.90266 111.72384 119.47086 110.9943 117.35172 109.2573 115.44102 108.63198 113.91246 106.51284 112.10598 103.55994 111.13326 103.90734 109.84788 103.1778 109.2573 104.0463 108.0414 102.86514 107.8677 101.68398 107.27712 101.68398 107.3466 100.0512 106.1307 98.38368 103.66416 97.13304 102.06612 95.0139 102.23982 93.2769 103.03884 92.51262 102.72618 91.22724 101.40606 90.53244 99.77328 87.8922 98.45316 86.12046 98.69634 85.42566 97.68888 82.88964 98.8353 82.22958 99.25218 83.09808 100.36386 84.10554"></polygon>
                <polygon id="Path" fill="#DACDEB" points="99.77328 87.8922 101.40606 90.53244 102.72618 91.22724 103.03884 92.51262 102.23982 93.2769 102.06612 95.0139 103.66416 97.13304 106.1307 98.38368 107.3466 100.0512 107.27712 101.68398 107.8677 101.68398 108.0414 102.86514 109.2573 104.0463 108.11088 103.94208 106.8255 103.73364 105.67908 105.88752 102.1356 105.71382 96.29928 101.23236 93.31164 99.66906 90.94932 99.04374 89.87238 96.33402 93.69378 94.00644 94.04118 91.33146 93.6243 89.69868 94.56228 89.14284 95.29182 87.75324 96.02136 87.40584 98.20998 87.7185 98.93952 88.27434"></polygon>
                <polygon id="Path" fill="#DACDEB" points="155.18358 87.33636 155.70468 87.96168 154.69722 88.2396 153.86346 88.62174 151.8138 88.89966 149.97258 89.35128 149.13882 90.324 149.79888 91.26198 150.28524 92.37366 149.59044 93.31164 149.86836 94.18014 149.5557 94.97916 147.74922 94.90968 148.82616 96.36876 147.74922 96.95934 147.26286 98.27946 147.645 99.63432 147.01968 100.25964 146.29014 100.0512 144.90054 100.36386 144.83106 100.95444 143.40672 100.95444 142.6077 102.23982 142.88562 104.11578 140.59278 105.05376 139.23792 104.84532 138.92526 105.33168 137.7441 105.05376 135.90288 105.40116 132.56784 104.25474 133.9227 102.23982 133.54056 100.81548 132.04674 100.43334 131.62986 99.009 130.69188 97.23726 131.24772 96.02136 130.37922 95.67396 130.55292 94.04118 130.76136 91.26198 132.81102 92.13048 134.16588 91.81782 134.30484 90.81036 135.69444 90.4977 136.59768 89.8029 136.5282 88.03116 137.98728 87.57954 138.0915 86.81526 139.09896 87.40584 139.6548 87.47532 140.697 87.47532 142.19082 87.96168 142.81614 88.20486 143.9973 87.51006 144.72684 87.92694 145.0395 86.91948 146.15118 86.95422 146.35962 86.64156 146.29014 85.73832 146.88072 84.97404 148.02714 85.4604 147.9924 86.1552 148.58298 86.25942 148.89564 88.13538 149.83362 88.86492 150.35472 88.37856 151.119 88.17012 151.9875 87.16266 153.30762 87.33636"></polygon>
                <polygon id="Path" fill="#DACDEB" points="125.02926 113.4261 125.48088 115.19784 124.50816 115.19784 124.50816 116.65692 124.8903 116.96958 124.05654 117.4212 124.12602 118.32444 123.6744 119.22768 123.6744 120.13092 123.327 120.61728 117.45594 119.5056 116.51796 117.21276 116.41374 116.7264 116.7264 116.58744 116.86536 117.21276 118.32444 116.86536 119.92248 116.93484 121.10364 117.00432 122.25006 115.47576 123.53544 114.05142 124.57764 112.66182"></polygon>
                <polygon id="Path" fill="#DACDEB" points="222.75288 138.96 220.91166 138.64734 218.44512 139.06422 217.36818 140.90544 218.09772 143.61516 216.2565 142.57296 214.58898 142.64244 214.6932 140.8707 212.99094 140.8707 213.06042 143.33724 212.29614 146.6028 211.80978 148.58298 212.05296 150.18102 213.33834 150.2505 214.27632 152.30016 214.72794 154.21086 215.9091 155.49624 217.09026 155.73942 218.1672 156.92058 217.57662 157.82382 216.29124 158.10174 216.0828 156.95532 214.41528 155.9826 214.10262 156.36474 213.3036 155.53098 212.88672 154.4193 211.77504 153.16866 210.76758 152.09172 210.5244 153.41184 210.07278 152.1612 210.21174 150.7716 210.62862 148.65246 211.3929 146.35962 212.29614 144.27522 211.35816 142.22556 211.28868 141.18336 210.94128 139.93272 209.44746 138.16098 208.82214 137.0493 209.44746 136.63242 209.93382 134.72172 208.92636 133.2279 207.50202 131.59512 206.28612 129.64968 207.0504 129.2328 207.5715 126.83574 208.92636 126.73152 209.89908 125.7588 210.94128 125.2377 211.87926 125.9325 212.19192 127.28736 213.51204 127.39158 213.37308 129.71916 213.72048 131.73408 215.5617 130.41396 216.22176 130.7961 217.33344 130.72662 217.61136 129.96234 219.10518 130.1013 220.84218 131.90778 221.2938 134.13114 223.13502 136.07658 223.27398 137.95254"></polygon>
                <polygon id="Path" fill="#DACDEB" points="28.00044 60.86448 27.51408 60.89922 27.13194 60.72552 27.2709 59.50962 27.72252 59.44014 28.06992 59.9265"></polygon>
                <polygon id="Path" fill="#DACDEB" points="60.72552 47.73276 61.07292 48.67074 59.82228 49.36554 59.64858 50.5467 57.98106 51.34572 56.34828 51.34572 55.86192 50.68566 54.99342 50.44248 54.78498 49.92138 54.85446 49.3308 54.09018 49.01814 52.31844 48.636 51.72786 46.86426 53.4996 46.23894 56.24406 46.3779 57.80736 46.16946 58.12002 46.58634 58.98852 46.7253"></polygon>
                <polygon id="Path" fill="#DACDEB" points="61.3161 43.87662 62.1846 44.32824 62.532 45.3357 63.26154 46.58634 61.6635 47.38536 60.72552 47.73276 58.98852 46.7253 58.12002 46.58634 57.80736 46.16946 56.24406 46.3779 53.4996 46.23894 51.72786 46.86426 51.55416 45.30096 52.14474 43.98084 53.56908 43.28604 55.09764 44.84934 56.38302 44.77986 56.41776 43.18182 57.73788 42.83442 58.46742 43.0776 59.99598 43.84188"></polygon>
                <polygon id="Path" fill="#DACDEB" points="177.03504 156.95532 175.36752 157.47642 174.36006 155.70468 173.8737 152.5086 174.5685 148.89564 175.99284 150.11154 176.96556 151.67484 178.0425 154.00242 177.83406 156.33"></polygon>
                <path d="M92.19996,78.19974 L94.11066,78.09552 L96.0561,79.2072 L96.50772,79.97148 L96.54246,81.04842 L98.00154,81.60426 L98.8353,82.22958 L97.68888,82.88964 L98.69634,85.42566 L98.45316,86.12046 L99.77328,87.8922 L98.93952,88.27434 L98.20998,87.7185 L96.02136,87.40584 L95.29182,87.75324 L93.24216,88.10064 L92.2347,88.0659 L90.25452,88.89966 L88.72596,88.89966 L87.68376,88.48278 L85.73832,89.1081 L85.07826,88.69122 L85.14774,89.90712 L84.73086,90.39348 L84.27924,90.87984 L83.48022,89.87238 L84.0708,89.03862 L82.95912,89.24706 L81.36108,88.72596 L80.2494,90.01134 L77.4702,90.25452 L75.83742,89.07336 L73.85724,89.00388 L73.50984,89.90712 L72.2592,90.18504 L70.38324,89.00388 L68.36832,89.03862 L67.0482,86.81526 L65.58912,85.59936 L66.28392,83.86236 L65.03328,82.78542 L66.80502,80.66628 L69.58422,80.5968 L70.14006,78.89454 L73.61406,79.2072 L75.5595,77.78286 L77.57442,77.15754 L80.52732,77.08806 L83.93184,78.65136 L86.6763,79.51986 L88.69122,79.17246 L90.28926,79.3809 L92.19996,78.19974 L92.19996,78.19974 Z M64.47744,79.79778 L64.89432,79.5546 L65.27646,78.165 L64.33848,77.57442 L66.07548,76.87962 L67.67352,77.15754 L67.98618,78.02604 L69.6537,78.72084 L69.41052,79.27668 L67.25664,79.3809 L66.56184,80.0757 L65.20698,81.25686 L64.51218,80.2494 L64.47744,79.79778 L64.47744,79.79778 Z" id="Shape" fill="#DACDEB"></path>
                <polygon id="Path" fill="#DACDEB" points="250.68384 119.95722 250.19748 121.79844 248.80788 119.88774 248.28678 118.25496 248.94684 116.06634 250.09326 114.36408 251.13546 115.02414 251.10072 116.379"></polygon>
                <polygon id="Path" fill="#DACDEB" points="227.0259 139.09896 225.18468 138.29994 224.48988 139.8285 222.75288 138.96 223.27398 137.95254 223.13502 136.07658 221.2938 134.13114 220.84218 131.90778 219.10518 130.1013 217.61136 129.96234 217.33344 130.72662 216.22176 130.7961 215.5617 130.41396 213.72048 131.73408 213.37308 129.71916 213.51204 127.39158 212.19192 127.28736 211.87926 125.9325 210.94128 125.2377 211.2192 124.43868 212.64354 122.9796 212.92146 123.5007 213.96366 123.57018 213.26886 120.99942 214.20684 120.68676 215.59644 122.4585 216.81234 124.47342 219.17466 124.47342 220.21686 126.41886 219.07044 127.00944 218.65356 127.80846 221.18958 129.16332 223.16976 131.80356 224.69832 133.749 226.40058 135.3123 227.09538 136.8756"></polygon>
                <polygon id="Path" fill="#DACDEB" points="84.34872 96.5772 83.86236 96.61194 83.7234 96.99408 83.09808 96.99408 83.5497 95.15286 84.31398 93.58956 84.31398 93.52008 85.18248 93.6243 85.59936 94.4928 84.66138 95.3613"></polygon>
                <polygon id="Path" fill="#DACDEB" points="120.7215 133.64478 119.3319 134.23536 119.01924 135.24282 119.01924 136.0071 117.14328 136.94508 114.08616 137.98728 112.45338 139.55058 111.58488 139.68954 110.9943 139.55058 109.88262 140.48856 108.66672 140.90544 107.03394 141.00966 106.54758 141.14862 106.16544 141.7392 105.64434 141.9129 105.36642 142.46874 104.3937 142.39926 103.80312 142.71192 102.41352 142.6077 101.85768 141.28758 101.85768 140.07168 101.51028 139.41162 101.05866 137.77884 100.43334 136.8756 100.81548 136.73664 100.5723 135.72918 100.78074 135.3123 100.64178 134.33958 101.47554 133.61004 101.19762 132.67206 101.64924 131.59512 102.483 132.15096 103.0041 131.94252 105.22746 131.90778 105.6096 132.11622 107.5203 132.3594 108.24984 132.25518 108.77094 132.98472 109.67418 132.60258 110.89008 130.275 112.62708 129.26754 118.15074 128.39904 119.95722 132.08148"></polygon>
                <polygon id="Path" fill="#DACDEB" points="40.85424 51.65838 41.3406 52.73532 40.92372 53.3259 41.58378 54.05544 42.10488 55.20186 42.0354 55.96614 42.86916 57.321 42.10488 57.52944 41.65326 57.28626 41.27112 57.70314 40.05522 58.12002 39.46464 58.67586 38.28348 59.12748 38.63088 59.7528 38.87406 60.69078 39.7773 61.21188 40.8195 62.11512 40.26366 63.12258 39.67308 63.4005 40.02048 64.82484 39.88152 65.20698 39.29094 64.75536 38.45718 64.68588 37.24128 65.06802 35.71272 64.9638 35.50428 65.55438 34.5663 64.9638 34.07994 65.06802 32.16924 64.40796 31.82184 64.85958 30.36276 64.85958 30.50172 63.29628 31.33548 61.8372 28.8342 61.42032 28.00044 60.86448 28.06992 59.9265 27.72252 59.44014 27.86148 57.98106 27.47934 55.72296 28.4868 55.72296 28.90368 54.92394 29.21634 52.9785 28.90368 52.24896 29.1816 51.79734 30.5712 51.69312 30.9186 52.14474 31.99554 51.10254 31.54392 50.30352 31.40496 49.12236 32.69034 49.40028 33.6978 49.08762 33.80202 49.88664 35.50428 50.373 35.53902 51.13728 37.1718 50.7204 38.07504 50.16456 40.02048 50.99832"></polygon>
                <path d="M38.14452,47.7675 L37.31076,49.46976 L35.50428,48.25386 L35.19162,47.38536 L37.55394,46.69056 L38.14452,47.7675 L38.14452,47.7675 Z M33.6978,49.08762 L32.69034,49.40028 L31.40496,49.12236 L30.67542,47.9412 L30.53646,45.82206 L30.7449,45.23148 L31.19652,44.60616 L32.58612,44.50194 L33.14196,43.91136 L34.3926,43.32078 L34.3926,44.39772 L33.97572,45.09252 L34.2189,45.64836 L35.12214,45.96102 L34.77474,46.76004 L34.28838,46.5516 L33.21144,48.04542 L33.6978,49.08762 L33.6978,49.08762 Z" id="Shape" fill="#DACDEB"></path>
                <polygon id="Path" fill="#DACDEB" points="101.85768 145.2132 101.19762 146.4291 100.746 146.01222 100.29438 146.18592 99.1827 146.15118 99.11322 145.45638 98.93952 144.83106 99.56484 143.78886 100.2249 142.81614 101.05866 143.02458 101.64924 142.46874 102.1356 143.16354 102.10086 144.06678 101.02392 144.62262"></polygon>
                <polygon id="Path" fill="#DACDEB" points="52.77006 26.68032 50.33826 27.23616 49.12236 28.59102 49.57398 29.80692 47.4201 31.37022 44.71038 33.10722 43.98084 35.92116 45.26622 37.3455 46.93374 38.49192 45.78732 40.78476 44.18928 41.27112 43.98084 44.74512 43.2513 46.7253 41.27112 46.51686 40.50684 48.18438 38.59614 48.2886 37.93608 46.30842 36.37278 43.91136 34.9137 40.9932 35.53902 39.81204 36.72018 38.42244 36.9981 36.02538 35.92116 35.01792 35.57376 32.34294 36.40752 30.46698 37.90134 30.50172 38.35296 29.73744 37.72764 29.04264 39.70782 26.29818 40.88898 24.17904 41.688 22.82418 43.0776 22.82418 43.28604 21.74724 46.06524 22.0599 46.0305 20.80926 46.93374 20.73978 49.01814 21.67776 51.51942 22.96314 52.14474 25.91604"></polygon>
                <polygon id="Path" fill="#BF96F5" points="105.67908 105.88752 107.41608 106.09596 108.00666 107.1729 109.36152 107.10342 110.2995 109.04886 111.30696 109.53522 111.72384 110.33424 113.11344 111.27222 113.35662 112.17546 113.21766 112.93974 113.53032 113.66928 114.15564 114.2946 114.4683 115.02414 114.8157 115.57998 115.44102 116.0316 115.96212 115.8579 116.41374 116.7264 116.51796 117.21276 117.45594 119.5056 123.327 120.61728 123.6744 120.13092 124.7166 121.72896 123.81336 126.17568 118.15074 128.39904 112.62708 129.26754 110.89008 130.275 109.67418 132.60258 108.77094 132.98472 108.24984 132.25518 107.5203 132.3594 105.6096 132.11622 105.22746 131.90778 103.0041 131.94252 102.483 132.15096 101.64924 131.59512 101.19762 132.67206 101.47554 133.61004 100.64178 134.33958 100.32912 133.36686 99.7038 132.7068 99.5301 131.80356 98.45316 131.00454 97.30674 129.12858 96.64668 127.3221 95.22234 125.79354 94.35384 125.4114 92.9295 123.29226 92.61684 121.7637 92.61684 120.44358 91.3662 117.9423 90.39348 117.0738 89.35128 116.62218 88.62174 115.3368 88.69122 114.85044 88.0659 113.66928 87.47532 113.18292 86.60682 111.5154 85.2867 109.74366 84.20976 108.2151 83.27178 108.2151 83.44548 106.9992 83.48022 106.20018 83.61918 105.29694 85.77306 105.67908 86.5026 104.98428 86.88474 104.18526 88.30908 103.8726 88.55226 103.10832 89.1081 102.76092 87.0237 100.50282 90.63666 99.39114 90.94932 99.04374 93.31164 99.66906 96.29928 101.23236 102.1356 105.71382"></polygon>
                <polygon id="Path" fill="#DACDEB" points="139.6548 52.21422 141.18336 52.11 144.37944 50.09508 144.10152 50.78988 147.01968 52.42266 153.3771 57.8421 153.75924 56.73042 156.6774 57.94632 158.83128 57.39048 159.9777 57.77262 161.40204 59.02326 162.79164 59.44014 163.93806 60.37812 166.02246 60.06546 167.55102 61.38558 166.89096 62.84466 165.57084 63.0531 166.43934 65.20698 165.8835 66.21444 162.13158 65.4849 162.47898 69.41052 161.78418 69.89688 158.62284 70.76538 161.67996 74.58678 160.6725 75.14262 161.26308 76.428 160.04718 76.0806 158.86602 75.28158 156.12156 75.07314 153.13392 75.00366 152.57808 75.24684 149.7294 74.30886 148.8609 74.79522 149.0346 76.0806 145.83852 75.31632 144.76158 75.62898 144.65736 76.6017 143.75412 77.01858 141.87816 78.54714 141.5655 80.14518 140.8707 80.14518 140.07168 79.10298 137.7441 79.0335 136.8756 77.22702 135.97236 77.19228 135.45126 74.96892 132.81102 73.37088 129.82338 73.54458 127.8432 73.85724 125.55036 71.87706 123.88284 71.0433 120.68676 69.48 120.30462 69.3063 116.13582 70.59168 118.2897 78.72084 117.38646 78.82506 115.71894 77.08806 114.36408 76.46274 112.41864 76.91436 111.79332 77.67864 111.58488 77.1228 111.79332 76.21956 111.27222 75.45528 109.01412 74.691 107.72874 72.71082 106.61706 72.15498 106.40862 71.42544 108.18036 71.63388 107.83296 70.03584 109.2573 69.68844 110.89008 70.0011 110.6469 67.88196 109.98684 66.5271 108.24984 66.63132 106.61706 66.11022 104.84532 67.0482 103.31676 67.53456 102.34404 67.15242 102.27456 66.04074 100.78074 64.58166 99.5301 64.65114 97.68888 63.19206 98.27946 61.52454 97.65414 61.10766 98.41842 58.7106 100.50282 59.96124 100.29438 58.39794 103.10832 56.07036 105.74856 56.00088 109.91736 57.4947 112.2102 58.3632 113.73876 57.45996 116.41374 57.42522 118.94976 58.5369 119.22768 57.87684 121.65948 57.98106 121.72896 56.9736 118.4634 55.47978 119.6793 54.43758 119.1582 53.88174 120.5478 53.3259 118.77606 51.86682 119.26242 51.13728 125.16822 50.40774 125.7588 49.88664 129.54546 49.08762 130.6224 48.21912 133.78374 48.67074 135.3123 50.85936 136.80612 50.33826 139.27266 51.0678"></polygon>
                <polygon id="Path" fill="#DACDEB" points="108.11088 103.94208 108.63198 104.9148 108.52776 105.4359 109.36152 107.10342 108.00666 107.1729 107.41608 106.09596 105.67908 105.88752 106.8255 103.73364"></polygon>
                <polygon id="Path" fill="#DACDEB" points="251.5176 76.32378 252.00396 76.70592 251.23968 76.56696 250.89228 77.33124 250.78806 78.06078 251.76078 79.65882 251.10072 80.14518 250.9965 80.52732 250.68384 81.18738 249.67638 81.56952 249.19002 82.1601 249.64164 83.09808 249.53742 83.34126 250.44066 83.7234 251.96922 84.69612 251.96922 85.21722 251.27442 85.35618 250.02378 85.49514 249.81534 86.46786 248.94684 86.39838 248.94684 86.60682 247.83516 86.18994 247.80042 86.60682 247.3488 86.78052 247.10562 86.36364 246.51504 86.1552 245.85498 85.8078 245.88972 84.83508 246.20238 84.55716 245.85498 84.17502 245.71602 82.95912 245.40336 82.61172 244.2222 82.36854 243.04104 81.77796 243.77058 80.35362 245.12544 79.17246 245.50758 77.57442 246.75822 78.26922 248.35626 78.37344 247.38354 77.19228 249.6069 76.2543 249.6069 75.00366"></polygon>
                <polygon id="Path" fill="#DACDEB" points="46.3779 67.29138 45.02304 67.88196 44.91882 68.75046 44.32824 68.99364 44.36298 69.58422 43.66818 69.54948 43.04286 69.20208 42.76494 69.54948 41.5143 69.48 41.89644 69.3063 41.41008 68.36832 41.54904 67.29138 43.00812 67.46508 43.84188 66.94398 45.37044 66.90924 45.6831 66.5271 45.96102 66.56184"></polygon>
                <polygon id="Path" fill="#B586F2" points="248.94684 86.60682 248.94684 86.39838 249.81534 86.46786 250.02378 85.49514 251.27442 85.35618 251.96922 85.21722 251.96922 84.69612 254.85264 87.30162 255.99906 88.7607 257.18022 91.33146 257.00652 92.54736 255.5127 92.96424 254.43576 93.90222 252.83772 94.07592 252.10818 92.86002 251.72604 91.1925 249.88482 88.89966 251.06598 88.51752"></polygon>
                <polygon id="Path" fill="#DACDEB" points="56.20932 61.6635 55.79244 62.25408 55.54926 63.12258 55.20186 63.33102 53.29116 62.67096 52.73532 62.80992 52.38792 63.33102 51.5889 63.60894 51.38046 63.46998 50.58144 63.78264 49.92138 63.85212 49.81716 64.30374 48.39282 64.54692 47.73276 64.33848 46.79478 63.7479 46.5516 63.01836 46.65582 62.74044 46.86426 62.25408 47.62854 62.28882 48.18438 62.08038 48.21912 61.87194 48.53178 61.76772 48.60126 61.28136 48.9834 61.17714 49.22658 60.795 49.74768 60.795 49.8519 60.93396 50.51196 60.6213 51.44994 61.38558 52.42266 60.93396 53.25642 61.1424 54.47232 60.82974"></polygon>
                <polygon id="Path" fill="#DACDEB" points="227.0259 139.09896 227.65122 140.59278 227.68596 143.26776 224.55936 145.00476 225.53208 146.32488 223.48242 146.49858 221.88438 147.40182 220.21686 147.08916 219.31362 145.908 218.09772 143.61516 217.36818 140.90544 218.44512 139.06422 220.91166 138.64734 222.75288 138.96 224.48988 139.8285 225.18468 138.29994"></polygon>
                <polygon id="Path" fill="#DACDEB" points="161.26308 76.428 161.1936 76.91436 158.79654 78.09552 158.44914 78.99876 156.22578 79.24194 156.01734 80.66628 154.00242 80.35362 152.89074 80.80524 151.4664 81.84744 151.88328 82.36854 151.50114 82.8549 148.1661 83.2023 145.69956 82.47276 143.78886 82.64646 143.58042 81.39582 145.66482 81.74322 146.15118 81.08316 147.57552 81.2916 149.41674 79.69356 146.91546 78.5124 145.80378 79.06824 144.20574 78.23448 145.24794 76.81014 144.65736 76.6017 144.76158 75.62898 145.83852 75.31632 149.0346 76.0806 148.8609 74.79522 149.7294 74.30886 152.57808 75.24684 153.13392 75.00366 156.12156 75.07314 158.86602 75.28158 160.04718 76.0806"></polygon>
                <path d="M231.33366,129.12858 L229.83984,130.20552 L228.13758,129.51072 L227.79018,127.60002 L228.55446,126.59256 L230.56938,125.96724 L231.7158,126.00198 L232.27164,126.87048 L231.57684,127.8432 L231.33366,129.12858 L231.33366,129.12858 Z M239.46282,60.89922 L242.58942,62.46252 L244.67382,64.47744 L247.31406,64.47744 L248.2173,63.64368 L250.61436,62.98362 L251.06598,64.9638 L250.96176,65.76282 L251.93448,68.12514 L252.14292,70.27902 L249.74586,69.89688 L248.7384,70.66116 L250.37118,72.53712 L251.72604,75.14262 L250.85754,75.17736 L251.5176,76.32378 L249.6069,75.00366 L249.6069,76.2543 L247.38354,77.19228 L248.35626,78.37344 L246.75822,78.26922 L245.50758,77.57442 L245.12544,79.17246 L243.77058,80.35362 L243.04104,81.77796 L240.85242,82.40328 L240.01866,83.44548 L238.35114,84.0708 L238.80276,83.0286 L238.00374,82.1601 L238.69854,80.66628 L237.13524,79.51986 L235.95408,80.28414 L234.70344,81.84744 L234.25182,83.27178 L232.51482,83.376 L232.0632,84.4182 L233.73072,85.91202 L235.39824,86.29416 L235.8846,87.26688 L237.65634,87.92694 L238.97646,86.3289 L241.02612,87.1974 L242.24202,87.26688 L243.04104,88.4133 L240.71346,89.03862 L240.36606,90.25452 L239.04594,91.3662 L238.73328,92.9295 L241.19982,94.1454 L242.79786,96.33402 L244.70856,98.38368 L246.61926,100.08594 L247.1751,101.75346 L246.20238,102.37878 L247.03614,103.55994 L248.391,104.25474 L248.66892,106.06122 L248.70366,107.83296 L247.73094,108.0414 L247.0014,110.43846 L246.20238,113.39136 L245.02122,116.0316 L242.79786,118.08126 L240.50502,119.99196 L238.38588,120.23514 L237.37842,121.20786 L236.5794,120.51306 L235.7109,121.59 L233.20962,122.73642 L231.1947,123.04908 L230.95152,125.4114 L229.87458,125.55036 L229.1103,123.91758 L229.42296,123.08382 L226.71324,122.35428 L225.87948,122.73642 L223.82982,122.14584 L222.75288,121.2426 L222.8571,119.95722 L221.01588,119.54034 L219.93894,118.70658 L218.5146,119.88774 L216.67338,120.16566 L215.14482,120.13092 L214.20684,120.68676 L213.26886,120.99942 L213.96366,123.57018 L212.92146,123.5007 L212.64354,122.9796 L212.46984,122.04162 L211.14972,122.70168 L210.24648,122.2848 L208.68318,121.45104 L208.9611,119.60982 L207.67572,119.1582 L206.84196,117.10854 L204.89652,117.49068 L204.65334,114.85044 L206.11242,112.97448 L205.79976,111.13326 L205.34814,109.431 L204.41016,108.9099 L203.47218,107.58978 L202.39524,107.76348 L200.2761,107.41608 L200.69298,106.4781 L199.44234,105.0885 L198.33066,106.02648 L196.6284,105.50538 L194.75244,106.89498 L193.39758,108.5625 L191.9385,108.84042 L190.96578,108.24984 L189.95832,108.18036 L188.4645,107.694 L187.56126,108.24984 L186.65802,109.91736 L186.13692,108.14562 L185.05998,108.63198 L182.80188,108.3888 L180.54378,107.90244 L178.80678,106.89498 L177.24348,106.4781 L176.37498,105.40116 L175.22856,105.0885 L173.0052,103.62942 L171.33768,102.93462 L170.67762,103.45572 L167.68998,101.89242 L165.5361,100.50282 L164.42442,98.03628 L165.84876,98.34894 L165.64032,97.20252 L164.59812,96.0561 L164.3202,94.24962 L161.64522,91.60938 L158.34492,90.74088 L157.33746,89.00388 L155.70468,87.96168 L155.18358,87.33636 L154.55826,86.08572 L154.38456,85.21722 L153.09918,84.69612 L152.57808,84.9393 L151.50114,82.8549 L151.88328,82.36854 L151.4664,81.84744 L152.89074,80.80524 L154.00242,80.35362 L156.01734,80.66628 L156.22578,79.24194 L158.44914,78.99876 L158.79654,78.09552 L161.1936,76.91436 L161.26308,76.428 L160.6725,75.14262 L161.67996,74.58678 L158.62284,70.76538 L161.78418,69.89688 L162.47898,69.41052 L162.13158,65.4849 L165.8835,66.21444 L166.43934,65.20698 L165.57084,63.0531 L166.89096,62.84466 L167.55102,61.38558 L168.1416,61.21188 L169.28802,62.74044 L171.2682,63.88686 L174.11688,64.68588 L176.1318,66.45762 L176.61816,68.99364 L177.66036,69.96636 L179.91846,70.3485 L182.41974,70.62642 L185.19894,72.01602 L186.3801,72.2592 L188.1171,74.27412 L189.74988,75.59424 L191.69532,75.52476 L195.62094,76.04586 L197.8443,75.7332 L199.78974,76.04586 L203.0553,77.40072 L205.20918,77.40072 L206.3556,78.06078 L207.88416,76.87962 L210.38544,76.11534 L213.02568,76.04586 L214.72794,75.28158 L215.42274,74.10042 L216.2565,73.33614 L215.59644,72.6066 L214.58898,71.77284 L214.76268,70.3485 L215.87436,70.55694 L217.92402,71.00856 L219.0357,69.8274 L221.25906,68.99364 L221.71068,67.53456 L222.57918,66.90924 L224.9415,66.63132 L226.47006,66.8745 L226.19214,66.11022 L223.69086,64.58166 L221.88438,63.88686 L221.01588,64.68588 L219.10518,64.33848 L218.30616,64.6164 L217.33344,63.7479 L217.22922,61.55928 L217.02078,59.9265 L219.59154,60.76026 L221.1201,59.4054 L220.46004,58.43268 L220.39056,56.17458 L220.84218,55.47978 L219.97368,54.29862 L218.6883,53.81226 L219.27888,52.73532 L221.05062,52.35318 L223.2045,52.2837 L226.19214,52.94376 L228.27654,53.70804 L230.95152,55.86192 L232.27164,56.7999 L233.83494,58.12002 L235.98882,60.20442 L239.46282,60.89922 L239.46282,60.89922 Z" id="Shape" fill="#C59EF8"></path>
                <polygon id="Path" fill="#DACDEB" points="34.07994 65.06802 34.14942 65.45016 33.90624 65.97126 34.70526 66.38814 35.6085 66.45762 35.50428 67.32612 34.77474 67.70826 33.45462 67.43034 33.10722 68.29884 32.27346 68.36832 31.9608 68.02092 31.02282 68.7852 30.15432 68.88942 29.39004 68.40306 28.76472 67.46508 27.93096 67.81248 27.93096 66.80502 29.1816 65.58912 29.11212 65.03328 29.91114 65.24172 30.36276 64.85958 31.82184 64.85958 32.16924 64.40796"></polygon>
                <polygon id="Path" fill="#DACDEB" points="56.1051 76.63644 55.68822 76.74066 54.68076 77.08806 54.64602 77.53968 54.40284 77.50494 54.1944 76.70592 53.74278 76.46274 53.3259 75.87216 53.60382 75.3858 54.0207 75.24684 54.1944 74.5173 54.50706 74.37834 54.78498 74.691 55.13238 74.82996 55.4103 75.17736 55.72296 75.28158 56.1051 75.69846 56.34828 75.66372 56.20932 76.21956 56.00088 76.46274"></polygon>
                <polygon id="Path" fill="#DACDEB" points="185.05998 108.63198 185.12946 109.56996 185.65056 110.9943 185.61582 111.8628 184.01778 111.89754 181.62072 111.37644 180.1269 111.168 178.80678 110.05632 176.1318 109.74366 173.42208 108.49302 171.40716 107.41608 169.39224 106.58232 169.7049 104.49792 170.67762 103.45572 171.33768 102.93462 173.0052 103.62942 175.22856 105.0885 176.37498 105.40116 177.24348 106.4781 178.80678 106.89498 180.54378 107.90244 182.80188 108.3888"></polygon>
                <polygon id="Path" fill="#DACDEB" points="58.29372 20.80926 58.43268 22.12938 60.9687 23.41476 59.96124 24.87384 62.21934 27.06246 61.62876 28.72998 63.33102 30.18906 63.01836 31.50918 65.58912 32.86404 65.27646 33.8715 64.0953 35.05266 61.3161 37.62342 58.5369 37.79712 55.89666 38.52666 53.43012 38.97828 52.31844 37.8666 50.68566 37.20654 50.7204 35.19162 49.6782 33.38514 50.23404 32.20398 51.38046 30.98808 54.43758 28.8342 55.34082 28.41732 55.02816 27.58356 52.77006 26.68032 52.14474 25.91604 51.51942 22.96314 49.01814 21.67776 46.93374 20.73978 47.69802 20.25342 49.46976 21.22614 51.31098 21.15666 52.94376 21.60828 54.12492 20.77452 54.50706 19.38492 56.55672 18.7596 58.57164 19.48914"></polygon>
                <path d="M34.53156,76.84488 L34.01046,78.54714 L33.1767,78.09552 L32.72508,76.63644 L33.03774,75.80268 L34.14942,74.96892 L34.53156,76.84488 Z M27.13194,60.72552 L27.51408,60.89922 L28.00044,60.86448 L28.8342,61.42032 L31.33548,61.8372 L30.50172,63.29628 L30.36276,64.85958 L29.91114,65.24172 L29.11212,65.03328 L29.1816,65.58912 L27.93096,66.80502 L27.93096,67.81248 L28.76472,67.46508 L29.39004,68.40306 L29.3553,69.02838 L29.8764,69.86214 L29.28582,70.5222 L29.80692,72.22446 L30.77964,72.50238 L30.60594,73.44036 L29.04264,74.691 L25.49916,74.10042 L22.9284,74.82996 L22.71996,76.15008 L20.6703,76.428 L18.65538,75.42054 L17.99532,75.9069 L14.69502,74.89944 L14.00022,74.06568 L14.9382,72.74556 L15.2856,68.36832 L13.51386,66.07548 L12.22848,64.9638 L9.58824,64.13004 L9.44928,62.532 L11.70738,62.08038 L14.5908,62.63622 L14.0697,60.16968 L15.70248,61.10766 L19.66284,59.44014 L20.18394,57.6684 L21.64302,57.21678 L21.92094,57.98106 L22.68522,58.0158 L23.51898,58.8843 L24.73488,59.89176 L25.60338,59.71806 L27.13194,60.72552 L27.13194,60.72552 Z" id="Shape" fill="#DACDEB"></path>
                <polygon id="Path" fill="#DACDEB" points="84.34872 96.5772 84.48768 97.48044 84.27924 97.82784 84.31398 97.82784 84.0708 98.52264 83.34126 98.24472 83.09808 99.7038 83.61918 99.94698 83.16756 100.25964 83.13282 100.85022 84.00132 100.5723 84.14028 101.4408 83.51496 104.98428 83.27178 104.42844 81.91692 101.16288 82.40328 100.43334 82.26432 100.29438 82.64646 99.25218 82.8549 97.58466 83.06334 96.99408 83.09808 96.99408 83.7234 96.99408 83.86236 96.61194"></polygon>
                <path d="M44.32824,90.8451 L44.25876,90.94932 L44.08506,90.87984 L43.91136,90.77562 L43.91136,90.60192 L43.87662,90.56718 L44.08506,90.56718 L44.22402,90.6714 L44.2935,90.74088 L44.32824,90.8451 Z M43.7724,90.46296 L43.5987,90.42822 L43.5987,90.35874 L43.73766,90.324 L43.87662,90.42822 L43.7724,90.46296 L43.7724,90.46296 Z" id="Shape" fill="#DACDEB"></path>
                <polygon id="Path" fill="#DACDEB" points="58.78008 78.65136 58.43268 78.72084 58.15476 79.10298 57.18204 79.06824 56.55672 79.5546 55.37556 79.7283 54.57654 79.2072 54.22914 78.26922 54.40284 77.50494 54.64602 77.53968 54.68076 77.08806 55.68822 76.74066 56.1051 76.63644 56.69568 76.53222 57.52944 76.46274 58.50216 77.19228"></polygon>
                <polygon id="Path" fill="#DACDEB" points="194.50926 59.50962 195.89886 59.09274 197.87904 58.81482 199.755 59.12748 202.04784 60.13494 203.7501 61.24662 205.34814 61.24662 207.71046 61.59402 208.9611 61.03818 211.01076 60.69078 212.53932 59.16222 213.72048 59.4054 215.07534 60.13494 217.02078 59.9265 217.22922 61.55928 217.33344 63.7479 218.30616 64.6164 219.10518 64.33848 221.01588 64.68588 221.88438 63.88686 223.69086 64.58166 226.19214 66.11022 226.47006 66.8745 224.9415 66.63132 222.57918 66.90924 221.71068 67.53456 221.25906 68.99364 219.0357 69.8274 217.92402 71.00856 215.87436 70.55694 214.76268 70.3485 214.58898 71.77284 215.59644 72.6066 216.2565 73.33614 215.42274 74.10042 214.72794 75.28158 213.02568 76.04586 210.38544 76.11534 207.88416 76.87962 206.3556 78.06078 205.20918 77.40072 203.0553 77.40072 199.78974 76.04586 197.8443 75.7332 195.62094 76.04586 191.69532 75.52476 189.74988 75.59424 188.1171 74.27412 186.3801 72.2592 185.19894 72.01602 182.41974 70.62642 179.91846 70.3485 177.66036 69.96636 176.61816 68.99364 176.1318 66.45762 174.11688 64.68588 171.2682 63.88686 169.28802 62.74044 168.1416 61.21188 169.77438 60.82974 172.10196 58.98852 174.15162 57.98106 175.99284 58.64112 177.79932 58.67586 179.46684 59.68332 181.20384 59.7528 183.98304 60.30864 184.8168 58.78008 183.4272 57.52944 183.87882 55.30608 186.31062 56.17458 187.97814 56.4525 190.30572 57.00834 191.55636 58.60638"></polygon>
                <polygon id="Path" fill="#DACDEB" points="225.87948 122.73642 223.62138 124.61238 222.336 126.73152 222.12756 128.29482 223.96878 130.6224 226.22688 133.54056 228.20706 134.93016 229.6314 136.7019 231.021 140.83596 231.15996 144.76158 229.66614 146.22066 227.547 147.67974 226.08792 149.52096 223.79508 151.60536 222.99606 150.18102 223.41294 148.65246 221.88438 147.40182 223.48242 146.49858 225.53208 146.32488 224.55936 145.00476 227.68596 143.26776 227.65122 140.59278 227.0259 139.09896 227.09538 136.8756 226.40058 135.3123 224.69832 133.749 223.16976 131.80356 221.18958 129.16332 218.65356 127.80846 219.07044 127.00944 220.21686 126.41886 219.17466 124.47342 216.81234 124.47342 215.59644 122.4585 214.20684 120.68676 215.14482 120.13092 216.67338 120.16566 218.5146 119.88774 219.93894 118.70658 221.01588 119.54034 222.8571 119.95722 222.75288 121.2426 223.82982 122.14584"></polygon>
                <path d="M45.82206,85.52988 L45.23148,87.30162 L45.54414,87.96168 L45.23148,89.1081 L43.7724,88.27434 L42.83442,88.03116 L40.22892,86.91948 L40.40262,85.77306 L42.5565,85.9815 L44.43246,85.73832 L45.82206,85.52988 L45.82206,85.52988 Z M34.01046,78.92928 L35.15688,80.49258 L35.01792,83.44548 L34.18416,83.30652 L33.45462,84.03606 L32.75982,83.44548 L32.58612,80.7705 L32.1345,79.51986 L33.14196,79.62408 L34.01046,78.92928 L34.01046,78.92928 Z M41.54904,67.29138 L41.41008,68.36832 L41.89644,69.3063 L40.4721,68.9589 L39.11724,69.75792 L39.2562,70.83486 L39.0825,71.46018 L39.74256,72.57186 L41.47956,73.68354 L42.48702,75.52476 L44.60616,77.2965 L45.99576,77.26176 L46.48212,77.74812 L45.99576,78.19974 L47.66328,78.99876 L49.05288,79.65882 L50.68566,80.83998 L50.8941,81.22212 L50.61618,82.02114 L49.53924,80.97894 L47.9412,80.63154 L47.28114,82.05588 L48.636,82.88964 L48.49704,84.03606 L47.7675,84.17502 L46.899,86.08572 L46.13472,86.25942 L46.09998,85.56462 L46.41264,84.38346 L46.79478,83.8971 L45.99576,82.61172 L45.37044,81.50004 L44.60616,81.22212 L43.98084,80.28414 L42.79968,79.86726 L41.96592,78.96402 L40.6458,78.82506 L39.15198,77.85234 L37.44972,76.39326 L36.16434,75.14262 L35.50428,72.954 L34.60104,72.71082 L33.14196,71.98128 L32.34294,72.2592 L31.33548,73.3014 L30.60594,73.44036 L30.77964,72.50238 L29.80692,72.22446 L29.28582,70.5222 L29.8764,69.86214 L29.3553,69.02838 L29.39004,68.40306 L30.15432,68.88942 L31.02282,68.7852 L31.9608,68.02092 L32.27346,68.36832 L33.10722,68.29884 L33.45462,67.43034 L34.77474,67.70826 L35.50428,67.32612 L35.6085,66.45762 L36.68544,66.77028 L36.85914,66.3534 L38.5614,65.97126 L39.01302,66.7008 L41.54904,67.29138 L41.54904,67.29138 Z" id="Shape" fill="#DACDEB"></path>
                <polygon id="Path" fill="#DACDEB" points="61.62876 39.74256 61.94142 40.08996 61.03818 41.27112 61.87194 43.21656 61.3161 43.87662 59.99598 43.84188 58.46742 43.0776 57.73788 42.83442 56.41776 43.18182 56.38302 41.96592 55.86192 42.24384 54.7155 41.5143 54.3681 40.33314 56.2788 39.74256 58.22424 39.46464 59.99598 39.7773"></polygon>
                <path d="M261.66168,58.08528 L266.42106,61.90668 L263.3292,61.21188 L264.61458,64.33848 L267.94962,66.56184 L268.99182,68.0904 L266.73372,66.77028 L266.76846,68.47254 L265.13568,66.63132 L263.81556,64.51218 L261.87012,62.1846 L261.03636,60.51708 L258.813,57.6684 L256.0338,55.54926 L253.67148,52.6311 L254.33154,51.65838 L252.80298,50.68566 L253.2546,50.373 L254.95686,51.7626 L257.35392,53.81226 L259.1604,55.9314 L261.66168,58.08528 L261.66168,58.08528 Z M54.99342,50.44248 L51.9363,50.47722 L49.88664,50.23404 L50.12982,49.3308 L52.31844,48.636 L54.09018,49.01814 L54.85446,49.3308 L54.78498,49.92138 L54.99342,50.44248 L54.99342,50.44248 Z M212.64354,13.2012 L210.59388,13.23594 L207.50202,13.0275 L207.15462,12.92328 L207.3978,12.22848 L208.85688,12.05478 L211.77504,12.74958 L212.64354,13.2012 Z M217.02078,9.9009 L216.63864,10.5957 L214.24158,10.45674 L210.66336,9.76194 L210.03804,9.2061 L212.92146,9.44928 L217.02078,9.9009 Z M208.16208,9.06714 L209.23902,10.38726 L204.2712,10.31778 L202.67316,10.73466 L198.33066,9.58824 L197.1495,8.40708 L198.3654,8.09442 L201.90888,8.1639 L208.16208,9.06714 L208.16208,9.06714 Z M98.1405,17.75214 L97.37622,17.8911 L92.68632,17.64792 L91.8873,16.8489 L89.14284,16.36254 L88.44804,15.35508 L89.66394,14.97294 L89.1081,14.00022 L90.98406,12.47166 L89.59446,12.26322 L91.92204,10.69992 L91.05354,9.9009 L93.41586,8.99766 L96.99408,7.88598 L101.05866,7.57332 L102.79566,6.948 L105.12324,6.73956 L106.58232,7.39962 L106.1307,7.92072 L102.17034,8.78922 L98.73108,9.58824 L95.7087,11.25576 L94.73598,12.99276 L93.58956,14.72976 L94.6665,16.22358 L98.1405,17.75214 L98.1405,17.75214 Z M251.5176,76.32378 L250.85754,75.17736 L251.72604,75.14262 L250.37118,72.53712 L248.7384,70.66116 L249.74586,69.89688 L252.14292,70.27902 L251.93448,68.12514 L250.96176,65.76282 L251.06598,64.9638 L250.61436,62.98362 L248.2173,63.64368 L247.31406,64.47744 L244.67382,64.47744 L242.58942,62.46252 L239.46282,60.89922 L235.98882,60.20442 L233.83494,58.12002 L232.27164,56.7999 L230.95152,55.86192 L228.27654,53.70804 L226.19214,52.94376 L223.2045,52.2837 L221.05062,52.35318 L219.27888,52.73532 L218.6883,53.81226 L219.97368,54.29862 L220.84218,55.47978 L220.39056,56.17458 L220.46004,58.43268 L221.1201,59.4054 L219.59154,60.76026 L217.02078,59.9265 L215.07534,60.13494 L213.72048,59.4054 L212.53932,59.16222 L211.01076,60.69078 L208.9611,61.03818 L207.71046,61.59402 L205.34814,61.24662 L203.7501,61.24662 L202.04784,60.13494 L199.755,59.12748 L197.87904,58.81482 L195.89886,59.09274 L194.50926,59.50962 L191.55636,58.60638 L190.30572,57.00834 L187.97814,56.4525 L186.31062,56.17458 L183.87882,55.30608 L183.4272,57.52944 L184.8168,58.78008 L183.98304,60.30864 L181.20384,59.7528 L179.46684,59.68332 L177.79932,58.67586 L175.99284,58.64112 L174.15162,57.98106 L172.10196,58.98852 L169.77438,60.82974 L168.1416,61.21188 L167.55102,61.38558 L166.02246,60.06546 L163.93806,60.37812 L162.79164,59.44014 L161.40204,59.02326 L159.9777,57.77262 L158.83128,57.39048 L156.6774,57.94632 L153.75924,56.73042 L153.3771,57.8421 L147.01968,52.42266 L144.10152,50.78988 L144.37944,50.09508 L141.18336,52.11 L139.6548,52.21422 L139.27266,51.0678 L136.80612,50.33826 L135.3123,50.85936 L133.78374,48.67074 L130.6224,48.21912 L129.54546,49.08762 L125.7588,49.88664 L125.16822,50.40774 L119.26242,51.13728 L118.77606,51.86682 L120.5478,53.3259 L119.1582,53.88174 L119.6793,54.43758 L118.4634,55.47978 L121.72896,56.9736 L121.65948,57.98106 L119.22768,57.87684 L118.94976,58.5369 L116.41374,57.42522 L113.73876,57.45996 L112.2102,58.3632 L109.91736,57.4947 L105.74856,56.00088 L103.10832,56.07036 L100.29438,58.39794 L100.50282,59.96124 L98.41842,58.7106 L97.65414,61.10766 L98.27946,61.52454 L97.68888,63.19206 L99.5301,64.65114 L100.78074,64.58166 L102.27456,66.04074 L102.34404,67.15242 L103.31676,67.53456 L102.8304,68.81994 L101.23236,69.16734 L99.98172,71.42544 L102.06612,73.54458 L102.20508,75.00366 L104.7411,77.60916 L103.8726,78.5124 L103.66416,79.06824 L102.8304,78.89454 L101.33658,77.57442 L100.81548,77.50494 L99.56484,76.98384 L98.8353,76.0806 L97.06356,75.62898 L96.0561,75.97638 L95.63922,75.5595 L92.99898,74.48256 L90.324,74.13516 L88.72596,73.75302 L88.587,74.03094 L85.94676,72.15498 L83.79288,71.32122 L82.02114,70.03584 L83.27178,69.68844 L84.38346,67.88196 L83.23704,67.01346 L85.6341,66.11022 L85.49514,65.62386 L84.00132,65.97126 L83.86236,65.03328 L84.62664,64.40796 L86.29416,64.269 L86.39838,63.53946 L85.77306,62.32356 L86.22468,61.21188 L86.08572,60.55182 L83.41074,59.85702 L82.40328,59.89176 L81.15264,58.8843 L79.902,59.2317 L77.57442,58.46742 L77.53968,58.05054 L76.74066,57.11256 L75.3858,57.00834 L75.10788,56.34828 L75.42054,55.89666 L74.10042,54.68076 L72.39816,54.8892 L71.87706,54.78498 L71.52966,55.27134 L70.90434,55.20186 L70.20954,53.81226 L69.68844,53.11746 L69.96636,52.90902 L71.32122,52.9785 L71.87706,52.52688 L71.28648,51.97104 L70.10532,51.5889 L70.10532,51.20676 L69.37578,50.82462 L68.05566,49.43502 L68.29884,48.87918 L67.9167,47.87172 L66.24918,47.38536 L65.41542,47.62854 L65.10276,47.10744 L63.26154,46.58634 L62.532,45.3357 L62.1846,44.32824 L61.3161,43.87662 L61.87194,43.21656 L61.03818,41.27112 L61.94142,40.08996 L61.62876,39.74256 L63.19206,38.59614 L61.3161,37.62342 L64.0953,35.05266 L65.27646,33.8715 L65.58912,32.86404 L63.01836,31.50918 L63.33102,30.18906 L61.62876,28.72998 L62.21934,27.06246 L59.96124,24.87384 L60.9687,23.41476 L58.43268,22.12938 L58.29372,20.80926 L59.4054,20.63556 L61.62876,19.90602 L62.91414,19.24596 L65.58912,20.35764 L69.6537,20.80926 L75.80268,22.96314 L77.22702,23.86638 L77.74812,25.15176 L76.46274,26.15922 L74.20464,26.68032 L67.18716,25.22124 L66.1797,25.46442 L68.99364,26.88876 L69.34104,27.792 L70.0011,29.80692 L72.12024,30.3975 L73.44036,30.9186 L73.37088,29.94588 L72.18972,29.11212 L72.91926,28.34784 L76.9491,29.59848 L78.06078,29.11212 L76.56696,27.65304 L79.3809,25.77708 L80.80524,25.8813 L82.40328,26.54136 L82.78542,25.22124 L81.15264,24.07482 L81.43056,22.9284 L79.93674,21.74724 L84.20976,22.37256 L85.4604,23.41476 L83.68866,23.65794 L84.10554,24.73488 L85.52988,25.39494 L87.61428,24.97806 L87.47532,23.76216 L90.1503,22.82418 L94.45806,21.22614 L95.56974,21.29562 L94.70124,22.44204 L96.5772,22.65048 L97.30674,21.99042 L99.98172,21.95568 L101.71872,21.15666 L103.94208,22.30308 L104.9148,21.05244 L102.8304,19.9755 L103.24728,19.35018 L107.76348,19.90602 L110.05632,20.4966 L116.51796,22.65048 L116.9001,21.67776 L114.85044,20.6703 L114.57252,20.28816 L112.7313,20.07972 L112.66182,19.21122 L111.02904,17.75214 L110.6469,17.16156 L112.14072,15.52878 L111.93228,13.86126 L112.69656,13.51386 L116.65692,14.00022 L117.66438,15.00768 L117.35172,16.46676 L118.6371,17.05734 L119.95722,18.34272 L121.27734,20.91348 L123.60492,22.0599 L123.77862,23.34528 L122.56272,26.055 L124.40394,26.33292 L124.57764,25.63812 L125.89776,25.15176 L125.72406,24.21378 L126.38412,23.2758 L124.85556,22.19886 L124.7166,20.94822 L123.04908,20.80926 L122.04162,19.76706 L121.90266,17.8911 L119.05398,16.39728 L120.68676,15.18138 L119.40138,13.896 L120.06144,13.86126 L121.52052,14.83398 L122.25006,16.60572 L123.98706,16.95312 L122.38902,15.633 L124.16076,14.90346 L126.9747,14.79924 L130.30974,15.84144 L127.91268,14.34762 L126.21042,12.43692 L128.26008,12.08952 L131.56038,12.159 L134.2701,11.91582 L132.32466,11.01258 L132.77628,9.86616 L134.23536,9.79668 L135.93762,8.96292 L139.16844,8.71974 L139.09896,8.23338 L142.32978,8.09442 L143.8236,8.47656 L145.69956,7.57332 L148.13136,7.60806 L147.61026,6.84378 L147.92292,6.14898 L150.0768,5.45418 L152.96022,6.01002 L151.74432,6.4269 L155.00988,6.67008 L156.43422,7.50384 L157.09428,7.08696 L160.88094,7.1217 L164.91078,7.95546 L166.82148,8.58078 L167.68998,9.48402 L166.85622,10.00512 L164.56338,10.97784 L164.18124,11.49894 L166.12668,11.74212 L168.62796,12.19374 L169.46172,11.84634 L171.47664,12.99276 L171.54612,12.54114 L173.3526,12.26322 L178.07724,12.54114 L179.39736,13.3749 L185.44212,13.65282 L183.7746,12.29796 L187.0749,12.61062 L189.19404,12.57588 L192.6333,13.51386 L194.7177,14.66028 L194.85666,15.42456 L198.3654,16.88364 L201.492,17.61318 L200.4498,15.70248 L203.71536,16.5015 L205.45236,16.01514 L208.85688,16.57098 L209.20428,16.08462 L211.84452,16.3278 L208.57896,14.62554 L209.3085,13.86126 L223.34346,15.04242 L226.08792,16.11936 L231.75054,17.50896 L236.89206,17.16156 L240.12288,17.47422 L242.41572,18.2385 L244.18746,19.59336 L246.72348,20.11446 L248.07834,19.73232 L250.51014,19.69758 L253.74096,20.04498 L256.13802,19.83654 L261.10584,21.50406 L261.97434,20.91348 L259.02144,19.73232 L258.39612,18.89856 L263.71134,19.41966 L266.49054,19.31544 L271.97946,20.18394 L275.27976,21.0177 L286.81344,28.69524 L286.11864,29.56374 L283.96476,29.42478 L286.81344,30.46698 L289.97478,32.09976 L291.43386,32.62086 L292.75398,33.45462 L293.10138,33.97572 L289.62738,33.55884 L287.33454,35.05266 L286.29234,35.29584 L285.7365,36.72018 L285.0417,37.97082 L285.63228,38.9088 L281.63718,37.48446 L279.51804,39.0825 L277.88526,38.31822 L277.3989,39.22146 L274.9671,38.9088 L276.04404,40.26366 L276.42618,42.27858 L277.43364,43.11234 L279.79596,43.56396 L282.9573,46.58634 L281.53296,46.69056 L282.71412,48.42756 L284.3469,49.3308 L282.6099,50.40774 L284.48586,52.83954 L282.50568,53.36064 L284.06898,55.51452 L283.4784,57.52944 L281.49822,56.03562 L277.85052,52.94376 L272.22264,48.21912 L269.96454,45.3357 L269.99928,44.08506 L269.02656,43.11234 L271.00674,42.66072 L270.93726,40.05522 L271.18044,37.97082 L272.04894,36.33804 L269.7561,33.48936 L268.12332,33.66306 L269.235,35.33058 L267.98436,37.55394 L263.71134,35.05266 L260.55,35.74746 L260.55,39.15198 L263.22498,40.40262 L260.27208,40.95846 L258.04872,41.1669 L256.5549,39.67308 L253.7757,39.36042 L252.9072,40.36788 L247.66146,40.02048 L243.07578,40.61106 L241.85988,44.67564 L240.12288,49.60872 L242.97156,49.88664 L244.95174,51.20676 L246.96666,51.65838 L247.10562,50.61618 L249.05106,50.75514 L253.49778,53.08272 L255.13056,54.8892 L255.61692,57.04308 L257.52762,59.61384 L259.36884,63.0531 L259.02144,66.21444 L259.47306,67.70826 L258.77826,70.27902 L258.04872,72.81504 L257.73606,74.10042 L256.13802,75.3858 L255.06108,75.42054 L253.2546,74.3436 L251.83026,75.97638 L252.00396,76.70592 L251.5176,76.32378 Z M149.65992,4.48146 L143.37198,5.10678 L142.92036,2.98764 L143.68464,2.81394 L144.76158,2.91816 L149.13882,3.8214 L149.65992,4.48146 L149.65992,4.48146 Z M79.3809,1.00746 L77.88708,1.18116 L76.87962,1.32012 L76.87962,1.5633 L75.62898,1.80648 L74.06568,1.45908 L74.44782,0.97272 L71.7381,0.93798 L73.92672,0.66006 L75.7332,0.66006 L76.2543,1.0422 L76.70592,0.6948 L77.67864,0.45162 L79.69356,0.76428 L79.3809,1.00746 L79.3809,1.00746 Z M142.01712,3.54348 L139.55058,3.75192 L135.486,3.3003 L132.67206,2.70972 L130.37922,1.59804 L128.32956,1.32012 L130.20552,0.31266 L132.3594,0 L135.69444,0.6948 L140.45382,2.15388 L142.01712,3.54348 L142.01712,3.54348 Z" id="Shape" fill="#C59EF8"></path>
                <polygon id="Path" fill="#DACDEB" points="49.88664 50.23404 51.9363 50.47722 54.99342 50.44248 55.86192 50.68566 56.34828 51.34572 56.55672 52.2837 57.1473 53.08272 57.28626 53.91648 56.31354 54.3681 56.9736 55.34082 57.1473 56.31354 58.25898 58.1895 58.15476 58.78008 57.35574 59.02326 56.03562 60.82974 56.59146 61.80246 56.20932 61.6635 54.47232 60.82974 53.25642 61.1424 52.42266 60.93396 51.44994 61.38558 50.51196 60.6213 49.8519 60.93396 49.74768 60.795 48.84444 59.71806 47.55906 59.61384 47.31588 58.91904 46.13472 58.67586 45.92628 59.2317 44.95356 58.78008 45.02304 58.1895 43.73766 58.0158 42.86916 57.321 42.0354 55.96614 42.10488 55.20186 41.58378 54.05544 40.92372 53.3259 41.3406 52.73532 40.85424 51.65838 41.93118 51.03306 44.39772 50.06034 46.41264 49.36554 48.08016 49.71294 48.2886 50.23404"></polygon>
                <polygon id="Path" fill="#DACDEB" points="161.64522 91.60938 160.3251 93.48534 158.34492 93.83274 155.39202 93.2769 154.69722 94.24962 155.84364 96.19506 156.8511 97.72362 158.62284 98.80056 157.30272 100.08594 157.65012 101.68398 156.29526 103.94208 155.53098 106.20018 153.96768 108.52776 151.70958 108.35406 150.00732 110.71638 151.39692 111.6891 151.88328 113.4261 153.09918 114.53778 153.7245 116.44848 149.52096 116.44848 148.40928 117.9423 146.9502 117.38646 146.18592 115.78842 144.48366 114.08616 141.00966 114.50304 137.88306 114.53778 135.24282 114.85044 135.62496 112.27968 138.23046 111.09852 137.9178 110.09106 136.97982 109.70892 136.63242 107.76348 134.65224 106.79076 133.67952 105.4359 132.56784 104.25474 135.90288 105.40116 137.7441 105.05376 138.92526 105.33168 139.23792 104.84532 140.59278 105.05376 142.88562 104.11578 142.6077 102.23982 143.40672 100.95444 144.83106 100.95444 144.90054 100.36386 146.29014 100.0512 147.01968 100.25964 147.645 99.63432 147.26286 98.27946 147.74922 96.95934 148.82616 96.36876 147.74922 94.90968 149.5557 94.97916 149.86836 94.18014 149.59044 93.31164 150.28524 92.37366 149.79888 91.26198 149.13882 90.324 149.97258 89.35128 151.8138 88.89966 153.86346 88.62174 154.69722 88.2396 155.70468 87.96168 157.33746 89.00388 158.34492 90.74088"></polygon>
                <polygon id="Path" fill="#DACDEB" points="3.68244 88.0659 2.91816 88.62174 1.94544 88.30908 1.00746 88.55226 1.32012 86.81526 1.2159 85.4604 0.38214 85.25196 0 84.4182 0.1737 82.95912 0.93798 82.1601 1.11168 81.25686 1.52856 79.93674 1.52856 78.99876 1.2159 78.19974 1.14642 77.43546 1.80648 76.87962 2.57076 76.56696 2.98764 77.6439 4.02984 77.6439 4.3425 77.36598 5.41944 77.43546 5.87106 78.54714 5.0373 79.13772 4.93308 80.87472 4.65516 81.18738 4.55094 82.26432 3.75192 82.43802 4.44672 83.75814 3.89088 85.21722 4.5162 85.87728 4.23828 86.46786 3.54348 87.30162"></polygon>
                <polygon id="Path" fill="#DACDEB" points="84.0708 98.52264 84.20976 99.91224 84.00132 100.5723 83.13282 100.85022 83.16756 100.25964 83.61918 99.94698 83.09808 99.7038 83.34126 98.24472"></polygon>
                <polygon id="Path" fill="#DACDEB" points="55.54926 63.12258 56.59146 63.71316 56.76516 64.30374 55.7577 64.75536 55.09764 66.21444 54.1944 67.70826 52.83954 68.12514 51.72786 68.02092 50.44248 68.57676 49.81716 68.92416 48.32334 68.50728 46.93374 67.5693 46.3779 67.29138 45.96102 66.56184 45.6831 66.5271 46.13472 65.1375 45.75258 64.65114 46.7253 64.65114 46.79478 63.7479 47.73276 64.33848 48.39282 64.54692 49.81716 64.30374 49.92138 63.85212 50.58144 63.78264 51.38046 63.46998 51.5889 63.60894 52.38792 63.33102 52.73532 62.80992 53.29116 62.67096 55.20186 63.33102"></polygon>
                <polygon id="Path" fill="#DACDEB" points="50.44248 68.57676 50.96358 69.44526 51.55416 70.07058 50.96358 70.90434 50.12982 70.41798 48.91392 70.45272 47.35062 70.07058 46.5516 70.10532 46.2042 70.59168 45.5094 70.07058 45.23148 70.97382 46.16946 72.01602 46.62108 72.67608 47.48958 73.50984 48.21912 73.9962 48.94866 74.93418 50.61618 75.76794 50.44248 76.11534 48.70548 75.31632 47.5938 74.5173 45.92628 73.85724 44.2935 72.2592 44.6409 72.0855 43.7724 71.14752 43.66818 70.41798 42.52176 70.07058 42.0354 71.00856 41.47956 70.27902 41.47956 69.51474 41.5143 69.48 42.76494 69.54948 43.04286 69.20208 43.66818 69.54948 44.36298 69.58422 44.32824 68.99364 44.91882 68.75046 45.02304 67.88196 46.3779 67.29138 46.93374 67.5693 48.32334 68.50728 49.81716 68.92416"></polygon>
                <polygon id="Path" fill="#DACDEB" points="90.94932 99.04374 90.63666 99.39114 87.0237 100.50282 89.1081 102.76092 88.55226 103.10832 88.30908 103.8726 86.88474 104.18526 86.5026 104.98428 85.77306 105.67908 83.61918 105.29694 83.51496 104.98428 84.14028 101.4408 84.00132 100.5723 84.20976 99.91224 84.0708 98.52264 84.31398 97.82784 86.5026 98.73108 89.87238 96.33402"></polygon>
                <path d="M120.7215,133.64478 L119.95722,132.08148 L118.15074,128.39904 L123.81336,126.17568 L124.7166,121.72896 L123.6744,120.13092 L123.6744,119.22768 L124.12602,118.32444 L124.05654,117.4212 L124.8903,116.96958 L124.50816,116.65692 L124.50816,115.19784 L125.48088,115.19784 L126.52308,116.7264 L127.6695,117.52542 L129.09384,117.83808 L130.275,118.22022 L131.28246,119.5056 L131.87304,120.23514 L132.56784,120.5478 L132.63732,121.03416 L132.04674,122.35428 L131.80356,122.9796 L131.03928,123.70914 L130.4487,125.2377 L129.5802,125.09874 L129.2328,125.65458 L128.98962,126.76626 L129.37176,128.26008 L129.19806,128.538 L128.32956,128.538 L127.18314,129.37176 L127.07892,130.4487 L126.66204,130.93506 L125.44614,130.90032 L124.75134,131.45616 L124.82082,132.3594 L123.91758,132.98472 L122.84064,132.77628 L121.59,133.54056 L120.7215,133.64478 L120.7215,133.64478 Z M125.02926,113.4261 L124.57764,112.66182 L125.064,111.93228 L125.30718,112.10598 L125.2377,113.04396 L125.02926,113.4261 L125.02926,113.4261 Z" id="Shape" fill="#DACDEB"></path>
                <path d="M7.08696,51.4152 L5.87106,50.99832 L4.82886,51.03306 L5.24574,49.88664 L4.93308,48.77496 L6.32268,48.67074 L8.02494,49.99086 L7.08696,51.4152 Z M12.61062,41.44482 L10.83888,43.70292 L12.47166,43.425 L14.2434,43.425 L13.79178,45.12726 L12.29796,47.00322 L14.00022,47.10744 L14.10444,47.35062 L15.56352,49.81716 L16.6752,50.16456 L17.68266,52.59636 L18.16902,53.43012 L20.21868,53.81226 L20.01024,55.20186 L19.17648,55.82718 L19.83654,56.93886 L18.30798,58.05054 L16.04988,58.0158 L13.13172,58.64112 L12.36744,58.1895 L11.22102,59.19696 L9.65772,58.95378 L8.40708,59.78754 L7.53858,59.37066 L10.0746,57.11256 L11.60316,56.6262 L8.96292,56.2788 L8.5113,55.4103 L10.28304,54.75024 L9.41454,53.60382 L9.76194,52.21422 L12.22848,52.42266 L12.5064,51.17202 L11.42946,49.88664 L11.39472,49.8519 L9.41454,49.46976 L9.0324,48.91392 L9.65772,47.97594 L9.13662,47.38536 L8.23338,48.39282 L8.19864,46.34316 L7.43436,45.30096 L8.09442,43.14708 L9.41454,41.47956 L10.66518,41.61852 L12.61062,41.44482 L12.61062,41.44482 Z" id="Shape" fill="#DACDEB"></path>
                <polygon id="Path" fill="#DACDEB" points="97.06356 75.62898 98.8353 76.0806 99.56484 76.98384 100.81548 77.50494 100.3986 77.78286 101.54502 78.99876 101.33658 79.24194 100.32912 79.13772 98.87004 78.47766 98.4879 78.8598 96.0561 79.2072 94.11066 78.09552 92.19996 78.19974 92.30418 77.26176 91.57464 75.76794 90.39348 74.93418 89.35128 74.691 88.587 74.03094 88.72596 73.75302 90.324 74.13516 92.99898 74.48256 95.63922 75.5595 96.0561 75.97638"></polygon>
                <polygon id="Path" fill="#DACDEB" points="113.87772 112.24494 113.98194 112.27968 114.05142 112.24494 114.19038 112.48812 114.15564 112.5576 114.19038 112.87026 114.19038 113.11344 114.1209 113.2524 114.08616 113.11344 113.87772 112.83552 113.91246 112.69656 113.84298 112.45338 113.84298 112.31442"></polygon>
                <path d="M61.28136,91.15776 L62.3583,91.92204 L63.78264,91.78308 L65.17224,91.92204 L65.17224,92.33892 L66.14496,92.061 L65.97126,92.72106 L63.33102,92.89476 L63.29628,92.54736 L61.00344,92.09574 L61.28136,91.15776 L61.28136,91.15776 Z M64.47744,79.79778 L63.36576,79.7283 L62.42778,79.51986 L60.2739,80.0757 L61.6635,81.32634 L60.795,81.70848 L59.78754,81.70848 L58.7106,80.56206 L58.39794,81.04842 L58.95378,82.36854 L59.96124,83.41074 L59.30118,83.8971 L60.41286,84.90456 L61.38558,85.56462 L61.52454,86.81526 L59.78754,86.22468 L60.41286,87.3711 L59.26644,87.57954 L60.13494,89.55972 L58.91904,89.59446 L57.321,88.62174 L56.48724,86.85 L56.03562,85.35618 L55.2366,84.34872 L54.1944,83.06334 L54.0207,82.43802 L54.78498,81.36108 L54.81972,80.63154 L55.4103,80.31888 L55.37556,79.7283 L56.55672,79.5546 L57.18204,79.06824 L58.15476,79.10298 L58.43268,78.72084 L58.78008,78.65136 L60.1002,78.72084 L61.4898,78.09552 L62.84466,78.89454 L64.4427,78.6861 L64.33848,77.57442 L65.27646,78.165 L64.89432,79.5546 L64.47744,79.79778 L64.47744,79.79778 Z" id="Shape" fill="#DACDEB"></path>
                <polygon id="Path" fill="#DACDEB" points="63.43524 63.53946 63.99108 63.78264 64.6164 64.40796 65.3112 65.3112 66.49236 66.63132 66.7008 67.5693 66.63132 68.50728 67.08294 69.51474 67.9167 69.93162 68.71572 69.54948 69.54948 69.93162 69.68844 70.5222 68.88942 70.97382 68.33358 70.76538 68.19462 73.44036 67.11768 73.19718 65.72808 72.39816 63.67842 72.91926 62.8794 73.4751 60.23916 73.33614 58.84956 73.02348 58.1895 73.16244 57.56418 72.2592 57.21678 71.87706 57.56418 71.49492 57.11256 71.25174 56.59146 71.7381 55.51452 71.07804 55.27134 70.1748 54.15966 69.68844 53.88174 68.9589 52.83954 68.12514 54.1944 67.70826 55.09764 66.21444 55.7577 64.75536 56.76516 64.30374 57.45996 63.81738 58.57164 64.06056 59.68332 64.06056 60.55182 64.6164 61.10766 64.269 62.3583 64.06056 62.7057 63.53946"></polygon>
                <polygon id="Path" fill="#DACDEB" points="146.15118 81.08316 145.66482 81.74322 143.58042 81.39582 143.78886 82.64646 145.69956 82.47276 148.1661 83.2023 151.50114 82.8549 152.57808 84.9393 153.09918 84.69612 154.38456 85.21722 154.55826 86.08572 155.18358 87.33636 153.30762 87.33636 151.9875 87.16266 151.119 88.17012 150.35472 88.37856 149.83362 88.86492 148.89564 88.13538 148.58298 86.25942 147.9924 86.1552 148.02714 85.4604 146.88072 84.97404 146.29014 85.73832 146.35962 86.64156 146.15118 86.95422 145.0395 86.91948 144.72684 87.92694 143.9973 87.51006 142.81614 88.20486 142.19082 87.96168 142.64244 85.70358 141.80868 84.03606 140.3496 83.51496 140.55804 82.54224 142.0866 82.64646 142.6077 81.43056 142.7814 80.00622 145.0395 79.48512 144.97002 80.52732 145.42164 81.1179"></polygon>
                <polygon id="Path" fill="#DACDEB" points="139.6548 87.47532 139.09896 87.40584 138.0915 86.81526 137.98728 87.57954 136.5282 88.03116 136.59768 89.8029 135.69444 90.4977 134.30484 90.81036 134.16588 91.81782 132.81102 92.13048 130.76136 91.26198 130.17078 89.42076 128.78118 89.31654 126.24516 87.3711 124.75134 87.12792 122.4585 85.9815 121.10364 85.77306 120.40884 86.18994 119.1582 86.12046 118.116 87.40584 116.58744 87.82272 115.92738 86.25942 115.71894 83.93184 114.1209 83.16756 114.25986 81.67374 113.04396 81.53478 113.00922 79.65882 114.85044 80.21466 116.27478 79.51986 114.642 78.165 113.80824 76.91436 112.48812 77.4702 112.69656 79.10298 111.79332 77.67864 112.41864 76.91436 114.36408 76.46274 115.71894 77.08806 117.38646 78.82506 118.2897 78.72084 120.33936 78.6861 119.74878 77.57442 121.0689 76.81014 122.25006 75.52476 124.99452 76.70592 125.65458 78.44292 126.4536 78.89454 128.3643 78.79032 129.09384 79.2072 130.58766 81.50004 133.0542 83.0286 134.51328 84.0708 136.7019 85.14774 139.37688 86.12046"></polygon>
                <polygon id="Path" fill="#DACDEB" points="57.56418 72.2592 57.18204 72.74556 57.42522 73.57932 58.39794 74.5173 57.77262 75.2121 57.56418 75.9069 57.77262 76.18482 57.52944 76.46274 56.69568 76.53222 56.1051 76.63644 56.00088 76.46274 56.20932 76.21956 56.34828 75.66372 56.1051 75.69846 55.72296 75.28158 55.4103 75.17736 55.13238 74.82996 54.78498 74.691 54.50706 74.37834 54.1944 74.5173 54.0207 75.24684 53.60382 75.3858 53.74278 75.2121 53.01324 74.76048 52.42266 74.5173 52.11 74.20464 51.62364 73.8225 52.00578 73.71828 52.17948 72.71082 51.2415 71.84232 51.62364 70.8696 50.96358 70.90434 51.55416 70.07058 50.96358 69.44526 50.44248 68.57676 51.72786 68.02092 52.83954 68.12514 53.88174 68.9589 54.15966 69.68844 55.27134 70.1748 55.51452 71.07804 56.59146 71.7381 57.11256 71.25174 57.56418 71.49492 57.21678 71.87706"></polygon>
                <polygon id="Path" fill="#DACDEB" points="38.87406 96.88986 38.83932 98.59212 37.93608 99.21744 37.38024 99.94698 36.1296 100.81548 36.33804 101.71872 36.19908 102.69144 35.29584 103.1778 34.3926 99.1827 33.21144 98.27946 33.1767 97.75836 31.6134 96.4035 31.40496 94.73598 32.51664 93.48534 32.89878 91.64412 32.55138 89.52498 32.89878 88.37856 34.87896 87.51006 36.16434 87.75324 36.16434 88.89966 37.6929 88.0659 37.83186 88.48278 36.96336 89.59446 36.9981 90.60192 37.65816 91.15776 37.48446 93.1032 36.26856 94.21488 36.68544 95.43078 37.65816 95.46552 38.14452 96.54246"></polygon>
                <polygon id="Path" fill="#DACDEB" points="191.9385 108.84042 192.84174 109.56996 193.01544 110.92482 191.45214 110.9943 189.81936 110.85534 188.70768 111.20274 186.79698 110.33424 186.65802 109.91736 187.56126 108.24984 188.4645 107.694 189.95832 108.18036 190.96578 108.24984"></polygon>
                <path d="M268.26228,94.63176 L268.81812,95.39604 L268.3665,96.7509 L267.28956,96.02136 L266.56002,96.54246 L266.59476,97.82784 L265.10094,97.20252 L264.68406,96.16032 L265.13568,94.80546 L266.31684,95.08338 L266.66424,94.1454 L268.26228,94.63176 L268.26228,94.63176 Z M276.80832,87.96168 L277.01676,89.73342 L277.88526,90.8451 L277.67682,92.4084 L275.80086,93.4506 L272.60478,93.58956 L271.07622,96.16032 L269.44344,95.29182 L268.60968,93.6243 L265.62204,94.11066 L263.8503,95.15286 L261.69642,95.22234 L264.26718,96.85512 L264.5451,100.64178 L263.6766,101.57976 L262.42596,100.71126 L262.1133,98.69634 L260.68896,98.07102 L259.29936,96.54246 L260.79318,95.84766 L261.17532,94.42332 L262.53018,93.2769 L263.22498,91.74834 L266.59476,91.08828 L268.78338,91.5399 L268.78338,87.57954 L270.55512,88.65648 L272.11842,86.43312 L272.709,85.56462 L272.3616,82.8549 L270.58986,80.35362 L270.52038,78.96402 L272.1879,78.54714 L275.03658,81.639 L276.0093,83.41074 L275.55768,85.66884 L276.80832,87.96168 L276.80832,87.96168 Z M272.67426,72.39816 L274.23756,72.84978 L274.86288,71.94654 L276.94728,74.41308 L274.72392,75.00366 L274.58496,77.19228 L270.7983,75.69846 L271.35414,78.09552 L269.37396,78.13026 L267.74118,75.94164 L267.53274,74.23938 L269.33922,74.13516 L267.81066,71.07804 L267.18534,69.37578 L270.83304,71.66862 L272.67426,72.39816 L272.67426,72.39816 Z" id="Shape" fill="#C59EF8"></path>
                <polygon id="Path" fill="#DACDEB" points="50.96358 70.90434 51.62364 70.8696 51.2415 71.84232 52.17948 72.71082 52.00578 73.71828 51.62364 73.8225 51.31098 74.03094 50.75514 74.55204 50.61618 75.76794 48.94866 74.93418 48.21912 73.9962 47.48958 73.50984 46.62108 72.67608 46.16946 72.01602 45.23148 70.97382 45.5094 70.07058 46.2042 70.59168 46.5516 70.10532 47.35062 70.07058 48.91392 70.45272 50.12982 70.41798"></polygon>
                <polygon id="Path" fill="#DACDEB" points="68.19462 73.44036 67.3956 74.3436 66.94398 75.9069 67.67352 77.15754 66.07548 76.87962 64.33848 77.57442 64.4427 78.6861 62.84466 78.89454 61.4898 78.09552 60.1002 78.72084 58.78008 78.65136 58.50216 77.19228 57.52944 76.46274 57.77262 76.18482 57.56418 75.9069 57.77262 75.2121 58.39794 74.5173 57.42522 73.57932 57.18204 72.74556 57.56418 72.2592 58.1895 73.16244 58.84956 73.02348 60.23916 73.33614 62.8794 73.4751 63.67842 72.91926 65.72808 72.39816 67.11768 73.19718"></polygon>
                <polygon id="Path" fill="#DACDEB" points="27.86148 57.98106 27.72252 59.44014 27.2709 59.50962 27.13194 60.72552 25.60338 59.71806 24.73488 59.89176 23.51898 58.8843 22.68522 58.0158 21.92094 57.98106 21.64302 57.21678 22.99788 56.7999 24.24852 56.9736 25.81182 56.52198 26.88876 57.45996"></polygon>
                <polygon id="Path" fill="#DACDEB" points="196.03782 121.62474 196.24626 123.22278 195.51672 122.87538 195.89886 124.68186 195.16932 123.53544 194.8914 122.38902 194.3703 121.31208 193.39758 120.0267 191.5911 119.92248 191.90376 120.86046 191.48688 122.07636 190.58364 121.62474 190.3752 122.04162 189.78462 121.79844 189.02034 121.59 188.4645 119.74878 187.56126 118.08126 187.66548 116.7264 186.3801 116.13582 186.69276 115.3368 187.73496 114.50304 186.13692 113.32188 186.5538 111.79332 188.25606 112.76604 189.19404 112.87026 189.61092 114.43356 191.48688 114.74622 193.25862 114.71148 194.43978 115.09362 193.88394 116.96958 193.05018 117.10854 192.6333 118.35918 193.88394 119.54034 193.98816 118.08126 194.50926 118.08126"></polygon>
            </g>
        </g>
    </g>
</svg>